<svg width="224" height="150" viewBox="0 0 224 150" fill="none" xmlns="http://www.w3.org/2000/svg">
<path d="M63.4475 54.7253C63.4475 57.7747 63.7436 60.2472 64.2617 62.0604C64.8538 63.8736 65.5939 65.8516 66.6301 67.9945C67.0002 68.6538 67.1482 69.3132 67.1482 69.8901C67.1482 70.7143 66.7041 71.5385 65.742 72.3626L61.0791 75.8242C60.413 76.3187 59.7469 76.5659 59.1548 76.5659C58.4146 76.5659 57.6745 76.1538 56.9344 75.4121C55.8982 74.1758 55.01 72.8571 54.2699 71.5385C53.5298 70.1374 52.7897 68.5714 51.9755 66.6758C46.2025 74.2582 38.9492 78.0494 30.2156 78.0494C23.9985 78.0494 19.0397 76.0714 15.413 72.1154C11.7864 68.1593 9.93604 62.8846 9.93604 56.2912C9.93604 49.2857 12.1564 43.5989 16.6712 39.3132C21.186 35.0275 27.1811 32.8846 34.8045 32.8846C37.3209 32.8846 39.9114 33.1319 42.6498 33.544C45.3883 33.956 48.2008 34.6154 51.1614 35.3571V29.3407C51.1614 23.0769 49.9771 18.7088 47.6827 16.1538C45.3143 13.5989 41.3176 12.3626 35.6186 12.3626C33.0281 12.3626 30.3637 12.6923 27.6252 13.4341C24.8867 14.1758 22.2222 15.0824 19.6318 16.2363C18.4475 16.8132 17.5594 17.1428 17.0413 17.3077C16.5232 17.4725 16.1531 17.5549 15.8571 17.5549C14.8209 17.5549 14.3028 16.7308 14.3028 15V10.9615C14.3028 9.64285 14.4508 8.65384 14.8209 8.07692C15.191 7.49999 15.8571 6.92307 16.8933 6.34615C19.4837 4.86263 22.5923 3.62637 26.2189 2.63735C29.8456 1.56593 33.6943 1.07142 37.765 1.07142C46.5725 1.07142 53.0117 3.29669 57.1564 7.74724C61.2272 12.1978 63.2995 18.956 63.2995 28.022V54.7253H63.4475ZM33.3982 67.2527C35.8406 67.2527 38.3571 66.7582 41.0216 65.7692C43.686 64.7802 46.0545 62.967 48.0528 60.4945C49.237 58.9286 50.1252 57.1978 50.5693 55.2198C51.0133 53.2418 51.3094 50.8516 51.3094 48.0494V44.5879C49.163 44.011 46.8686 43.5165 44.5002 43.1868C42.1318 42.8571 39.8373 42.6923 37.5429 42.6923C32.5841 42.6923 28.9574 43.7637 26.515 45.989C24.0725 48.2143 22.8883 51.3462 22.8883 55.467C22.8883 59.3407 23.7765 62.2253 25.6268 64.2033C27.4031 66.2637 29.9936 67.2527 33.3982 67.2527ZM92.8308 76.1538C91.4985 76.1538 90.6104 75.9066 90.0183 75.3297C89.4262 74.8352 88.9081 73.6813 88.464 72.1154L71.0709 8.40659C70.6268 6.75823 70.4048 5.68681 70.4048 5.10988C70.4048 3.7912 70.9969 3.04944 72.1811 3.04944H79.4344C80.8406 3.04944 81.8028 3.2967 82.3209 3.87362C82.913 4.36812 83.3571 5.52197 83.8012 7.0879L96.2354 61.6483L107.781 7.0879C108.151 5.43955 108.596 4.36812 109.188 3.87362C109.78 3.37911 110.816 3.04944 112.148 3.04944H118.069C119.475 3.04944 120.438 3.2967 121.03 3.87362C121.622 4.36812 122.14 5.52197 122.436 7.0879L134.13 62.3077L146.934 7.0879C147.378 5.43955 147.897 4.36812 148.415 3.87362C149.007 3.37911 149.969 3.04944 151.301 3.04944H158.184C159.369 3.04944 160.035 3.70878 160.035 5.10988C160.035 5.52197 159.961 5.93406 159.887 6.42856C159.813 6.92307 159.665 7.58241 159.369 8.489L141.531 72.1978C141.087 73.8461 140.569 74.9176 139.977 75.4121C139.385 75.9066 138.423 76.2363 137.165 76.2363H130.799C129.393 76.2363 128.431 75.989 127.839 75.4121C127.247 74.8352 126.729 73.7637 126.433 72.1154L114.961 18.956L103.563 72.033C103.193 73.6813 102.749 74.7527 102.156 75.3297C101.564 75.9066 100.528 76.1538 99.1959 76.1538H92.8308ZM187.938 78.3791C184.089 78.3791 180.24 77.8846 176.54 76.8956C172.839 75.9066 169.952 74.8352 168.028 73.5989C166.844 72.8571 166.03 72.033 165.734 71.2912C165.438 70.5494 165.29 69.7253 165.29 68.9835V64.7802C165.29 63.0494 165.882 62.2253 166.992 62.2253C167.436 62.2253 167.88 62.3077 168.324 62.4725C168.768 62.6374 169.434 62.967 170.175 63.2967C172.691 64.533 175.429 65.522 178.316 66.1813C181.276 66.8407 184.163 67.1703 187.124 67.1703C191.786 67.1703 195.413 66.2637 197.929 64.4505C200.446 62.6374 201.778 60 201.778 56.6209C201.778 54.3132 201.112 52.4176 199.78 50.8516C198.448 49.2857 195.931 47.8846 192.304 46.5659L181.573 42.8571C176.17 40.9615 172.173 38.1593 169.73 34.4505C167.288 30.8242 166.03 26.7857 166.03 22.5C166.03 19.0385 166.696 15.989 168.028 13.3516C169.36 10.7143 171.137 8.40659 173.357 6.5934C175.577 4.69779 178.094 3.2967 181.054 2.30768C184.015 1.31867 187.124 0.906586 190.38 0.906586C192.008 0.906586 193.711 0.989003 195.339 1.23626C197.041 1.48351 198.596 1.81318 200.15 2.14285C201.63 2.55494 203.036 2.96703 204.369 3.46153C205.701 3.95604 206.737 4.45054 207.477 4.94505C208.513 5.60439 209.253 6.26373 209.698 7.00549C210.142 7.66483 210.364 8.57142 210.364 9.72527V13.5989C210.364 15.3297 209.772 16.2363 208.661 16.2363C208.069 16.2363 207.107 15.9066 205.849 15.2472C201.63 13.1044 196.893 12.033 191.638 12.033C187.42 12.033 184.089 12.7747 181.795 14.3407C179.5 15.9066 178.316 18.2967 178.316 21.6758C178.316 23.9835 179.056 25.9615 180.536 27.5275C182.017 29.0934 184.755 30.6593 188.678 32.0604L199.188 35.7692C204.517 37.6648 208.365 40.3022 210.66 43.6813C212.954 47.0604 214.064 50.9341 214.064 55.2198C214.064 58.7637 213.398 61.978 212.14 64.7802C210.808 67.5824 209.031 70.0549 206.737 72.033C204.443 74.0934 201.704 75.5769 198.522 76.6483C195.191 77.8022 191.712 78.3791 187.938 78.3791Z" fill="#252F3E"/>
<path fill-rule="evenodd" clip-rule="evenodd" d="M201.926 118.434C177.576 138.461 142.197 149.093 111.778 149.093C69.1465 149.093 30.7336 131.538 1.72049 102.363C-0.573921 100.055 1.49845 96.923 4.23693 98.7362C35.6185 119.011 74.3274 131.291 114.369 131.291C141.383 131.291 171.063 125.027 198.373 112.17C202.444 110.11 205.923 115.137 201.926 118.434Z" fill="#FF9900"/>
<path fill-rule="evenodd" clip-rule="evenodd" d="M212.066 105.577C208.957 101.126 191.49 103.434 183.571 104.505C181.202 104.835 180.832 102.527 182.979 100.797C196.893 89.9176 219.763 93.0494 222.428 96.6758C225.092 100.385 221.688 125.852 208.661 138.049C206.663 139.945 204.739 138.956 205.627 136.483C208.587 128.324 215.174 109.945 212.066 105.577Z" fill="#FF9900"/>
</svg>
