<svg width="64" height="64" viewBox="0 0 64 64" fill="none" xmlns="http://www.w3.org/2000/svg">
    <path
        d="M18.1895 26.82C18.1895 27.6 18.2735 28.2325 18.422 28.695C18.59 29.158 18.801 29.664 19.0955 30.211C19.199 30.379 19.242 30.547 19.242 30.6955C19.242 30.9045 19.115 31.1155 18.842 31.326L17.5155 32.211C17.326 32.336 17.1365 32.4005 16.969 32.4005C16.758 32.4005 16.547 32.295 16.336 32.1055C16.0528 31.8 15.7991 31.4685 15.578 31.1155C15.3437 30.7104 15.1262 30.2959 14.926 29.873C13.285 31.8105 11.221 32.7795 8.736 32.7795C6.9685 32.7795 5.5585 32.2735 4.5255 31.2635C3.494 30.252 2.9685 28.9045 2.9685 27.2205C2.9685 25.4315 3.5995 23.9785 4.885 22.885C6.168 21.789 7.873 21.242 10.043 21.242C10.758 21.242 11.494 21.3045 12.273 21.41C13.053 21.5155 13.8535 21.6835 14.6955 21.873V20.336C14.6955 18.736 14.3575 17.621 13.7055 16.969C13.0305 16.3165 11.894 16 10.273 16C9.5365 16 8.779 16.084 7.9995 16.2735C7.22557 16.4579 6.46581 16.6973 5.726 16.99C5.388 17.1365 5.136 17.2205 4.9895 17.2635C4.8415 17.3045 4.736 17.326 4.652 17.326C4.357 17.326 4.2105 17.115 4.2105 16.674V15.6425C4.2105 15.3045 4.2515 15.0525 4.357 14.9045C4.462 14.758 4.652 14.6115 4.947 14.463C5.683 14.084 6.568 13.768 7.599 13.5155C8.6305 13.242 9.726 13.1155 10.884 13.1155C13.388 13.1155 15.22 13.6835 16.4 14.8205C17.558 15.957 18.146 17.6835 18.146 20V26.82H18.1895ZM9.6425 30.0215C10.336 30.0215 11.0525 29.8945 11.8105 29.6425C12.5685 29.3885 13.242 28.926 13.8105 28.295C14.1465 27.895 14.4005 27.453 14.5255 26.9475C14.6525 26.4415 14.7365 25.8325 14.7365 25.115V24.2325C14.0987 24.0758 13.4525 23.9558 12.801 23.873C12.1441 23.7901 11.4826 23.7484 10.8205 23.748C9.4105 23.748 8.379 24.0215 7.6835 24.59C6.99 25.158 6.6525 25.957 6.6525 27.01C6.6525 28 6.9045 28.7365 7.4315 29.242C7.9375 29.7675 8.674 30.0215 9.6425 30.0215ZM26.547 32.295C26.168 32.295 25.916 32.2325 25.748 32.084C25.578 31.957 25.4315 31.664 25.3045 31.264L20.3575 14.99C20.2325 14.5685 20.1675 14.295 20.1675 14.1465C20.1675 13.8105 20.336 13.6215 20.674 13.6215H22.7365C23.1365 13.6215 23.41 13.6835 23.5585 13.832C23.7265 13.957 23.8535 14.252 23.9785 14.652L27.5155 28.59L30.8005 14.6525C30.9045 14.2325 31.0315 13.9575 31.199 13.8325C31.369 13.705 31.664 13.621 32.043 13.621H33.7265C34.1265 13.621 34.4005 13.6835 34.5685 13.832C34.7365 13.957 34.885 14.252 34.9685 14.652L38.295 28.758L41.9375 14.6525C42.0625 14.2325 42.211 13.9575 42.3575 13.8325C42.5255 13.705 42.801 13.621 43.1795 13.621H45.1365C45.4745 13.621 45.664 13.789 45.664 14.1465C45.664 14.2515 45.6425 14.3575 45.621 14.4845C45.5995 14.6115 45.5585 14.7795 45.4745 15.0095L40.4005 31.285C40.2735 31.705 40.127 31.9785 39.957 32.105C39.789 32.2325 39.5155 32.3165 39.158 32.3165H37.348C36.9475 32.3165 36.674 32.2515 36.506 32.1055C36.336 31.957 36.1895 31.6835 36.1055 31.2635L32.842 17.6835L29.5995 31.242C29.4945 31.664 29.3695 31.9375 29.1995 32.084C29.031 32.2325 28.7365 32.295 28.3575 32.295H26.547ZM53.5995 32.8635C52.506 32.8635 51.41 32.7365 50.3575 32.4845C49.3045 32.2325 48.4845 31.957 47.9375 31.6425C47.5995 31.453 47.369 31.2425 47.285 31.0525C47.202 30.8668 47.1588 30.6658 47.158 30.4625V29.3885C47.158 28.9475 47.326 28.7365 47.643 28.7365C47.768 28.7365 47.8945 28.758 48.0215 28.801C48.1465 28.842 48.336 28.926 48.5465 29.01C49.2907 29.3368 50.0674 29.5842 50.8635 29.748C51.705 29.916 52.5255 30 53.369 30C54.6955 30 55.7265 29.7675 56.4415 29.305C57.158 28.842 57.537 28.168 57.537 27.305C57.537 26.715 57.3475 26.2325 56.969 25.832C56.59 25.432 55.873 25.074 54.842 24.7365L51.789 23.789C50.252 23.3045 49.115 22.59 48.422 21.6425C47.727 20.715 47.369 19.6835 47.369 18.59C47.369 17.705 47.559 16.926 47.9375 16.252C48.3134 15.5747 48.8302 14.9859 49.453 14.5255C50.084 14.043 50.801 13.6835 51.643 13.4315C52.4845 13.1795 53.369 13.074 54.295 13.074C54.758 13.074 55.242 13.0955 55.705 13.158C56.1895 13.2205 56.631 13.3045 57.074 13.3885C57.494 13.494 57.8945 13.5995 58.2735 13.7265C58.6525 13.8535 58.9475 13.9785 59.1585 14.1055C59.4535 14.2735 59.664 14.4415 59.789 14.6305C59.916 14.8005 59.9785 15.0315 59.9785 15.326V16.316C59.9785 16.758 59.8105 16.99 59.494 16.99C59.326 16.99 59.0525 16.9045 58.6955 16.7365C57.494 16.1895 56.1465 15.916 54.6525 15.916C53.453 15.916 52.506 16.1055 51.8535 16.506C51.199 16.9045 50.8635 17.516 50.8635 18.379C50.8635 18.969 51.074 19.4745 51.494 19.873C51.916 20.273 52.6955 20.674 53.8105 21.031L56.8005 21.9785C58.3165 22.463 59.4105 23.1365 60.0625 24C60.715 24.8635 61.0315 25.8535 61.0315 26.9475C61.0315 27.8535 60.8415 28.674 60.4845 29.3885C60.1055 30.1055 59.5995 30.7365 58.9475 31.242C58.295 31.7675 57.5155 32.1465 56.6115 32.422C55.664 32.715 54.674 32.8635 53.5995 32.8635Z"
        fill="#252F3E" />
    <path
        d="M59 36.674C56.784 36.7055 54.168 37.2 52.1895 38.59C51.578 39.0315 51.6835 39.621 52.3575 39.537C54.6115 39.2635 59.5775 38.674 60.4625 39.8105C61.3475 40.9255 59.4745 45.6205 58.631 47.7055C58.379 48.3355 58.926 48.59 59.494 48.1055C63.199 44.99 64.168 38.4845 63.41 37.537C63.0315 37.0745 61.216 36.642 59 36.674ZM0.815001 37.9295C0.351501 37.9875 0.141501 38.5475 0.631001 38.99C8.885 46.441 19.8105 50.926 31.9375 50.926C40.59 50.926 50.6525 48.211 57.578 43.096C58.7145 42.252 57.7265 40.969 56.568 41.494C48.801 44.779 40.3575 46.379 32.674 46.379C21.285 46.379 10.274 43.2425 1.3475 38.0625C1.1525 37.947 0.970001 37.9105 0.815501 37.9295H0.815001Z"
        fill="#FF9900" />
</svg>