<svg width="64" height="64" viewBox="0 0 64 64" fill="none" xmlns="http://www.w3.org/2000/svg">
    <g clip-path="url(#clip0_456_24)">
        <path
            d="M31.9999 63.9999C49.673 63.9999 63.9999 49.673 63.9999 31.9999C63.9999 14.3269 49.673 0 31.9999 0C14.3269 0 0 14.3269 0 31.9999C0 49.673 14.3269 63.9999 31.9999 63.9999Z"
            fill="#E84F4F" stroke="black" strokeWidth="0.125001" />
        <path
            d="M62.9732 40.0664L39.7609 16.854C28.0714 4.44264 3.56791 17.326 17.1594 38.2755L41.4685 62.5846C51.9919 59.3359 60.1967 50.798 62.9734 40.0802L62.9732 40.0664Z"
            fill="#C94545" stroke="black" strokeWidth="0.125001" />
        <path
            d="M28.1686 19.4224C32.5001 19.4224 35.9987 22.9348 35.9987 27.2524C35.9987 31.5701 32.4863 35.0825 28.1686 35.0825C23.851 35.0825 20.3386 31.5701 20.3386 27.2524C20.3386 22.9209 23.851 19.4224 28.1686 19.4224ZM28.1686 11.6755C32.4723 11.6755 36.3596 13.4248 39.1779 16.243C41.9962 19.0612 43.7453 22.9484 43.7453 27.2522C43.7453 31.556 41.996 35.4431 39.1779 38.2614C36.3596 41.0797 32.4724 42.8288 28.1686 42.8288C23.8649 42.8288 19.9777 41.0796 17.1594 38.2614C14.3411 35.4431 12.592 31.5421 12.592 27.2522C12.592 22.9485 14.3413 19.0612 17.1594 16.243C19.9776 13.4247 23.8789 11.6755 28.1686 11.6755ZM36.4985 18.9226C34.3745 16.7986 31.4173 15.4796 28.1686 15.4796C24.92 15.4796 21.9768 16.7983 19.8388 18.9226C17.7148 21.0466 16.3958 24.0038 16.3958 27.2524C16.3958 30.5011 17.7147 33.4442 19.8388 35.5823C21.9628 37.7063 24.92 39.0253 28.1686 39.0253C31.4173 39.0253 34.3605 37.7064 36.4985 35.5823C38.6225 33.4582 39.9415 30.5011 39.9415 27.2524C39.9415 24.0038 38.6225 21.0606 36.4985 18.9226Z"
            fill="#FFD630" stroke="black" strokeWidth="0.125001" />
        <path
            d="M45.8694 52.3111L36.7622 42.4958L33.2498 45.7584L27.4189 26.8774L45.8139 34.1105L42.3015 37.373L51.4087 47.1883L45.8694 52.3249V52.3111Z"
            fill="#FDFDFD" stroke="black" strokeWidth="0.125001" />
        <path
            d="M27.4189 26.8774L45.8139 34.1105L42.3015 37.373L51.4087 47.1883L48.5905 49.8122L27.4328 26.8913L27.4189 26.8774Z"
            fill="#E6E6E6" stroke="black" strokeWidth="0.125001" />
    </g>
    <defs>
        <clipPath id="clip0_456_24">
            <rect width="64" height="64" fill="white" />
        </clipPath>
    </defs>
</svg>
    