<svg width="100" height="100" viewBox="0 0 100 100" fill="none" xmlns="http://www.w3.org/2000/svg">
	<path
		d="M28.1875 48.0437C28.1875 49.275 28.3125 50.275 28.55 51.0125C28.8125 51.7437 29.15 52.5437 29.6125 53.4125C29.7601 53.642 29.8402 53.9084 29.8437 54.1812C29.8437 54.5125 29.6437 54.85 29.2187 55.1813L27.1187 56.5813C26.8667 56.7632 26.5669 56.8675 26.2562 56.8813C25.9187 56.8813 25.5875 56.7188 25.2562 56.4188C24.807 55.9354 24.4052 55.4101 24.0562 54.85C23.6844 54.2088 23.3404 53.552 23.025 52.8813C20.4312 55.95 17.175 57.4875 13.25 57.4875C10.4562 57.4875 8.225 56.6812 6.6 55.0812C4.96875 53.4812 4.1375 51.3438 4.1375 48.675C4.1375 45.8375 5.1375 43.5375 7.1625 41.8C9.19375 40.0625 11.8875 39.2 15.3125 39.2C16.4375 39.2 17.6062 39.3 18.8375 39.4625C20.0687 39.6313 21.3375 39.9 22.6625 40.2V37.7625C22.6625 35.225 22.1312 33.4563 21.1 32.425C20.0375 31.3875 18.2375 30.8875 15.675 30.8875C14.5125 30.8875 13.3187 31.025 12.0875 31.325C10.8642 31.6161 9.66324 31.9942 8.49375 32.4563C8.11617 32.6272 7.72785 32.7733 7.33125 32.8938C7.15939 32.9505 6.98074 32.9842 6.8 32.9937C6.33125 32.9937 6.1 32.6563 6.1 31.9563V30.3188C6.1 29.7875 6.1625 29.3813 6.33125 29.1563C6.5831 28.8496 6.90451 28.6075 7.26875 28.45C8.425 27.85 9.825 27.35 11.4562 26.95C13.0812 26.5125 14.8125 26.3188 16.6437 26.3188C20.6 26.3188 23.4937 27.2188 25.3562 29.0188C27.1875 30.8188 28.1187 33.5562 28.1187 37.2312V48.0437H28.1812H28.1875ZM14.6812 53.1125C15.775 53.1125 16.9062 52.9125 18.1062 52.5125C19.3 52.1125 20.3687 51.375 21.2625 50.375C21.7984 49.761 22.1855 49.0317 22.3937 48.2438C22.5937 47.4375 22.7312 46.475 22.7312 45.3375V43.9375C21.7218 43.6927 20.6993 43.5049 19.6687 43.375C18.6324 43.2409 17.5887 43.1721 16.5437 43.1688C14.3125 43.1688 12.6812 43.6063 11.5875 44.5063C10.4875 45.4062 9.9625 46.675 9.9625 48.3438C9.9625 49.9063 10.3562 51.075 11.1875 51.8812C11.9875 52.7125 13.15 53.1125 14.6812 53.1125ZM41.3875 56.7188C40.7875 56.7188 40.3875 56.6188 40.125 56.3813C39.8562 56.1813 39.625 55.7187 39.425 55.0812L31.6125 29.2875C31.4584 28.8552 31.3556 28.4063 31.3062 27.95C31.3062 27.4188 31.575 27.1188 32.1062 27.1188H35.3687C35.9937 27.1188 36.4312 27.2188 36.6625 27.45C36.9312 27.65 37.1312 28.1188 37.3312 28.75L42.9187 50.8438L48.1062 28.75C48.2687 28.0875 48.4687 27.65 48.7312 27.45C49.1323 27.2044 49.5994 27.0887 50.0687 27.1188H52.725C53.3625 27.1188 53.7875 27.2188 54.0562 27.45C54.325 27.65 54.5562 28.1188 54.6875 28.75L59.9437 51.1125L65.6937 28.75C65.8004 28.2661 66.0308 27.8181 66.3625 27.45C66.7498 27.2046 67.205 27.0886 67.6625 27.1188H70.7562C71.2875 27.1188 71.5875 27.3875 71.5875 27.95C71.5875 28.1188 71.55 28.2875 71.525 28.4875C71.4713 28.7712 71.3918 29.0495 71.2875 29.3188L63.2687 55.1125C63.0687 55.7813 62.8375 56.2188 62.575 56.4188C62.1976 56.6602 61.7535 56.7761 61.3062 56.75H58.45C57.8188 56.75 57.3875 56.65 57.1187 56.4188C56.85 56.1813 56.6187 55.75 56.4875 55.0812L51.3312 33.5625L46.2062 55.0563C46.0437 55.725 45.8437 56.1563 45.5812 56.3875C45.3125 56.625 44.8437 56.725 44.25 56.725H41.3875V56.7188ZM84.125 57.6188C82.399 57.6211 80.6788 57.4197 79 57.0188C77.3375 56.6188 76.0437 56.1813 75.175 55.6813C74.6437 55.3813 74.2812 55.05 74.1437 54.7438C74.0167 54.4497 73.9508 54.1328 73.95 53.8125V52.1125C73.95 51.4125 74.2125 51.075 74.7125 51.075C74.9166 51.0755 75.1193 51.1092 75.3125 51.175C75.5125 51.2437 75.8125 51.375 76.1437 51.5125C77.2687 52.0125 78.5062 52.4125 79.8 52.6813C81.1312 52.9438 82.425 53.0813 83.7562 53.0813C85.8562 53.0813 87.4813 52.7125 88.6125 51.9813C89.1559 51.6523 89.6025 51.1851 89.9066 50.6274C90.2107 50.0696 90.3615 49.4413 90.3437 48.8063C90.355 48.3775 90.2812 47.9508 90.1268 47.5507C89.9723 47.1506 89.7402 46.785 89.4437 46.475C88.85 45.8375 87.7187 45.2688 86.0875 44.7375L81.2625 43.2375C78.8375 42.4688 77.0375 41.3313 75.9437 39.8313C74.873 38.4453 74.2888 36.7451 74.2813 34.9938C74.2813 33.5938 74.5812 32.3563 75.175 31.2875C75.775 30.225 76.575 29.2875 77.575 28.55C78.575 27.7875 79.7 27.2188 81.0312 26.8188C82.3625 26.4188 83.7563 26.25 85.2188 26.25C85.9563 26.25 86.7187 26.2813 87.45 26.3813C88.2125 26.4813 88.9125 26.6188 89.6125 26.7563C90.275 26.9188 90.9125 27.0813 91.5062 27.2875C92.1062 27.4875 92.5687 27.6875 92.9062 27.8875C93.2987 28.0846 93.6408 28.3689 93.9062 28.7187C94.1202 29.0442 94.2232 29.43 94.2 29.8188V31.3875C94.2 32.0875 93.9375 32.4563 93.4375 32.4563C92.9948 32.4057 92.5661 32.2699 92.175 32.0563C90.1652 31.1652 87.9857 30.7216 85.7875 30.7563C83.8937 30.7563 82.3937 31.0563 81.3625 31.6938C80.3312 32.3188 79.8 33.2938 79.8 34.6625C79.8 35.5938 80.1313 36.3938 80.8 37.0313C81.4625 37.6625 82.6937 38.2938 84.4562 38.8625L89.1812 40.3625C91.575 41.1313 93.3062 42.2 94.3375 43.5688C95.3687 44.9375 95.8625 46.5063 95.8625 48.2438C95.8625 49.6813 95.5687 50.975 95 52.1125C94.4112 53.2539 93.5842 54.2556 92.575 55.05C91.5438 55.8812 90.3125 56.4875 88.8812 56.9188C87.3812 57.3875 85.8187 57.6188 84.125 57.6188Z"
		fill="#252F3E" />
	<path fill-rule="evenodd" clip-rule="evenodd"
		d="M90.4063 73.8311C79.4688 81.9374 63.5688 86.2436 49.9 86.2436C30.7438 86.2436 13.4812 79.1374 0.443749 67.3249C-0.587501 66.3874 0.343749 65.1186 1.56875 65.8561C15.675 74.0624 33.0687 79.0374 51.0687 79.0374C63.2 79.0374 76.5375 76.4999 88.8125 71.2936C90.6438 70.4624 92.2063 72.4936 90.4063 73.8311Z"
		fill="#FF9900" />
	<path fill-rule="evenodd" clip-rule="evenodd"
		d="M94.9625 68.6249C93.5687 66.8311 85.7187 67.7624 82.1625 68.1936C81.1 68.3311 80.9312 67.3936 81.8937 66.6936C88.1437 62.2874 98.425 63.5561 99.6187 65.0249C100.819 66.5249 99.2875 76.8374 93.4312 81.7749C92.5375 82.5436 91.675 82.1499 92.0687 81.1499C93.4 77.8374 96.3625 70.3999 94.9625 68.6311V68.6249Z"
		fill="#FF9900" />
</svg>
	