<svg width="64" height="64" viewBox="0 0 64 64" fill="none" xmlns="http://www.w3.org/2000/svg">
	<g clip-path="url(#clip0_456_31)">
		<path
			d="M63.0033 24.0467C59.4671 10.2214 46.9275 0 32 0C14.327 0 0 14.327 0 32C0 46.9275 10.2214 59.4671 24.0467 63.0033L63.0033 24.0467Z"
			fill="#02967D" stroke="black" strokeWidth="0.125" />
		<path
			d="M63.0032 24.0466L48.6956 9.73901L5.56525 35.4781L19.1801 49.093L15.3044 54.2608L24.0467 63.0031C26.5896 63.6538 29.2544 63.9999 32 63.9999C49.673 63.9999 64 49.6729 64 31.9999C64 29.2543 63.6537 26.5895 63.0032 24.0466Z"
			fill="#0E7563" stroke="black" strokeWidth="0.125" />
		<path
			d="M32.1391 9.73901L26.5739 31.9999L32.1391 54.2608H40.487L43.2695 48.6955L48.8348 45.9129V9.73901H32.1391Z"
			fill="#D8F4F2" stroke="black" strokeWidth="0.125" />
		<path d="M32.1391 9.73901H15.4435V54.2608H32.1391V9.73901Z" fill="white" stroke="black"
			strokeWidth="0.125" />
		<path d="M40.3479 54.261V45.9131H48.6956L40.3479 54.261Z" fill="#7DDCD4" stroke="black"
			strokeWidth="0.125" />
		<path d="M47.3044 30.6086L50.087 35.4781L54.2609 33.739L55.6521 31.9999L47.3044 30.6086Z"
			fill="#F97D85" stroke="black" strokeWidth="0.125" />
		<path d="M50.087 28.5217L47.3044 32H55.6521L54.2609 30.2609L50.087 28.5217Z" fill="#FCBEC2"
			stroke="black" strokeWidth="0.125" />
		<path d="M54.2609 33.7392L58.4348 32.0001L54.2609 30.261V33.7392Z" fill="#263230"
			stroke="black" strokeWidth="0.125" />
		<path d="M8.34787 28.5217L6.9565 32L29.2174 34.7826L50.087 32V28.5217H8.34787Z"
			fill="#FBD867" stroke="black" strokeWidth="0.125" />
		<path d="M6.9565 32L8.34787 35.4782H50.087V32H6.9565Z" fill="#F9BE02" stroke="black"
			strokeWidth="0.125" />
		<path d="M5.56525 28.5217V32L6.9565 33.3912L8.34787 32V28.5217H5.56525Z" fill="#F85C67"
			stroke="black" strokeWidth="0.125" />
		<path d="M8.34787 32H5.56525V35.4782H8.34787V32Z" fill="#F63341" stroke="black"
			strokeWidth="0.125" />
	</g>
	<defs>
		<clipPath id="clip0_456_31">
			<rect width="64" height="64" fill="white" />
		</clipPath>
	</defs>
</svg>
	