<?xml version="1.0" encoding="iso-8859-1"?>
<!-- Uploaded to: SVG Repo, www.svgrepo.com, Generator: SVG Repo Mixer Tools -->
<svg version="1.1" id="Layer_1" xmlns="http://www.w3.org/2000/svg" xmlns:xlink="http://www.w3.org/1999/xlink" 
	 viewBox="0 0 508 508" xml:space="preserve">
<circle style="fill:#FD8469;" cx="254" cy="254" r="254"/>
<path style="fill:#F1543F;" d="M68,426.8c46.4,50,112.4,81.2,186,81.2s139.6-31.2,186-81.2H68z"/>
<rect x="264.8" y="374.8" style="fill:#CED5E0;" width="11.2" height="39.6"/>
<path style="fill:#E6E9EE;" d="M284.4,343.2h-28c-4.4,4-7.6,9.6-7.6,16c0,12,9.6,21.6,21.6,21.6s21.6-9.6,21.6-21.6
	C291.6,352.8,288.8,347.2,284.4,343.2z"/>
<path style="fill:#FFD05B;" d="M335.2,91.2c0,0-8.4,10-8.8,20l-7.6,8.4l4,4c0,0,0.8,9.2,0,10c0,0-4,8.8,3.2,8.8c0,0,10.4-0.8,8,10
	c0,0,5.6,8.4,5.2,12l26.4-12.4c0,0-2-6-2.4-14c0-0.8-3.2-32-3.2-32l-8.4-10L335.2,91.2z"/>
<path style="fill:#324A5E;" d="M350.8,80.8c0,0,20,0.8,25.6,19.2l-3.2-3.6c0,0,7.2,7.2,2.4,26.4c0,0-12,17.2-9.6,19.6
	c0,0-12.4,2.4-10-19.2c0,0,7.6-20-9.6-8l-4.4-8c0,0,11.2-15.2-5.6-14.4c-1.6,0-3.2-0.8-4.4-2.4l0,0c-1.6-2.4-0.8-5.6,2-6.8
	C338.8,81.2,346,78.8,350.8,80.8z"/>
<path style="fill:#FFFFFF;" d="M344.4,183.2c-16-5.2-33.2,3.6-38.4,19.6l-27.2,84.8l-72,3.6h-2.4c-6.4,0.4-12,4.4-14.8,10.4L154,388
	l24.4,12l39.2-69.6l79.2,4c8.4,0.4,16.8-4,20.8-12.4l1.2-2.8l44-94c0.4-1.2,1.2-2.4,1.6-3.6C369.2,205.6,360.4,188.4,344.4,183.2z"
	/>
<path style="fill:#324A5E;" d="M318.8,319.2l-1.6,2.8c-3.6,8-12.4,12.8-20.8,12.4l-79.2-4L178,400l-24.4-12l36-86
	c2.4-6.4,8.4-10,14.8-10.4l74.8-3.6L318.8,319.2z"/>
<path style="fill:#E6E9EE;" d="M178,400v8c0,10-8,18-18,18h-44c-4.4,0-7.6-3.6-7.6-7.6l0,0c0-3.2,2-6,4.8-7.2L154,388L178,400z"/>
<path style="fill:#FFFFFF;" d="M365.6,151.6c0,0,12,41.6-1.6,70l-54.8-24.8C309.2,196.8,320.8,157.2,365.6,151.6z"/>
<path style="fill:#E6E9EE;" d="M350,175.6c-9.2-3.6-19.6,0.8-23.6,10l-24.4,60l-60,14c-3.2,0.8-5.6,3.6-5.2,7.2
	c0.4,3.6,3.6,6.4,7.2,6.4l69.2-4c3.2-0.4,6.8-2,8.4-5.2l1.2-1.6l36-60.4c0.4-0.8,0.8-1.6,1.2-2.4C363.6,190,359.2,179.6,350,175.6z"
	/>
<path style="fill:#324A5E;" d="M266.8,274.8l-73.6,6l-42-77.6c-0.8-1.6-2.4-2-4-1.2s-2,2.4-1.2,4l41.2,81.2c0.8,1.6,2.4,2.4,4,2.4
	l0,0l76.4-4.4l0,0c2.8-0.4,4.8-2.8,4.8-5.6C272,276.8,269.6,274.4,266.8,274.8z"/>
<path style="fill:#84DBFF;" d="M404,174c-9.6-4.4-21.2,0.4-25.6,10l-68,156.4l-71.6-15.2c-7.2-1.6-14.4,3.2-16,10.4
	c-1.6,7.2,3.2,14.4,10.4,16l82.4,17.6c6,1.2,12-1.6,14.8-7.2l0.4-0.4l82.4-160.8c0-0.4,0.4-0.8,0.4-1.2
	C418.4,189.6,414,178.4,404,174z"/>
<path style="fill:#E6E9EE;" d="M306,426c-2.4-10.8-17.2-18.8-35.6-18.8s-33.6,8.4-35.6,18.8H306z"/>
<path style="fill:#FFD05B;" d="M242.4,259.6l-21.2,3.2c-2.4,0.4-4.8,2-6,4.4l-4.8,9.6h3.6l4.8-5.2c1.2-1.6,3.6-2,5.6-1.2
	c4.8,2,13.6,4.8,20.4,2.8L242.4,259.6z"/>
</svg>