<svg width="400" height="400" viewBox="0 0 400 400" fill="none" xmlns="http://www.w3.org/2000/svg">
    <path
        d="M200 389.56C298.307 389.56 378 343.549 378 286.792C378 230.035 298.307 184.024 200 184.024C101.693 184.024 22 230.035 22 286.792C22 343.549 101.693 389.56 200 389.56Z"
        fill="#F5F5F5" />
    <path
        d="M76.464 307.184C87.3462 307.184 96.168 302.091 96.168 295.808C96.168 289.525 87.3462 284.432 76.464 284.432C65.5818 284.432 56.76 289.525 56.76 295.808C56.76 302.091 65.5818 307.184 76.464 307.184Z"
        fill="#E6E6E6" />
    <path
        d="M228.208 234.824L98.704 309.6C98.2038 309.877 97.7869 310.282 97.4966 310.775C97.2063 311.267 97.0532 311.828 97.0532 312.4C97.0532 312.972 97.2063 313.533 97.4966 314.025C97.7869 314.518 98.2038 314.923 98.704 315.2L174.816 359.144C176.729 360.248 178.899 360.83 181.108 360.83C183.317 360.83 185.487 360.248 187.4 359.144L316.904 284.376C317.404 284.099 317.821 283.694 318.111 283.201C318.402 282.709 318.555 282.148 318.555 281.576C318.555 281.004 318.402 280.443 318.111 279.951C317.821 279.458 317.404 279.053 316.904 278.776L240.8 234.824C238.886 233.718 236.715 233.136 234.504 233.136C232.293 233.136 230.122 233.718 228.208 234.824Z"
        fill="#E6E6E6" />
    <path
        d="M189.32 235.552L137.48 265.488C136.438 266.088 135.573 266.951 134.971 267.992C134.369 269.033 134.052 270.214 134.052 271.416C134.052 272.618 134.369 273.799 134.971 274.84C135.573 275.881 136.438 276.744 137.48 277.344L163.584 292.416C165.312 293.411 167.27 293.934 169.264 293.934C171.258 293.934 173.216 293.411 174.944 292.416L226.792 262.48C227.832 261.879 228.695 261.014 229.295 259.974C229.896 258.933 230.212 257.753 230.212 256.552C230.212 255.351 229.896 254.171 229.295 253.13C228.695 252.09 227.832 251.225 226.792 250.624L200.68 235.552C198.954 234.553 196.994 234.028 195 234.028C193.006 234.028 191.046 234.553 189.32 235.552Z"
        fill="#E6E6E6" />
    <path
        d="M77.504 266.4C77.504 266.4 65.328 254.504 72.256 234.584C76.136 223.424 89.008 215.224 96.336 214.456C93.9098 217.339 91.9746 220.601 90.608 224.112L81.376 230.248L89.864 227.592L88.056 234.856C88.056 234.856 80.168 239.656 79 240.664L87.504 238.4C87.504 238.4 86.848 258.976 77.504 266.4Z"
        fill="#001B48" />
    <path opacity="0.4"
        d="M77.504 266.4C77.504 266.4 65.328 254.504 72.256 234.584C76.136 223.424 89.008 215.224 96.336 214.456C93.9098 217.339 91.9746 220.601 90.608 224.112L81.376 230.248L89.864 227.592L88.056 234.856C88.056 234.856 80.168 239.656 79 240.664L87.504 238.4C87.504 238.4 86.848 258.976 77.504 266.4Z"
        fill="black" />
    <path
        d="M77.504 266.4C77.504 266.4 71.2 241.512 80.528 227C80.528 226.968 69.6 239.776 77.504 266.4Z"
        fill="white" />
    <path
        d="M91.44 269.736L76.536 269.544H76.384L61.488 269.736C61.488 269.736 61.32 288.088 66.976 295.552C68.576 297.544 72.2 298.936 76.464 298.936C80.728 298.936 84.4 297.536 85.96 295.544C91.6 288.072 91.44 269.736 91.44 269.736Z"
        fill="#37474F" />
    <path
        d="M76.464 277.776C84.735 277.776 91.44 274.176 91.44 269.736C91.44 265.296 84.735 261.696 76.464 261.696C68.193 261.696 61.488 265.296 61.488 269.736C61.488 274.176 68.193 277.776 76.464 277.776Z"
        fill="#455A64" />
    <path
        d="M76.464 267.6C81.616 267.6 85.976 269.256 87.512 271.544C87.8909 271.016 88.1002 270.386 88.112 269.736C88.112 266.536 82.896 263.984 76.464 263.984C70.032 263.984 64.8 266.56 64.8 269.736C64.8134 270.384 65.0195 271.014 65.392 271.544C66.944 269.256 71.312 267.6 76.464 267.6Z"
        fill="#263238" />
    <path
        d="M76.464 275.488C82.5656 275.488 87.512 273.722 87.512 271.544C87.512 269.366 82.5656 267.6 76.464 267.6C70.3623 267.6 65.416 269.366 65.416 271.544C65.416 273.722 70.3623 275.488 76.464 275.488Z"
        fill="#E0E0E0" />
    <path
        d="M76.648 272.536C76.648 272.536 70.872 272.312 65.928 264.648C63.88 261.488 62.896 259.848 62.896 259.848L70.896 259.248L61.888 257L57.632 250.488L65.112 249.928C65.112 249.928 59.512 247.976 55.568 247.952C55.568 247.952 48.664 235.768 46.648 234.032C51.8651 234.352 56.9651 235.715 61.6465 238.04C66.3279 240.365 70.4959 243.605 73.904 247.568C85.28 260.952 78.328 272.88 76.648 272.536Z"
        fill="#001B48" />
    <path
        d="M76.648 272.536C76.648 272.536 80.256 250.792 57.224 237.72C57.224 237.72 81.128 249.2 76.648 272.536Z"
        fill="white" />
    <path
        d="M76.648 272.536C76.648 272.536 81.872 272.872 87.048 266.424C89.184 263.768 90.248 262.36 90.248 262.36L83.048 261.064L91.384 259.88L95.84 254.4L89.144 253.192C89.144 253.192 94.352 251.96 97.944 252.312C97.944 252.312 105.32 241.96 107.304 240.584C102.566 240.384 97.8368 241.135 93.3945 242.794C88.9522 244.452 84.8874 246.984 81.44 250.24C69.944 261.272 75.096 272.688 76.648 272.536Z"
        fill="#001B48" />
    <path opacity="0.2"
        d="M76.648 272.536C76.648 272.536 81.872 272.872 87.048 266.424C89.184 263.768 90.248 262.36 90.248 262.36L83.048 261.064L91.384 259.88L95.84 254.4L89.144 253.192C89.144 253.192 94.352 251.96 97.944 252.312C97.944 252.312 105.32 241.96 107.304 240.584C102.566 240.384 97.8368 241.135 93.3945 242.794C88.9522 244.452 84.8874 246.984 81.44 250.24C69.944 261.272 75.096 272.688 76.648 272.536Z"
        fill="black" />
    <path
        d="M76.648 272.536C76.648 272.536 75.432 252.584 97.448 242.936C97.448 242.952 74.8 251.064 76.648 272.536Z"
        fill="white" />
    <path d="M103.128 95.52V135.264L68.704 155.136V115.392L103.128 95.52Z" fill="#FAFAFA" />
    <path
        d="M99.4 97.6719V133.112L68.704 150.832V115.392L99.4 97.6719ZM101.264 94.4719L66.864 114.344V154.088L68.728 155.168L103.128 135.296V95.5199L101.264 94.4399V94.4719Z"
        fill="#E0E0E0" />
    <path
        d="M101.264 98.744V134.184L70.568 151.904V116.464L101.264 98.744ZM103.128 95.544L68.728 115.416V155.16L103.128 135.288V95.52V95.544Z"
        fill="#EBEBEB" />
    <path
        d="M98.072 126.168L72.032 141.2L79.728 121.192L85.056 127.512L90.504 119.76L98.072 126.168Z"
        fill="#E0E0E0" />
    <path
        d="M89.04 113.68C88.9931 114.507 88.7512 115.312 88.3341 116.028C87.917 116.744 87.3365 117.351 86.64 117.8C85.328 118.552 84.24 117.944 84.24 116.424C84.2882 115.598 84.5307 114.795 84.9477 114.081C85.3648 113.366 85.9446 112.76 86.64 112.312C88 111.552 89.04 112.168 89.04 113.68Z"
        fill="#E0E0E0" />
    <path d="M114.608 46.04V77.696L87.192 93.528V61.864L114.608 46.04Z" fill="#FAFAFA" />
    <path
        d="M111.64 47.752V76L87.2 90.104V61.864L111.648 47.752M113.136 45.176L85.704 61.008V92.672L87.192 93.528L114.608 77.696V46.032L113.128 45.176H113.136Z"
        fill="#E0E0E0" />
    <path
        d="M113.128 48.608V76.84L88.672 90.96V62.72L113.128 48.608ZM114.608 46.032L87.2 61.864V93.528L114.616 77.696V46.032H114.608Z"
        fill="#EBEBEB" />
    <path
        d="M110.584 70.456L89.84 82.432L95.968 66.488L100.216 71.528L104.552 65.344L110.584 70.456Z"
        fill="#E0E0E0" />
    <path
        d="M103.392 60.5039C103.357 61.1614 103.167 61.8013 102.837 62.3713C102.508 62.9414 102.048 63.4254 101.496 63.7839C100.448 64.3919 99.608 63.8959 99.608 62.6959C99.6416 62.039 99.8301 61.3994 100.158 60.8293C100.486 60.2592 100.945 59.7749 101.496 59.4159C102.544 58.8079 103.392 59.3039 103.392 60.5039Z"
        fill="#E0E0E0" />
    <path
        d="M172.92 229.064L184.048 296.976C184.13 297.473 184.385 297.924 184.769 298.249C185.153 298.575 185.641 298.753 186.144 298.752C186.442 298.751 186.736 298.688 187.008 298.567C187.279 298.445 187.522 298.267 187.721 298.045C187.919 297.824 188.069 297.562 188.16 297.279C188.25 296.995 188.281 296.696 188.248 296.4L180.44 226.336L172.92 229.064Z"
        fill="#263238" />
    <path
        d="M211.336 206.224L222.472 274.136C222.552 274.632 222.806 275.083 223.189 275.409C223.571 275.734 224.058 275.913 224.56 275.912C224.858 275.912 225.153 275.848 225.426 275.726C225.698 275.604 225.941 275.425 226.14 275.203C226.339 274.98 226.488 274.718 226.578 274.433C226.669 274.149 226.698 273.848 226.664 273.552L218.856 203.496L211.336 206.224Z"
        fill="#263238" />
    <path
        d="M155.84 213.184L144.856 271.704C144.782 272.114 144.566 272.485 144.246 272.752C143.925 273.018 143.521 273.163 143.104 273.16C142.848 273.159 142.594 273.103 142.361 272.996C142.128 272.889 141.921 272.733 141.753 272.539C141.586 272.345 141.462 272.117 141.39 271.871C141.318 271.624 141.299 271.366 141.336 271.112L149.448 216.872L155.84 213.184Z"
        fill="#263238" />
    <path
        d="M194.688 191.352L183.768 249.512C183.694 249.922 183.478 250.293 183.158 250.56C182.837 250.826 182.433 250.971 182.016 250.968C181.76 250.967 181.508 250.911 181.275 250.805C181.043 250.698 180.836 250.543 180.669 250.35C180.501 250.156 180.377 249.93 180.304 249.684C180.232 249.439 180.213 249.181 180.248 248.928L188.296 195.032L194.688 191.352Z"
        fill="#263238" />
    <path
        d="M191.52 186.92C189.002 185.806 186.824 184.044 185.21 181.813C183.595 179.583 182.6 176.964 182.328 174.224C180.56 156.4 174.28 119.68 153.016 131.904C126.76 146.992 136.16 190.808 139.976 204.856C140.824 208.021 142.478 210.912 144.776 213.248C149.52 218.048 159.336 226.256 176.04 233.248C178.089 234.104 180.368 234.239 182.504 233.632C190.8 231.272 212.472 224.032 223.304 210.192C223.917 209.407 224.196 208.412 224.079 207.423C223.962 206.435 223.459 205.532 222.68 204.912C218.304 201.44 208.408 194.456 191.52 186.92Z"
        fill="#001B48" />
    <path opacity="0.5"
        d="M191.52 186.92C189.002 185.806 186.824 184.044 185.21 181.813C183.595 179.583 182.6 176.964 182.328 174.224C180.56 156.4 174.28 119.68 153.016 131.904C126.76 146.992 136.16 190.808 139.976 204.856C140.824 208.021 142.478 210.912 144.776 213.248C149.52 218.048 159.336 226.256 176.04 233.248C178.089 234.104 180.368 234.239 182.504 233.632C190.8 231.272 212.472 224.032 223.304 210.192C223.917 209.407 224.196 208.412 224.079 207.423C223.962 206.435 223.459 205.532 222.68 204.912C218.304 201.44 208.408 194.456 191.52 186.92Z"
        fill="black" />
    <path
        d="M224.088 207.688C224.135 208.595 223.85 209.487 223.288 210.2C222.712 210.944 222.096 211.656 221.464 212.36C221.112 212.744 220.76 213.12 220.392 213.488C220.032 213.856 219.664 214.216 219.288 214.576L218.152 215.632C217.76 215.976 217.352 216.32 216.96 216.656C210.824 221.8 203.36 225.72 196.744 228.544L195.512 229.064L195.384 229.112L194.248 229.576L194.048 229.648L192.992 230.064L192.752 230.16L191.768 230.528L191.48 230.632L190.568 230.968L190.24 231.088L189.4 231.384L189.056 231.504L188.256 231.768L187.88 231.896L187.176 232.128L186.776 232.264L186.144 232.464L185.712 232.6L185.168 232.776L184.704 232.912L184.248 233.056L183.68 233.224L183.392 233.304C183.12 233.392 182.848 233.464 182.592 233.536C180.456 234.143 178.177 234.008 176.128 233.152C159.424 226.152 149.608 217.952 144.864 213.152C142.566 210.816 140.912 207.925 140.064 204.76C136.248 190.712 126.848 146.896 153.104 131.808C153.568 131.547 154.024 131.307 154.472 131.088L154.768 130.944C155.216 130.736 155.648 130.544 156.08 130.376L156.208 130.328C156.616 130.176 157.008 130.04 157.424 129.928L157.608 129.872C158.04 129.752 158.464 129.656 158.88 129.576H158.992C159.821 129.428 160.663 129.369 161.504 129.4H161.552C162.363 129.43 163.169 129.554 163.952 129.768C159.76 127.92 154.64 128 149.552 130.92C123.296 146.008 132.696 189.824 136.512 203.872L137.16 206.272C138.462 211.148 141.343 215.455 145.352 218.52L152.168 223.728C159.489 229.309 167.499 233.923 176 237.456C178.055 238.322 180.343 238.463 182.488 237.856C190.776 235.496 212.464 228.256 223.288 214.416C223.756 213.827 224.034 213.11 224.088 212.36V207.68V207.688Z"
        fill="#001B48" />
    <path opacity="0.6"
        d="M224.088 207.688C224.135 208.595 223.85 209.487 223.288 210.2C222.712 210.944 222.096 211.656 221.464 212.36C221.112 212.744 220.76 213.12 220.392 213.488C220.032 213.856 219.664 214.216 219.288 214.576L218.152 215.632C217.76 215.976 217.352 216.32 216.96 216.656C210.824 221.8 203.36 225.72 196.744 228.544L195.512 229.064L195.384 229.112L194.248 229.576L194.048 229.648L192.992 230.064L192.752 230.16L191.768 230.528L191.48 230.632L190.568 230.968L190.24 231.088L189.4 231.384L189.056 231.504L188.256 231.768L187.88 231.896L187.176 232.128L186.776 232.264L186.144 232.464L185.712 232.6L185.168 232.776L184.704 232.912L184.248 233.056L183.68 233.224L183.392 233.304C183.12 233.392 182.848 233.464 182.592 233.536C180.456 234.143 178.177 234.008 176.128 233.152C159.424 226.152 149.608 217.952 144.864 213.152C142.566 210.816 140.912 207.925 140.064 204.76C136.248 190.712 126.848 146.896 153.104 131.808C153.568 131.547 154.024 131.307 154.472 131.088L154.768 130.944C155.216 130.736 155.648 130.544 156.08 130.376L156.208 130.328C156.616 130.176 157.008 130.04 157.424 129.928L157.608 129.872C158.04 129.752 158.464 129.656 158.88 129.576H158.992C159.821 129.428 160.663 129.369 161.504 129.4H161.552C162.363 129.43 163.169 129.554 163.952 129.768C159.76 127.92 154.64 128 149.552 130.92C123.296 146.008 132.696 189.824 136.512 203.872L137.16 206.272C138.462 211.148 141.343 215.455 145.352 218.52L152.168 223.728C159.489 229.309 167.499 233.923 176 237.456C178.055 238.322 180.343 238.463 182.488 237.856C190.776 235.496 212.464 228.256 223.288 214.416C223.756 213.827 224.034 213.11 224.088 212.36V207.68V207.688Z"
        fill="black" />
    <path
        d="M238.568 257.824C236.776 246.392 234.48 228.12 233.168 217.32C233.083 216.611 232.963 215.907 232.808 215.208C232.117 212.227 230.823 209.419 229.006 206.958C227.188 204.496 224.886 202.433 222.24 200.896L195.312 184.896L177.032 175.296C177.032 175.296 172.168 189.392 177.832 198.016C182.536 205.216 203.304 214.08 209.48 217.08C215.656 220.08 215.784 220.888 215.656 224.896C215.528 228.904 215.52 234.008 223.104 249.992C225.288 254.584 226.808 257.992 227.864 260.656C231.65 260.949 235.423 259.95 238.568 257.824Z"
        fill="#001B48" />
    <path opacity="0.7"
        d="M238.568 257.824C236.776 246.392 234.48 228.12 233.168 217.32C233.039 216.259 232.836 215.208 232.56 214.176C230.985 208.59 227.298 203.836 222.28 200.92L195.312 184.864L177.032 175.264C177.032 175.264 172.168 189.36 177.832 197.984C182.536 205.184 203.304 214.048 209.48 217.048C215.656 220.048 215.784 220.856 215.656 224.864C215.528 228.872 215.52 233.976 223.104 249.96C225.288 254.552 226.808 257.96 227.864 260.624C231.646 260.926 235.419 259.939 238.568 257.824Z"
        fill="black" />
    <path
        d="M230.24 269.928C230.229 270.402 230.342 270.871 230.568 271.288C231.641 273.102 233.009 274.724 234.616 276.088C238.248 279.36 250.272 292.168 254.496 284.216C254.496 284.216 242.072 272.32 240.432 267.416C239.619 264.256 238.997 261.05 238.568 257.816C235.412 259.929 231.633 260.91 227.848 260.6C230.176 266.4 230.28 268.28 230.24 269.928Z"
        fill="#FFA8A7" />
    <path
        d="M243.2 269.144L242.856 268.112C242.718 267.733 242.442 267.42 242.083 267.236C241.724 267.052 241.308 267.011 240.92 267.12L235.888 268.672C235.572 268.77 235.296 268.966 235.1 269.233C234.904 269.499 234.799 269.821 234.8 270.152V270.656C234.798 270.894 234.702 271.122 234.532 271.29C234.363 271.458 234.134 271.552 233.896 271.552C232.83 271.553 231.798 271.182 230.976 270.504L230.272 269.928V268.168C229.818 268.464 229.45 268.874 229.204 269.357C228.959 269.84 228.844 270.379 228.872 270.92C228.936 272.112 228.992 273.568 228.944 274.12C228.864 275.176 227.88 279.576 229.056 280.88C230.232 282.184 232.872 282.336 236.136 281.984C239.4 281.632 242.968 284.84 245.992 286.032C249.016 287.224 261.544 289.784 261.512 281.776C261.512 279.736 259.488 278.904 257.512 278.184C255.536 277.464 248.384 274.944 246.552 273.432C245.816 272.819 245.133 272.145 244.512 271.416C243.929 270.753 243.483 269.981 243.2 269.144Z"
        fill="#455A64" />
    <path
        d="M245.96 286.056C242.936 284.864 239.368 281.656 236.104 282.008C232.84 282.36 230.2 282.208 229.024 280.904C228.647 280.362 228.451 279.716 228.464 279.056C228.408 280.288 228.504 281.456 229.024 282.048C230.2 283.352 232.84 283.504 236.104 283.152C239.368 282.8 242.936 286.016 245.96 287.2C248.984 288.384 261.512 290.952 261.48 282.944C261.472 282.828 261.456 282.713 261.432 282.6C260.648 289.6 248.88 287.2 245.96 286.056Z"
        fill="#263238" />
    <path
        d="M214.112 271.696C212.312 260.272 210.024 242 208.704 231.192C208.014 225.513 205.209 220.302 200.848 216.6L168.536 189.128L151.264 188.8C151.264 188.8 147.704 203.2 153.352 211.816C158.064 219.016 178.824 227.888 185 230.88C191.176 233.872 191.304 234.696 191.176 238.696C191.048 242.696 191.04 247.808 198.632 263.792C200.808 268.392 202.328 271.792 203.384 274.456C207.169 274.772 210.949 273.799 214.112 271.696Z"
        fill="#001B48" />
    <path opacity="0.7"
        d="M214.112 271.696C212.312 260.272 210.024 242 208.704 231.192C208.014 225.513 205.209 220.302 200.848 216.6L168.536 189.128L151.264 188.8C151.264 188.8 147.704 203.2 153.352 211.816C158.064 219.016 178.824 227.888 185 230.88C191.176 233.872 191.304 234.696 191.176 238.696C191.048 242.696 191.04 247.808 198.632 263.792C200.808 268.392 202.328 271.792 203.384 274.456C207.169 274.772 210.949 273.799 214.112 271.696Z"
        fill="black" />
    <path
        d="M205.768 282.768C205.768 283.248 205.44 284.664 206.104 285.168C206.952 285.8 207.76 287.824 210.16 289.968C213.784 293.24 217.616 286.192 215.968 281.304C215.16 278.143 214.54 274.938 214.112 271.704C210.952 273.815 207.172 274.796 203.384 274.488C205.72 280.264 205.816 281.128 205.768 282.768Z"
        fill="#FFA8A7" />
    <path
        d="M184.416 129.216C186.888 128.823 189.419 129.32 191.559 130.618C193.699 131.916 195.31 133.93 196.104 136.304C197.245 139.731 197.978 143.281 198.288 146.88C199.224 157.96 199.48 163.496 199.48 163.496L210.608 168.544C210.608 168.544 204.6 168.832 205.008 177.344L191.144 173.848L184.416 129.216Z"
        fill="#FFA8A7" />
    <path
        d="M199.888 156.8C198.248 144.8 197.6 138.52 196.192 135.544C195.226 133.319 193.538 131.485 191.402 130.337C189.265 129.189 186.804 128.794 184.416 129.216L188.608 162.176L189.144 162.128C192.856 161.762 196.353 160.214 199.12 157.712L199.888 156.8Z"
        fill="#001B48" />
    <path opacity="0.2"
        d="M199.888 156.8C198.248 144.8 197.6 138.52 196.192 135.544C195.226 133.319 193.538 131.485 191.402 130.337C189.265 129.189 186.804 128.794 184.416 129.216L188.608 162.176L189.144 162.128C192.856 161.762 196.353 160.214 199.12 157.712L199.888 156.8Z"
        fill="black" />
    <path
        d="M199.48 163.496C198.23 163.88 197.098 164.577 196.192 165.52C196.192 165.52 197.536 162.968 199.392 162.176L199.48 163.496Z"
        fill="#F28F8F" />
    <path
        d="M157.68 138.936L170.128 132.904L180.384 129.36C180.384 129.36 188.608 126.744 190.704 137.696C192.44 146.696 192.664 180.896 192.664 180.896L192.48 184.632C192.48 184.632 187.736 197.928 170.784 199.032C153.832 200.136 150.528 192.984 150.528 192.984C150.528 192.984 148.8 147.728 157.68 138.936Z"
        fill="#001B48" />
    <path
        d="M196.904 102.4C196.904 102.4 200.752 112.264 195.44 116.608C190.128 120.952 192 103.464 192 103.464L196.904 102.4Z"
        fill="#263238" />
    <path
        d="M230.248 158.792L112 227.064V241.856V313.736C112.006 314.021 112.093 314.299 112.252 314.536C112.411 314.772 112.634 314.959 112.896 315.072C113.572 315.417 114.321 315.598 115.08 315.598C115.839 315.598 116.588 315.417 117.264 315.072C117.524 314.957 117.746 314.771 117.903 314.534C118.061 314.297 118.147 314.02 118.152 313.736V245.416L182.264 282.4V354.984C182.271 355.268 182.359 355.544 182.518 355.779C182.677 356.014 182.9 356.199 183.16 356.312C183.836 356.657 184.585 356.838 185.344 356.838C186.103 356.838 186.852 356.657 187.528 356.312C187.788 356.199 188.011 356.014 188.17 355.779C188.329 355.544 188.417 355.268 188.424 354.984V282.4L297.408 219.48V288.28C297.417 288.564 297.508 288.84 297.67 289.074C297.831 289.308 298.057 289.491 298.32 289.6C298.996 289.945 299.745 290.126 300.504 290.126C301.263 290.126 302.012 289.945 302.688 289.6C302.949 289.488 303.172 289.303 303.331 289.068C303.49 288.832 303.578 288.556 303.584 288.272V201.144L230.248 158.792Z"
        fill="#455A64" />
    <path
        d="M187.528 356.328C186.852 356.673 186.103 356.854 185.344 356.854C184.585 356.854 183.836 356.673 183.16 356.328C181.952 355.632 181.952 354.504 183.16 353.808C183.836 353.462 184.585 353.282 185.344 353.282C186.103 353.282 186.852 353.462 187.528 353.808C188.736 354.504 188.736 355.632 187.528 356.328Z"
        fill="#455A64" />
    <path d="M188.44 280.632H182.264V355H188.44V280.632Z" fill="#37474F" />
    <path
        d="M115.096 315.6C116.801 315.6 118.184 314.801 118.184 313.816C118.184 312.831 116.801 312.032 115.096 312.032C113.391 312.032 112.008 312.831 112.008 313.816C112.008 314.801 113.391 315.6 115.096 315.6Z"
        fill="#455A64" />
    <path d="M118.184 239.384H112.008V313.752H118.184V239.384Z" fill="#263238" />
    <path
        d="M302.688 289.6C302.012 289.945 301.263 290.125 300.504 290.125C299.745 290.125 298.996 289.945 298.32 289.6C297.112 288.904 297.112 287.776 298.32 287.08C298.996 286.734 299.745 286.554 300.504 286.554C301.263 286.554 302.012 286.734 302.688 287.08C303.896 287.784 303.896 288.912 302.688 289.6Z"
        fill="#455A64" />
    <path d="M303.6 213.912H297.424V288.28H303.6V213.912Z" fill="#37474F" />
    <path
        d="M227.2 233.328C226.592 233.636 225.921 233.796 225.24 233.796C224.559 233.796 223.887 233.636 223.28 233.328C222.2 232.704 222.2 231.728 223.28 231.072C223.886 230.76 224.558 230.598 225.24 230.598C225.922 230.598 226.594 230.76 227.2 231.072C228.248 231.696 228.248 232.704 227.2 233.328Z"
        fill="#455A64" />
    <path d="M227.984 170.08H222.44V232.144H227.984V170.08Z" fill="#455A64" />
    <path d="M112 227.064V241.856L185.352 284.208V269.408L112 227.064Z" fill="#263238" />
    <path d="M303.6 201.144L185.352 269.408V284.208L303.6 215.936V201.144Z" fill="#37474F" />
    <path d="M230.248 158.792L112 227.064L185.352 269.408L303.6 201.144L230.248 158.792Z"
        fill="#455A64" />
    <path d="M170.928 204.864L197.824 220.392L242.536 194.528L215.648 178.688L170.928 204.864Z"
        fill="#EBEBEB" />
    <path d="M194.928 200.44L205.016 194.616L198.696 190.968L188.608 196.792L194.928 200.44Z"
        fill="#E0E0E0" />
    <path d="M198.968 216.512L185.376 208.512L211.936 192.432L198.968 216.512Z" fill="#E0E0E0" />
    <path
        d="M206.576 166.624L217.336 171.672C220.551 172.483 223.72 173.463 226.832 174.608C226.832 174.608 234.32 177.664 234.664 179.672C235.008 181.68 229.064 186.52 223.808 184.168C222.434 183.432 220.964 182.893 219.44 182.568C218.04 182.416 213.84 181.768 210.84 178.88L198.288 175.616C198.288 175.616 197.664 167.872 206.576 166.624Z"
        fill="#FFA8A7" />
    <path
        d="M213.544 181.6C214.784 182.936 218.344 186.304 219.144 187.28C219.944 188.256 221.752 185.752 218.544 182.016C215.767 180.999 213.155 179.579 210.792 177.8C211.611 179.135 212.531 180.406 213.544 181.6Z"
        fill="#FFA8A7" />
    <path d="M182.896 117.448H170.128V132.904H182.896V117.448Z" fill="#FFA8A7" />
    <path
        d="M182.904 132.904C180.3 131.932 177.92 130.442 175.908 128.524C173.896 126.605 172.295 124.299 171.2 121.744V117.448H182.936L182.904 132.904Z"
        fill="#F28F8F" />
    <path
        d="M187.2 97.0399C187.2 97.0399 198.816 98.4399 196.152 118.288C194.92 127.464 192.464 132.104 185.392 131.32C177.392 130.424 166.296 124.2 168.016 108.472C169.736 92.7439 187.2 97.0399 187.2 97.0399Z"
        fill="#FFA8A7" />
    <path d="M187.848 114.736L187.432 121.592L191.52 120.608L187.848 114.736Z" fill="#F28F8F" />
    <path
        d="M181.768 114.12C181.751 114.396 181.817 114.672 181.956 114.911C182.096 115.15 182.303 115.343 182.552 115.464C182.801 115.585 183.081 115.63 183.355 115.593C183.63 115.555 183.887 115.437 184.094 115.253C184.301 115.069 184.449 114.828 184.52 114.56C184.59 114.292 184.579 114.009 184.488 113.748C184.398 113.486 184.232 113.257 184.011 113.09C183.79 112.922 183.525 112.824 183.248 112.808C182.878 112.786 182.514 112.912 182.237 113.158C181.959 113.404 181.791 113.75 181.768 114.12Z"
        fill="#263238" />
    <path
        d="M191.008 113.712C190.991 113.988 191.057 114.263 191.196 114.502C191.335 114.741 191.542 114.933 191.791 115.055C192.039 115.176 192.318 115.221 192.593 115.184C192.867 115.147 193.124 115.03 193.331 114.847C193.539 114.664 193.687 114.424 193.759 114.156C193.83 113.889 193.82 113.607 193.73 113.345C193.641 113.083 193.476 112.853 193.256 112.685C193.037 112.517 192.772 112.418 192.496 112.4C192.312 112.388 192.128 112.412 191.953 112.472C191.779 112.532 191.618 112.625 191.48 112.747C191.341 112.869 191.228 113.017 191.148 113.182C191.067 113.348 191.019 113.528 191.008 113.712Z"
        fill="#263238" />
    <path
        d="M194.288 110.992L191.656 109.2C191.656 109.2 192.768 108.176 193.776 108.896C194.062 109.153 194.265 109.491 194.356 109.865C194.447 110.239 194.424 110.632 194.288 110.992Z"
        fill="#263238" />
    <path
        d="M182.736 110.68L179.896 112.104C179.896 112.104 179.544 110.632 180.656 110.112C181.019 109.985 181.413 109.972 181.784 110.073C182.155 110.175 182.487 110.386 182.736 110.68Z"
        fill="#263238" />
    <path
        d="M187.632 124.376C186.033 124.392 184.476 123.87 183.208 122.896C183.208 122.896 182.76 125.248 184.712 125.816C186.664 126.384 187.632 124.376 187.632 124.376Z"
        fill="#F28F8F" />
    <path
        d="M169.992 114.576C169.992 114.576 171.776 118.296 172.88 118.168C173.984 118.04 172.88 103.92 175.168 103.832C177.456 103.744 188.256 109.104 197.8 102.184C201.472 99.5279 202.2 92.7439 200 93.3839C197.8 94.0239 194.832 95.9519 190.824 95.6799C186.816 95.4079 172.784 88.8959 169.304 98.0799C169.304 98.0799 161.544 97.4479 164.456 112.856C165.184 116.688 167.472 126.176 170.128 127.112L169.992 114.576Z"
        fill="#263238" />
    <path
        d="M170.624 117.968C170.668 116.804 170.452 115.646 169.992 114.576C169.762 113.917 169.345 113.34 168.792 112.914C168.24 112.488 167.576 112.231 166.88 112.176C163.296 112.08 162.808 115.536 162.88 116.76C163.008 119.96 165.624 123.48 170.488 123.616L170.624 117.968Z"
        fill="#FFA8A7" />
    <path
        d="M171.728 187.128L180.88 194.4C182.445 194.548 183.996 194.815 185.52 195.2C187.272 195.72 191.864 197.408 193.08 197.672C194.296 197.936 192.728 200.072 189.544 199.272C189.544 199.272 196.216 203.84 196.128 205.872C196.04 207.904 189.192 211.376 184.568 207.968C183.376 206.972 182.055 206.143 180.64 205.504C179.296 205.064 175.352 203.536 173.008 200.08L165.008 195.912C165.008 195.912 162.752 186.464 171.728 187.128Z"
        fill="#FFA8A7" />
    <path
        d="M161.744 136.968C161.744 136.968 167.08 141.104 163.8 153.96C160.52 166.816 158.768 177.896 158.768 177.896L171.728 187.128C169.954 187.905 168.406 189.12 167.231 190.659C166.055 192.199 165.29 194.012 165.008 195.928C165.008 195.928 144.576 187.928 144.16 182.736C143.744 177.544 148.424 155.256 149.136 151.152C149.848 147.048 153.48 138.912 161.744 136.968Z"
        fill="#FFA8A7" />
    <path
        d="M158.768 177.896C157.152 177.579 155.489 177.596 153.88 177.944C155.414 177.111 157.135 176.685 158.88 176.704L158.768 177.896Z"
        fill="#F28F8F" />
    <path
        d="M248.8 164.904L244.12 195.504C244.127 195.522 244.127 195.542 244.12 195.56L197.6 222.496C197.588 222.502 197.576 222.504 197.563 222.503C197.55 222.502 197.537 222.498 197.527 222.491C197.516 222.483 197.508 222.473 197.502 222.461C197.497 222.45 197.495 222.437 197.496 222.424L202.032 192.744C202.128 192.111 202.361 191.507 202.715 190.974C203.069 190.44 203.535 189.991 204.08 189.656L246.688 163.528C246.912 163.381 247.173 163.303 247.441 163.302C247.708 163.302 247.97 163.38 248.194 163.526C248.418 163.672 248.594 163.88 248.702 164.124C248.81 164.369 248.844 164.64 248.8 164.904Z"
        fill="#FAFAFA" />
    <path
        d="M197.6 222.496L172.8 208.096C172.228 207.764 171.754 207.288 171.424 206.715C171.094 206.142 170.92 205.493 170.92 204.832L197.816 220.36L197.6 222.496Z"
        fill="#E0E0E0" />
    <path
        d="M221.896 194.4C221.896 196.592 223.432 197.472 225.32 196.384C226.318 195.734 227.15 194.858 227.746 193.826C228.342 192.795 228.687 191.637 228.752 190.448C228.752 188.256 227.216 187.376 225.32 188.464C224.324 189.116 223.495 189.992 222.9 191.024C222.305 192.055 221.961 193.211 221.896 194.4Z"
        fill="#E0E0E0" />
    <path
        d="M170.536 102.568C170.536 102.568 168.424 99.448 169.736 98.44C171.048 97.432 172 100.64 170.536 102.568Z"
        fill="#263238" />
    <path
        d="M170.888 103.2C170.888 103.2 167.16 102.736 167.248 101.104C167.336 99.4719 170.4 100.848 170.888 103.2Z"
        fill="#263238" />
    <path
        d="M170.128 132.904C170.128 132.904 172.872 140.104 179.192 139.208C185.512 138.312 182.904 132.904 182.904 132.904H170.128Z"
        fill="#FFA8A7" />
    <path
        d="M161.744 136.968C161.744 136.968 165.904 138.96 165.264 147.328C164.624 155.696 161.32 172.56 161.32 172.56C161.32 172.56 146.432 178.592 145.008 170.088C144.648 167.888 148.4 147.544 151.608 143.24C152.786 141.564 154.291 140.143 156.033 139.065C157.776 137.987 159.718 137.274 161.744 136.968Z"
        fill="#001B48" />
    <path opacity="0.2"
        d="M161.744 136.968C161.744 136.968 165.904 138.96 165.264 147.328C164.624 155.696 161.32 172.56 161.32 172.56C161.32 172.56 146.432 178.592 145.008 170.088C144.648 167.888 148.4 147.544 151.608 143.24C152.786 141.564 154.291 140.143 156.033 139.065C157.776 137.987 159.718 137.274 161.744 136.968Z"
        fill="black" />
    <path
        d="M206.104 283.2C206.663 284.047 207.519 284.652 208.504 284.896C209.408 285.04 207.584 282.696 209.76 281.752C211.936 280.808 216.92 279.52 217.368 281.392L217.92 283.728C218.44 285.936 219.495 287.983 220.992 289.688C222.445 291.446 224.099 293.028 225.92 294.4C228.768 296.232 233.448 300.672 227.44 304.456C221.432 308.24 214.056 305.04 212.608 300.744C211.16 296.448 209.632 295.2 208.864 294.488C207.246 293.352 206.092 291.671 205.616 289.752C205.226 287.851 204.958 285.927 204.816 283.992C204.786 283.601 204.862 283.21 205.037 282.859C205.212 282.508 205.478 282.211 205.808 282L206.104 283.2Z"
        fill="#455A64" />
    <path
        d="M227.472 304.44C221.464 308.216 214.088 305.024 212.64 300.728C211.192 296.432 209.664 295.184 208.896 294.472C207.54 293.491 206.498 292.138 205.896 290.576C205.896 290.688 205.896 290.816 205.896 290.928C206.128 294.648 208.408 295.52 209.176 296.24C209.944 296.96 211.208 298.128 212.656 302.432C214.104 306.736 221.72 309.408 227.72 305.632C230.64 303.8 231.032 301.808 230.344 300.032C230.488 301.48 229.752 303.008 227.472 304.44Z"
        fill="#263238" />
    <path
        d="M198.608 247.328L179.472 258.4L155.312 244.448L174.512 233.376C174.764 233.234 175.047 233.16 175.336 233.16C175.625 233.16 175.908 233.234 176.16 233.376L198.632 246.352C198.715 246.404 198.784 246.477 198.83 246.564C198.877 246.651 198.9 246.748 198.898 246.847C198.895 246.945 198.867 247.041 198.816 247.126C198.766 247.21 198.694 247.28 198.608 247.328Z"
        fill="#001B48" />
    <path opacity="0.7"
        d="M198.608 247.328L179.472 258.4L155.312 244.448L174.512 233.376C174.764 233.234 175.047 233.16 175.336 233.16C175.625 233.16 175.908 233.234 176.16 233.376L198.632 246.352C198.715 246.404 198.784 246.477 198.83 246.564C198.877 246.651 198.9 246.748 198.898 246.847C198.895 246.945 198.867 247.041 198.816 247.126C198.766 247.21 198.694 247.28 198.608 247.328Z"
        fill="black" />
    <path
        d="M197.28 246.928L179.472 257.208L156.984 244.232L174.832 233.928C175.063 233.791 175.327 233.718 175.596 233.718C175.865 233.718 176.129 233.791 176.36 233.928L197.28 246C197.361 246.047 197.429 246.115 197.476 246.196C197.523 246.278 197.548 246.37 197.548 246.464C197.548 246.558 197.523 246.65 197.476 246.732C197.429 246.813 197.361 246.881 197.28 246.928Z"
        fill="white" />
    <path d="M179.472 257.208V255.2L197.552 244.768V246.472L179.472 257.208Z" fill="white" />
    <path d="M179.472 257.208V255.2L156.984 242.224V244.232L179.472 257.208Z" fill="#E0E0E0" />
    <path
        d="M198.608 244.152L179.472 255.2L155.312 241.256L174.512 230.184C174.764 230.042 175.047 229.968 175.336 229.968C175.625 229.968 175.908 230.042 176.16 230.184L198.608 243.2C198.687 243.252 198.752 243.322 198.797 243.405C198.842 243.488 198.866 243.581 198.866 243.676C198.866 243.771 198.842 243.864 198.797 243.947C198.752 244.03 198.687 244.1 198.608 244.152Z"
        fill="#001B48" />
    <path opacity="0.5"
        d="M198.608 244.152L179.472 255.2L155.312 241.256L174.512 230.184C174.764 230.042 175.047 229.968 175.336 229.968C175.625 229.968 175.908 230.042 176.16 230.184L198.608 243.2C198.687 243.252 198.752 243.322 198.797 243.405C198.842 243.488 198.866 243.581 198.866 243.676C198.866 243.771 198.842 243.864 198.797 243.947C198.752 244.03 198.687 244.1 198.608 244.152Z"
        fill="black" />
    <path
        d="M176.968 256.936C176.913 256.963 176.853 256.978 176.792 256.978C176.731 256.978 176.671 256.963 176.616 256.936C176.546 256.899 176.488 256.843 176.447 256.776C176.407 256.708 176.385 256.631 176.384 256.552V254.72C176.388 254.31 176.497 253.909 176.7 253.553C176.903 253.197 177.193 252.9 177.544 252.688L177.616 252.64C177.649 252.622 177.686 252.613 177.724 252.613C177.762 252.614 177.799 252.625 177.831 252.644C177.864 252.664 177.89 252.691 177.909 252.724C177.927 252.757 177.936 252.794 177.936 252.832C177.936 252.932 177.976 253.027 178.046 253.098C178.117 253.168 178.212 253.208 178.312 253.208C178.412 253.208 178.507 253.168 178.578 253.098C178.648 253.027 178.688 252.932 178.688 252.832C178.69 252.661 178.645 252.493 178.559 252.345C178.473 252.197 178.349 252.075 178.2 251.992C178.054 251.904 177.887 251.857 177.716 251.857C177.545 251.857 177.378 251.904 177.232 251.992L177.16 252.032C176.695 252.308 176.309 252.7 176.042 253.17C175.774 253.64 175.633 254.171 175.632 254.712V256.528C175.632 256.743 175.69 256.953 175.8 257.138C175.91 257.322 176.067 257.474 176.256 257.576C176.428 257.668 176.621 257.715 176.816 257.712C177.052 257.714 177.284 257.644 177.48 257.512C177.552 257.463 177.603 257.389 177.624 257.304L176.968 256.936Z"
        fill="white" />
    <path
        d="M173.392 254.872C173.337 254.899 173.277 254.914 173.216 254.914C173.155 254.914 173.095 254.899 173.04 254.872C172.97 254.835 172.912 254.779 172.871 254.712C172.831 254.644 172.809 254.567 172.808 254.488V252.672C172.811 252.261 172.919 251.858 173.122 251.501C173.325 251.143 173.616 250.844 173.968 250.632H174.04C174.073 250.614 174.11 250.604 174.148 250.604C174.186 250.604 174.223 250.614 174.256 250.632C174.288 250.651 174.314 250.678 174.332 250.71C174.35 250.743 174.36 250.779 174.36 250.816C174.36 250.916 174.4 251.011 174.47 251.082C174.541 251.152 174.636 251.192 174.736 251.192C174.836 251.192 174.931 251.152 175.002 251.082C175.072 251.011 175.112 250.916 175.112 250.816C175.107 250.652 175.059 250.492 174.973 250.352C174.888 250.212 174.767 250.096 174.624 250.016C174.478 249.928 174.311 249.881 174.14 249.881C173.969 249.881 173.802 249.928 173.656 250.016L173.584 250.056C173.119 250.332 172.733 250.724 172.466 251.194C172.198 251.664 172.057 252.195 172.056 252.736V254.552C172.056 254.767 172.114 254.977 172.224 255.162C172.334 255.346 172.491 255.498 172.68 255.6C172.852 255.692 173.045 255.738 173.24 255.736C173.476 255.738 173.708 255.668 173.904 255.536C173.976 255.487 174.027 255.413 174.048 255.328L173.392 254.872Z"
        fill="white" />
    <path
        d="M169.816 252.8C169.761 252.826 169.701 252.839 169.64 252.839C169.579 252.839 169.519 252.826 169.464 252.8C169.394 252.763 169.336 252.707 169.295 252.64C169.255 252.572 169.233 252.495 169.232 252.416V250.6C169.235 250.189 169.343 249.786 169.546 249.428C169.749 249.071 170.04 248.772 170.392 248.56L170.464 248.52C170.497 248.502 170.534 248.492 170.572 248.492C170.61 248.492 170.647 248.502 170.68 248.52C170.712 248.539 170.738 248.566 170.756 248.598C170.774 248.631 170.784 248.667 170.784 248.704C170.784 248.804 170.824 248.899 170.894 248.97C170.965 249.04 171.06 249.08 171.16 249.08C171.26 249.08 171.355 249.04 171.426 248.97C171.496 248.899 171.536 248.804 171.536 248.704C171.531 248.54 171.483 248.38 171.397 248.24C171.312 248.1 171.191 247.984 171.048 247.904C170.902 247.816 170.735 247.769 170.564 247.769C170.393 247.769 170.226 247.816 170.08 247.904L170.008 247.944C169.543 248.22 169.157 248.612 168.89 249.082C168.622 249.552 168.481 250.083 168.48 250.624V252.44C168.48 252.655 168.538 252.865 168.648 253.05C168.758 253.234 168.915 253.386 169.104 253.488C169.276 253.58 169.469 253.626 169.664 253.624C169.9 253.625 170.132 253.556 170.328 253.424C170.4 253.375 170.451 253.301 170.472 253.216L169.816 252.8Z"
        fill="white" />
    <path
        d="M166.24 250.744C166.185 250.77 166.125 250.783 166.064 250.783C166.003 250.783 165.943 250.77 165.888 250.744C165.818 250.707 165.76 250.651 165.719 250.584C165.679 250.516 165.657 250.439 165.656 250.36V248.544C165.659 248.133 165.767 247.73 165.97 247.373C166.173 247.015 166.464 246.716 166.816 246.504L166.888 246.464C166.921 246.446 166.958 246.436 166.996 246.436C167.034 246.436 167.071 246.446 167.104 246.464C167.136 246.483 167.162 246.51 167.18 246.542C167.198 246.575 167.208 246.611 167.208 246.648C167.208 246.748 167.248 246.843 167.318 246.914C167.389 246.984 167.484 247.024 167.584 247.024C167.684 247.024 167.779 246.984 167.85 246.914C167.92 246.843 167.96 246.748 167.96 246.648C167.955 246.484 167.907 246.324 167.821 246.184C167.736 246.044 167.615 245.928 167.472 245.848C167.326 245.76 167.159 245.713 166.988 245.713C166.817 245.713 166.65 245.76 166.504 245.848L166.432 245.888C165.967 246.164 165.581 246.556 165.314 247.026C165.046 247.496 164.905 248.027 164.904 248.568V250.384C164.904 250.599 164.962 250.809 165.072 250.994C165.182 251.178 165.339 251.33 165.528 251.432C165.7 251.524 165.893 251.57 166.088 251.568C166.324 251.57 166.556 251.5 166.752 251.368C166.824 251.319 166.875 251.245 166.896 251.16L166.24 250.744Z"
        fill="white" />
    <path
        d="M162.664 248.68C162.609 248.706 162.549 248.719 162.488 248.719C162.427 248.719 162.367 248.706 162.312 248.68C162.242 248.642 162.184 248.587 162.143 248.52C162.103 248.452 162.081 248.375 162.08 248.296V246.48C162.083 246.069 162.191 245.666 162.394 245.308C162.597 244.951 162.888 244.652 163.24 244.44H163.312C163.345 244.422 163.382 244.412 163.42 244.412C163.458 244.412 163.495 244.422 163.528 244.44C163.56 244.459 163.586 244.486 163.604 244.518C163.622 244.55 163.632 244.587 163.632 244.624C163.632 244.724 163.672 244.819 163.742 244.89C163.813 244.96 163.908 245 164.008 245C164.108 245 164.203 244.96 164.274 244.89C164.344 244.819 164.384 244.724 164.384 244.624C164.379 244.46 164.331 244.3 164.245 244.16C164.16 244.019 164.039 243.904 163.896 243.824C163.75 243.736 163.583 243.689 163.412 243.689C163.241 243.689 163.074 243.736 162.928 243.824L162.856 243.864C162.391 244.14 162.005 244.532 161.738 245.002C161.47 245.472 161.329 246.003 161.328 246.544V248.36C161.328 248.575 161.386 248.785 161.496 248.97C161.606 249.154 161.763 249.306 161.952 249.408C162.126 249.496 162.317 249.542 162.512 249.544C162.748 249.545 162.98 249.476 163.176 249.344C163.248 249.295 163.299 249.221 163.32 249.136L162.664 248.68Z"
        fill="white" />
    <path
        d="M159.088 246.616C159.033 246.642 158.973 246.655 158.912 246.655C158.851 246.655 158.791 246.642 158.736 246.616C158.666 246.579 158.608 246.523 158.567 246.456C158.527 246.388 158.505 246.311 158.504 246.232V244.4C158.507 243.989 158.615 243.586 158.818 243.229C159.021 242.871 159.312 242.572 159.664 242.36L159.736 242.32C159.769 242.302 159.806 242.292 159.844 242.292C159.882 242.292 159.919 242.302 159.952 242.32C159.985 242.338 160.012 242.365 160.03 242.397C160.049 242.43 160.058 242.467 160.056 242.504C160.056 242.604 160.096 242.699 160.166 242.77C160.237 242.84 160.332 242.88 160.432 242.88C160.532 242.88 160.627 242.84 160.698 242.77C160.768 242.699 160.808 242.604 160.808 242.504C160.8 242.338 160.749 242.176 160.66 242.035C160.572 241.894 160.449 241.778 160.303 241.698C160.157 241.618 159.993 241.576 159.827 241.577C159.66 241.578 159.497 241.622 159.352 241.704L159.28 241.752C158.815 242.028 158.429 242.42 158.162 242.89C157.894 243.36 157.753 243.891 157.752 244.432V246.248C157.752 246.463 157.81 246.673 157.92 246.858C158.03 247.042 158.187 247.194 158.376 247.296C158.55 247.384 158.741 247.431 158.936 247.432C159.172 247.434 159.404 247.364 159.6 247.232C159.672 247.183 159.723 247.109 159.744 247.024L159.088 246.616Z"
        fill="white" />
    <path d="M201.072 239.16L180.384 251.104L153.456 235.56L174.152 223.616L201.072 239.16Z"
        fill="#E6E6E6" />
    <path d="M202.264 238.768L180.648 248.944L155.112 231.192L176.736 221.024L202.264 238.768Z"
        fill="#FAFAFA" />
    <path
        d="M154 207H136.44L138.04 225.584C138.144 226.173 138.389 226.728 138.754 227.202C139.119 227.675 139.593 228.053 140.136 228.304C141.717 229.108 143.466 229.528 145.24 229.528C147.014 229.528 148.763 229.108 150.344 228.304C150.886 228.052 151.359 227.673 151.724 227.2C152.089 226.726 152.334 226.172 152.44 225.584L154 207Z"
        fill="#001B48" />
    <path
        d="M155.12 205.984V204.512H154.776C154.208 203.417 153.317 202.523 152.224 201.952C148.36 199.72 142.088 199.72 138.224 201.952C137.129 202.52 136.237 203.415 135.672 204.512H135.32V206C135.32 207.456 136.288 208.92 138.224 210.04C142.088 212.272 148.36 212.272 152.224 210.04C154.16 208.92 155.128 207.448 155.12 205.984Z"
        fill="#E0E0E0" />
    <path
        d="M152.224 208.64C148.36 210.872 142.088 210.872 138.224 208.64C134.36 206.408 134.352 202.792 138.224 200.56C142.096 198.328 148.36 198.32 152.224 200.56C156.088 202.8 156.088 206.4 152.224 208.64Z"
        fill="#EBEBEB" />
    <path
        d="M153.16 204V202.824H152.88C152.425 201.947 151.709 201.231 150.832 200.776C149.097 199.895 147.178 199.437 145.232 199.437C143.286 199.437 141.367 199.895 139.632 200.776C138.752 201.228 138.036 201.944 137.584 202.824H137.304V204C137.304 205.176 138.104 206.352 139.632 207.24C141.367 208.121 143.286 208.579 145.232 208.579C147.178 208.579 149.097 208.121 150.832 207.24C152.384 206.336 153.16 205.16 153.16 204Z"
        fill="#E0E0E0" />
    <path
        d="M150.832 206.112C149.097 206.993 147.178 207.451 145.232 207.451C143.286 207.451 141.367 206.993 139.632 206.112C136.528 204.328 136.528 201.424 139.632 199.64C141.367 198.759 143.286 198.301 145.232 198.301C147.178 198.301 149.097 198.759 150.832 199.64C153.928 201.424 153.928 204.328 150.832 206.112Z"
        fill="#F5F5F5" />
    <path
        d="M149.536 205.168C148.198 205.846 146.72 206.2 145.22 206.2C143.72 206.2 142.242 205.846 140.904 205.168C138.592 203.84 138.504 201.712 140.664 200.368C140.74 200.312 140.82 200.261 140.904 200.216C141.428 199.918 141.987 199.687 142.568 199.528C144.894 198.872 147.383 199.117 149.536 200.216C151.928 201.6 151.928 203.792 149.536 205.168Z"
        fill="#F0F0F0" />
    <path
        d="M140.904 200.896C142.242 200.214 143.722 199.858 145.224 199.858C146.726 199.858 148.206 200.214 149.544 200.896C149.977 201.098 150.359 201.395 150.662 201.765C150.966 202.135 151.182 202.568 151.296 203.032C151.48 202.016 150.888 200.96 149.544 200.184C148.204 199.509 146.724 199.157 145.224 199.157C143.724 199.157 142.244 199.509 140.904 200.184C139.552 200.984 138.968 202.016 139.144 203.032C139.259 202.567 139.477 202.133 139.781 201.764C140.086 201.394 140.469 201.098 140.904 200.896Z"
        fill="#E0E0E0" />
    <path
        d="M144.168 201.128L142.4 202.256L140.672 201.016V200.336C140.748 200.28 140.828 200.229 140.912 200.184C141.436 199.886 141.995 199.655 142.576 199.496V200L144.168 201.128Z"
        fill="#E0E0E0" />
    <path
        d="M352.688 91.9999L253.104 34.4639C252.685 34.1546 252.177 33.9878 251.656 33.9878C251.135 33.9878 250.627 34.1546 250.208 34.4639L246.76 36.8639L249.112 39.7759V120.056C249.112 123 250.904 126.456 253.112 127.688L351.712 184.616L351.896 187.744L355.528 185.256C355.945 184.864 356.267 184.382 356.469 183.847C356.671 183.312 356.749 182.738 356.696 182.168V99.5919C356.688 96.6479 354.896 93.2319 352.688 91.9999Z"
        fill="#001B48" />
    <path opacity="0.3"
        d="M352.688 91.9999L253.104 34.4639C252.685 34.1546 252.177 33.9878 251.656 33.9878C251.135 33.9878 250.627 34.1546 250.208 34.4639L246.76 36.8639L249.112 39.7759V120.056C249.112 123 250.904 126.456 253.112 127.688L351.712 184.616L351.896 187.744L355.528 185.256C355.945 184.864 356.267 184.382 356.469 183.847C356.671 183.312 356.749 182.738 356.696 182.168V99.5919C356.688 96.6479 354.896 93.2319 352.688 91.9999Z"
        fill="black" />
    <path
        d="M349.296 187.52L249.712 130.024C247.512 128.752 245.712 125.336 245.712 122.392V39.816C245.712 36.88 247.504 35.528 249.712 36.8L349.296 94.296C351.504 95.568 353.296 98.984 353.296 101.928V184.496C353.296 187.44 351.504 188.8 349.296 187.52Z"
        fill="#001B48" />
    <path
        d="M349.296 187.52L249.712 130.024C247.512 128.752 245.712 125.336 245.712 122.392V39.816C245.712 36.88 247.504 35.528 249.712 36.8L349.296 94.296C351.504 95.568 353.296 98.984 353.296 101.928V184.496C353.296 187.44 351.504 188.8 349.296 187.52Z"
        fill="#001B48" />
    <path
        d="M349.296 94.296L249.712 36.8C247.512 35.528 245.712 36.88 245.712 39.816V43.816L353.288 105.92V101.92C353.296 98.984 351.504 95.568 349.296 94.296Z"
        fill="#455A64" />
    <path
        d="M248.128 37.1198C248.548 37.1396 248.955 37.2662 249.312 37.4878L348.896 94.9838C350.848 96.1118 352.496 99.2878 352.496 101.928V184.496C352.496 186.096 351.864 187.2 350.896 187.2C350.473 187.18 350.062 187.05 349.704 186.824L250.112 129.328C248.168 128.208 246.52 125.024 246.52 122.392V39.8158C246.52 38.1758 247.152 37.1198 248.12 37.1198M248.12 36.3198C246.704 36.3198 245.72 37.6238 245.72 39.8158V122.4C245.72 125.344 247.512 128.76 249.72 130.032L349.296 187.52C349.777 187.819 350.33 187.984 350.896 188C352.312 188 353.296 186.688 353.296 184.496V101.928C353.296 98.9838 351.504 95.5278 349.296 94.2958L249.712 36.7998C249.232 36.4988 248.679 36.333 248.112 36.3198H248.12Z"
        fill="#001B48" />
    <path
        d="M291.888 79.9998C291.739 80.0027 291.592 79.9639 291.464 79.8878L253.552 58.0318C253.374 57.9115 253.249 57.7282 253.201 57.519C253.153 57.3098 253.186 57.0902 253.293 56.9044C253.401 56.7187 253.575 56.5806 253.78 56.5182C253.986 56.4557 254.207 56.4734 254.4 56.5678L292.312 78.4558C292.483 78.5446 292.619 78.6891 292.697 78.8654C292.775 79.0417 292.79 79.2393 292.741 79.4257C292.692 79.612 292.58 79.776 292.425 79.8905C292.27 80.0051 292.081 80.0634 291.888 80.0558V79.9998Z"
        fill="white" />
    <path
        d="M345.224 110.832C345.074 110.832 344.927 110.791 344.8 110.712L316.72 94.5039C316.525 94.3914 316.382 94.206 316.324 93.9885C316.265 93.7709 316.296 93.5391 316.408 93.3439C316.52 93.1487 316.706 93.0061 316.923 92.9476C317.141 92.8891 317.373 92.9194 317.568 93.0319L345.648 109.248C345.819 109.337 345.955 109.481 346.033 109.657C346.111 109.834 346.126 110.031 346.077 110.218C346.028 110.404 345.916 110.568 345.761 110.683C345.606 110.797 345.417 110.855 345.224 110.848V110.832Z"
        fill="white" />
    <path
        d="M311.056 91.104C310.908 91.102 310.762 91.0635 310.632 90.992L299.2 84.4C299.096 84.3488 299.003 84.2767 298.927 84.1881C298.852 84.0996 298.795 83.9964 298.762 83.8851C298.728 83.7738 298.717 83.6567 298.73 83.5411C298.744 83.4255 298.781 83.3139 298.839 83.2132C298.897 83.1126 298.976 83.025 299.069 82.9559C299.163 82.8868 299.27 82.8378 299.383 82.8117C299.497 82.7857 299.614 82.7833 299.729 82.8047C299.843 82.8261 299.952 82.8707 300.048 82.936L311.456 89.52C311.627 89.6088 311.763 89.7532 311.841 89.9295C311.919 90.1059 311.934 90.3035 311.885 90.4898C311.836 90.6762 311.724 90.8402 311.569 90.9547C311.414 91.0692 311.225 91.1275 311.032 91.12L311.056 91.104Z"
        fill="white" />
    <path
        d="M291.888 133.128C291.739 133.127 291.594 133.088 291.464 133.016L253.552 111.128C253.374 111.008 253.249 110.824 253.201 110.615C253.153 110.406 253.186 110.186 253.293 110.001C253.401 109.815 253.575 109.677 253.78 109.614C253.986 109.552 254.207 109.57 254.4 109.664L292.312 131.544C292.506 131.657 292.647 131.843 292.704 132.061C292.761 132.279 292.729 132.51 292.616 132.704C292.546 132.835 292.441 132.945 292.312 133.02C292.184 133.094 292.037 133.132 291.888 133.128Z"
        fill="white" />
    <path
        d="M345.224 163.92C345.075 163.923 344.928 163.884 344.8 163.808L316.72 147.6C316.525 147.487 316.382 147.302 316.324 147.084C316.265 146.867 316.296 146.635 316.408 146.44C316.52 146.245 316.706 146.102 316.923 146.044C317.141 145.985 317.373 146.015 317.568 146.128L345.648 162.344C345.841 162.456 345.983 162.64 346.041 162.856C346.099 163.071 346.07 163.301 345.96 163.496C345.885 163.624 345.777 163.731 345.648 163.806C345.519 163.88 345.373 163.919 345.224 163.92Z"
        fill="white" />
    <path
        d="M311.056 144.192C310.907 144.195 310.76 144.156 310.632 144.08L299.2 137.496C299.096 137.445 299.003 137.373 298.927 137.284C298.852 137.196 298.795 137.092 298.762 136.981C298.728 136.87 298.717 136.753 298.73 136.637C298.744 136.521 298.781 136.41 298.839 136.309C298.897 136.209 298.976 136.121 299.069 136.052C299.163 135.983 299.27 135.934 299.383 135.908C299.497 135.882 299.614 135.879 299.729 135.901C299.843 135.922 299.952 135.967 300.048 136.032L311.456 142.616C311.649 142.728 311.791 142.912 311.849 143.128C311.907 143.343 311.878 143.574 311.768 143.768C311.695 143.893 311.591 143.998 311.467 144.072C311.342 144.146 311.201 144.187 311.056 144.192Z"
        fill="white" />
    <path
        d="M291.888 145.6C291.739 145.603 291.592 145.564 291.464 145.488L253.552 123.608C253.357 123.495 253.214 123.31 253.156 123.092C253.097 122.875 253.128 122.643 253.24 122.448C253.352 122.253 253.538 122.11 253.755 122.052C253.973 121.993 254.205 122.023 254.4 122.136L292.312 144C292.483 144.089 292.619 144.233 292.697 144.409C292.775 144.586 292.79 144.783 292.741 144.97C292.692 145.156 292.58 145.32 292.425 145.435C292.27 145.549 292.081 145.607 291.888 145.6Z"
        fill="white" />
    <path
        d="M333.272 169.504C333.123 169.507 332.976 169.468 332.848 169.392L316.72 160.08C316.615 160.029 316.523 159.957 316.447 159.868C316.372 159.779 316.315 159.676 316.281 159.565C316.248 159.454 316.237 159.337 316.25 159.221C316.264 159.105 316.301 158.994 316.359 158.893C316.417 158.793 316.496 158.705 316.589 158.636C316.683 158.567 316.79 158.518 316.903 158.492C317.017 158.466 317.134 158.463 317.248 158.485C317.363 158.506 317.472 158.551 317.568 158.616L333.696 167.928C333.792 167.983 333.877 168.056 333.945 168.144C334.013 168.231 334.063 168.332 334.092 168.439C334.121 168.546 334.129 168.658 334.114 168.768C334.1 168.878 334.064 168.984 334.008 169.08C333.933 169.208 333.825 169.315 333.696 169.39C333.567 169.464 333.421 169.503 333.272 169.504Z"
        fill="white" />
    <path
        d="M311.056 156.68C310.908 156.678 310.762 156.639 310.632 156.568L299.2 149.984C299.005 149.871 298.862 149.686 298.804 149.468C298.745 149.251 298.776 149.019 298.888 148.824C299 148.629 299.186 148.486 299.403 148.428C299.621 148.369 299.853 148.399 300.048 148.512L311.456 155.096C311.627 155.185 311.763 155.329 311.841 155.505C311.919 155.682 311.934 155.879 311.885 156.066C311.836 156.252 311.724 156.416 311.569 156.531C311.414 156.645 311.225 156.703 311.032 156.696L311.056 156.68Z"
        fill="white" />
    <path
        d="M272.984 75.7199C272.834 75.7204 272.687 75.6788 272.56 75.5999L253.552 64.6319C253.405 64.5011 253.309 64.3233 253.279 64.1291C253.248 63.9348 253.287 63.7362 253.387 63.567C253.487 63.3979 253.643 63.2688 253.828 63.2019C254.012 63.1349 254.215 63.1342 254.4 63.1999L273.408 74.1679C273.602 74.2814 273.743 74.4674 273.8 74.685C273.857 74.9025 273.826 75.1338 273.712 75.3279C273.638 75.4534 273.531 75.5562 273.403 75.6252C273.274 75.6943 273.13 75.7271 272.984 75.7199Z"
        fill="white" />
    <path
        d="M327.728 107.328C327.58 107.326 327.434 107.287 327.304 107.216L299.2 90.9998C299.096 90.9487 299.003 90.8766 298.927 90.788C298.852 90.6994 298.795 90.5963 298.762 90.4849C298.728 90.3736 298.717 90.2565 298.73 90.141C298.744 90.0254 298.781 89.9138 298.839 89.8131C298.897 89.7124 298.976 89.6248 299.069 89.5558C299.163 89.4867 299.27 89.4376 299.383 89.4116C299.497 89.3856 299.614 89.3832 299.729 89.4046C299.843 89.4259 299.952 89.4706 300.048 89.5358L328.128 105.744C328.299 105.833 328.435 105.977 328.513 106.153C328.591 106.33 328.606 106.527 328.557 106.714C328.508 106.9 328.396 107.064 328.241 107.179C328.086 107.293 327.897 107.351 327.704 107.344L327.728 107.328Z"
        fill="white" />
    <path
        d="M292.152 86.7838C292.003 86.7867 291.856 86.7479 291.728 86.6718L280.32 80.0878C280.125 79.9754 279.982 79.79 279.924 79.5725C279.865 79.3549 279.896 79.123 280.008 78.9278C280.12 78.7326 280.306 78.5901 280.523 78.5316C280.741 78.4731 280.973 78.5034 281.168 78.6158L292.576 85.1998C292.77 85.3134 292.911 85.4993 292.968 85.7169C293.025 85.9344 292.993 86.1657 292.88 86.3598C292.81 86.4912 292.705 86.6005 292.576 86.6754C292.448 86.7503 292.301 86.7879 292.152 86.7838Z"
        fill="white" />
    <path
        d="M291.888 93.2319C291.738 93.2324 291.591 93.1908 291.464 93.1119L253.552 71.1999C253.4 71.0706 253.298 70.8917 253.265 70.6947C253.231 70.4977 253.269 70.2952 253.37 70.123C253.471 69.9508 253.63 69.82 253.819 69.7536C254.007 69.6871 254.213 69.6894 254.4 69.7599L292.312 91.6479C292.506 91.7614 292.647 91.9474 292.704 92.165C292.761 92.3825 292.73 92.6138 292.616 92.8079C292.546 92.9393 292.441 93.0486 292.312 93.1235C292.184 93.1984 292.037 93.236 291.888 93.2319Z"
        fill="white" />
    <path
        d="M324.624 112.128C324.475 112.131 324.328 112.092 324.2 112.016L316.72 107.696C316.615 107.645 316.523 107.573 316.447 107.484C316.372 107.395 316.315 107.292 316.281 107.181C316.248 107.07 316.237 106.953 316.25 106.837C316.264 106.721 316.301 106.61 316.359 106.509C316.417 106.408 316.496 106.321 316.589 106.252C316.683 106.183 316.79 106.134 316.903 106.108C317.017 106.082 317.134 106.079 317.248 106.101C317.363 106.122 317.472 106.167 317.568 106.232L325.048 110.552C325.241 110.664 325.383 110.848 325.441 111.064C325.499 111.279 325.47 111.509 325.36 111.704C325.285 111.832 325.177 111.939 325.048 112.014C324.919 112.088 324.773 112.127 324.624 112.128Z"
        fill="white" />
    <path
        d="M276.72 91.0718C276.572 91.0699 276.426 91.0314 276.296 90.9598L268.8 86.6398C268.703 86.5842 268.619 86.51 268.551 86.4216C268.483 86.3331 268.433 86.2322 268.404 86.1245C268.375 86.0167 268.367 85.9044 268.382 85.7938C268.396 85.6832 268.432 85.5765 268.488 85.4798C268.544 85.3832 268.618 85.2984 268.706 85.2305C268.795 85.1625 268.896 85.1126 269.003 85.0836C269.111 85.0546 269.224 85.0472 269.334 85.0616C269.445 85.0761 269.551 85.1122 269.648 85.1678L277.128 89.4878C277.299 89.5767 277.435 89.7211 277.513 89.8974C277.591 90.0737 277.606 90.2714 277.557 90.4577C277.508 90.6441 277.396 90.808 277.241 90.9226C277.086 91.0371 276.897 91.0954 276.704 91.0878L276.72 91.0718Z"
        fill="white" />
    <path
        d="M311.056 104.296C310.908 104.294 310.762 104.255 310.632 104.184L299.2 97.5998C299.103 97.5441 299.019 97.47 298.951 97.3815C298.883 97.2931 298.833 97.1921 298.804 97.0844C298.775 96.9767 298.767 96.8643 298.782 96.7537C298.796 96.6431 298.832 96.5365 298.888 96.4398C298.944 96.3432 299.018 96.2584 299.106 96.1904C299.195 96.1224 299.296 96.0725 299.403 96.0436C299.511 96.0146 299.623 96.0071 299.734 96.0216C299.845 96.036 299.951 96.0721 300.048 96.1278L311.456 102.712C311.627 102.801 311.763 102.945 311.841 103.121C311.919 103.298 311.934 103.495 311.885 103.682C311.836 103.868 311.724 104.032 311.569 104.147C311.414 104.261 311.225 104.319 311.032 104.312L311.056 104.296Z"
        fill="white" />
    <path
        d="M266.128 84.9518C265.979 84.9547 265.832 84.9159 265.704 84.8398L253.552 77.8238C253.374 77.7035 253.249 77.5202 253.201 77.311C253.153 77.1018 253.186 76.8821 253.293 76.6964C253.401 76.5107 253.575 76.3726 253.78 76.3102C253.986 76.2477 254.207 76.2654 254.4 76.3598L266.552 83.3758C266.732 83.4584 266.877 83.6019 266.961 83.7809C267.045 83.9599 267.064 84.1629 267.013 84.3541C266.962 84.5454 266.846 84.7126 266.684 84.8263C266.522 84.9401 266.325 84.993 266.128 84.9758V84.9518Z"
        fill="white" />
    <path
        d="M292.152 99.9998C292.003 100.003 291.856 99.9639 291.728 99.8878L280.32 93.2798C280.215 93.2287 280.123 93.1566 280.047 93.068C279.972 92.9794 279.915 92.8763 279.882 92.765C279.848 92.6537 279.837 92.5366 279.85 92.421C279.864 92.3054 279.901 92.1938 279.959 92.0931C280.017 91.9925 280.096 91.9049 280.189 91.8358C280.283 91.7667 280.39 91.7176 280.503 91.6916C280.617 91.6656 280.734 91.6632 280.849 91.6846C280.963 91.706 281.072 91.7506 281.168 91.8158L292.576 98.3998C292.747 98.4887 292.883 98.6331 292.961 98.8094C293.039 98.9857 293.054 99.1834 293.005 99.3697C292.956 99.5561 292.844 99.72 292.689 99.8346C292.534 99.9491 292.345 100.007 292.152 99.9998Z"
        fill="white" />
    <path
        d="M291.888 106.904C291.739 106.907 291.592 106.868 291.464 106.792L253.552 84.9038C253.374 84.7835 253.249 84.6003 253.201 84.3911C253.153 84.1819 253.186 83.9622 253.293 83.7765C253.401 83.5907 253.575 83.4527 253.78 83.3902C253.986 83.3278 254.207 83.3455 254.4 83.4398L292.312 105.32C292.506 105.433 292.647 105.619 292.704 105.837C292.761 106.054 292.729 106.286 292.616 106.48C292.546 106.611 292.441 106.721 292.312 106.795C292.184 106.87 292.037 106.908 291.888 106.904Z"
        fill="white" />
    <path
        d="M345.224 137.696C345.077 137.704 344.93 137.67 344.8 137.6L316.72 121.392C316.525 121.279 316.382 121.094 316.324 120.876C316.265 120.659 316.296 120.427 316.408 120.232C316.52 120.037 316.706 119.894 316.923 119.836C317.141 119.777 317.373 119.807 317.568 119.92L345.648 136.136C345.841 136.248 345.983 136.432 346.041 136.648C346.099 136.863 346.07 137.093 345.96 137.288C345.883 137.413 345.775 137.517 345.646 137.588C345.517 137.66 345.371 137.697 345.224 137.696Z"
        fill="white" />
    <path
        d="M311.056 117.968C310.907 117.971 310.76 117.932 310.632 117.856L299.2 111.272C299.096 111.221 299.003 111.149 298.927 111.06C298.852 110.971 298.795 110.868 298.762 110.757C298.728 110.646 298.717 110.529 298.73 110.413C298.744 110.297 298.781 110.186 298.839 110.085C298.897 109.984 298.976 109.897 299.069 109.828C299.163 109.759 299.27 109.71 299.383 109.684C299.497 109.658 299.614 109.655 299.729 109.677C299.843 109.698 299.952 109.743 300.048 109.808L311.456 116.392C311.65 116.505 311.791 116.691 311.85 116.908C311.908 117.125 311.879 117.356 311.768 117.552C311.693 117.674 311.589 117.777 311.464 117.849C311.34 117.922 311.2 117.963 311.056 117.968Z"
        fill="white" />
    <path
        d="M272.984 102.584C272.835 102.587 272.688 102.548 272.56 102.472L253.552 91.5039C253.357 91.3914 253.214 91.206 253.156 90.9885C253.097 90.7709 253.128 90.5391 253.24 90.3439C253.352 90.1487 253.538 90.0061 253.755 89.9476C253.973 89.8891 254.205 89.9194 254.4 90.0319L273.408 101.008C273.579 101.097 273.715 101.241 273.793 101.417C273.871 101.594 273.886 101.791 273.837 101.978C273.788 102.164 273.676 102.328 273.521 102.443C273.366 102.557 273.177 102.615 272.984 102.608V102.584Z"
        fill="white" />
    <path
        d="M327.728 134.2C327.578 134.2 327.431 134.159 327.304 134.08L299.2 117.872C299.005 117.76 298.862 117.574 298.804 117.357C298.745 117.139 298.776 116.907 298.888 116.712C299 116.517 299.186 116.374 299.403 116.316C299.621 116.257 299.853 116.288 300.048 116.4L328.128 132.616C328.299 132.705 328.435 132.849 328.513 133.026C328.591 133.202 328.606 133.4 328.557 133.586C328.508 133.772 328.396 133.936 328.241 134.051C328.086 134.165 327.897 134.224 327.704 134.216L327.728 134.2Z"
        fill="white" />
    <path
        d="M292.152 113.656C292.004 113.654 291.858 113.616 291.728 113.544L280.32 106.952C280.215 106.901 280.123 106.829 280.047 106.74C279.972 106.652 279.915 106.548 279.882 106.437C279.848 106.326 279.837 106.209 279.85 106.093C279.864 105.978 279.901 105.866 279.959 105.765C280.017 105.665 280.096 105.577 280.189 105.508C280.283 105.439 280.39 105.39 280.503 105.364C280.617 105.338 280.734 105.335 280.849 105.357C280.963 105.378 281.072 105.423 281.168 105.488L292.576 112.072C292.77 112.185 292.911 112.371 292.968 112.589C293.025 112.807 292.994 113.038 292.88 113.232C292.81 113.363 292.705 113.473 292.576 113.548C292.448 113.622 292.301 113.66 292.152 113.656Z"
        fill="white" />
    <path
        d="M291.888 120.096C291.739 120.099 291.592 120.06 291.464 119.984L253.552 98.096C253.374 97.9757 253.249 97.7924 253.201 97.5832C253.153 97.374 253.186 97.1544 253.293 96.9686C253.401 96.7829 253.575 96.6448 253.78 96.5824C253.986 96.5199 254.207 96.5376 254.4 96.632L292.312 118.52C292.483 118.609 292.619 118.753 292.697 118.93C292.775 119.106 292.79 119.304 292.741 119.49C292.692 119.676 292.58 119.84 292.425 119.955C292.27 120.069 292.081 120.128 291.888 120.12V120.096Z"
        fill="white" />
    <path
        d="M324.624 139C324.476 138.998 324.33 138.959 324.2 138.888L316.72 134.568C316.615 134.517 316.523 134.445 316.447 134.356C316.372 134.268 316.315 134.164 316.281 134.053C316.248 133.942 316.237 133.825 316.25 133.709C316.264 133.593 316.301 133.482 316.359 133.381C316.417 133.281 316.496 133.193 316.589 133.124C316.683 133.055 316.79 133.006 316.903 132.98C317.017 132.954 317.134 132.951 317.248 132.973C317.363 132.994 317.472 133.039 317.568 133.104L325.048 137.416C325.219 137.505 325.355 137.649 325.433 137.826C325.511 138.002 325.526 138.199 325.477 138.386C325.428 138.572 325.316 138.736 325.161 138.851C325.006 138.965 324.817 139.024 324.624 139.016V139Z"
        fill="white" />
    <path
        d="M276.72 117.944C276.57 117.944 276.423 117.903 276.296 117.824L268.8 113.512C268.605 113.399 268.462 113.214 268.404 112.997C268.345 112.779 268.376 112.547 268.488 112.352C268.6 112.157 268.786 112.014 269.003 111.956C269.221 111.897 269.453 111.927 269.648 112.04L277.128 116.36C277.299 116.449 277.435 116.593 277.513 116.769C277.591 116.946 277.606 117.143 277.557 117.33C277.508 117.516 277.396 117.68 277.241 117.795C277.086 117.909 276.897 117.967 276.704 117.96L276.72 117.944Z"
        fill="white" />
    <path
        d="M311.056 131.2C310.908 131.198 310.762 131.159 310.632 131.088L299.2 124.472C299.005 124.359 298.862 124.174 298.804 123.956C298.745 123.739 298.776 123.507 298.888 123.312C299 123.117 299.186 122.974 299.403 122.916C299.621 122.857 299.853 122.887 300.048 123L311.48 129.6C311.651 129.689 311.787 129.833 311.865 130.009C311.943 130.186 311.958 130.383 311.909 130.57C311.86 130.756 311.748 130.92 311.593 131.035C311.438 131.149 311.249 131.207 311.056 131.2Z"
        fill="white" />
    <path
        d="M266.128 111.824C265.979 111.827 265.832 111.788 265.704 111.712L253.552 104.696C253.354 104.583 253.208 104.397 253.147 104.177C253.087 103.957 253.116 103.722 253.228 103.524C253.34 103.326 253.527 103.18 253.747 103.119C253.967 103.058 254.202 103.087 254.4 103.2L266.552 110.208C266.723 110.297 266.859 110.441 266.937 110.618C267.015 110.794 267.03 110.991 266.981 111.178C266.932 111.364 266.82 111.528 266.665 111.643C266.51 111.757 266.321 111.816 266.128 111.808V111.824Z"
        fill="white" />
    <path
        d="M292.152 126.848C292.003 126.851 291.856 126.812 291.728 126.736L280.32 120.152C280.125 120.039 279.982 119.854 279.924 119.636C279.865 119.419 279.896 119.187 280.008 118.992C280.12 118.797 280.306 118.654 280.523 118.596C280.741 118.537 280.973 118.567 281.168 118.68L292.576 125.272C292.747 125.361 292.883 125.505 292.961 125.681C293.039 125.858 293.054 126.055 293.005 126.242C292.956 126.428 292.844 126.592 292.689 126.707C292.534 126.821 292.345 126.879 292.152 126.872V126.848Z"
        fill="white" />
    <path
        d="M276.72 130.584C276.571 130.587 276.424 130.548 276.296 130.472L268.816 126.152C268.711 126.101 268.619 126.029 268.543 125.94C268.468 125.852 268.411 125.748 268.377 125.637C268.344 125.526 268.333 125.409 268.346 125.293C268.36 125.177 268.397 125.066 268.455 124.965C268.513 124.865 268.592 124.777 268.685 124.708C268.779 124.639 268.886 124.59 268.999 124.564C269.113 124.538 269.23 124.535 269.345 124.557C269.459 124.578 269.568 124.623 269.664 124.688L277.144 129.008C277.324 129.091 277.469 129.234 277.553 129.413C277.637 129.592 277.656 129.795 277.605 129.986C277.554 130.178 277.438 130.345 277.276 130.458C277.114 130.572 276.917 130.625 276.72 130.608V130.584Z"
        fill="white" />
    <path
        d="M266.128 124.472C265.98 124.47 265.834 124.432 265.704 124.36L253.552 117.344C253.357 117.231 253.214 117.046 253.156 116.829C253.097 116.611 253.128 116.379 253.24 116.184C253.352 115.989 253.538 115.846 253.755 115.788C253.973 115.729 254.205 115.759 254.4 115.872L266.552 122.888C266.723 122.977 266.859 123.121 266.937 123.298C267.015 123.474 267.03 123.671 266.981 123.858C266.932 124.044 266.82 124.208 266.665 124.323C266.51 124.437 266.321 124.496 266.128 124.488V124.472Z"
        fill="white" />
    <path
        d="M292.152 139.496C292.004 139.494 291.858 139.456 291.728 139.384L280.32 132.8C280.125 132.688 279.982 132.502 279.924 132.285C279.865 132.067 279.896 131.835 280.008 131.64C280.12 131.445 280.306 131.302 280.523 131.244C280.741 131.185 280.973 131.216 281.168 131.328L292.576 137.912C292.77 138.026 292.911 138.211 292.968 138.429C293.025 138.647 292.993 138.878 292.88 139.072C292.81 139.203 292.705 139.313 292.576 139.388C292.448 139.462 292.301 139.5 292.152 139.496Z"
        fill="white" />
    <path
        d="M261.48 66.264V96.936C261.48 97.432 261.304 97.736 261.024 97.872L259.848 98.52V97.472L259.68 65.936L261.216 65.136C261.388 65.4873 261.478 65.8729 261.48 66.264Z"
        fill="#263238" />
    <path
        d="M261.216 65.1599L259.68 65.9599L222.488 44.1279L221.6 43.6159L222.824 42.9279H222.864C222.978 42.867 223.107 42.84 223.236 42.8499C223.365 42.8598 223.489 42.9063 223.592 42.9839L260.392 64.1759C260.757 64.4158 261.044 64.7581 261.216 65.1599Z"
        fill="#37474F" />
    <path
        d="M260.152 66.9279V97.3999C260.169 97.5629 260.145 97.7276 260.084 97.8795C260.023 98.0314 259.925 98.1661 259.8 98.2719H259.728C259.617 98.3168 259.497 98.333 259.378 98.319C259.259 98.3051 259.146 98.2613 259.048 98.1919L222.488 77.1279C222.152 76.8884 221.877 76.5731 221.685 76.2076C221.493 75.8421 221.39 75.4366 221.384 75.0239V44.5999C221.367 44.4408 221.389 44.28 221.448 44.131C221.506 43.9821 221.6 43.8493 221.72 43.7439C221.752 43.715 221.791 43.6932 221.832 43.6799C221.94 43.6411 222.057 43.6288 222.171 43.6441C222.285 43.6594 222.394 43.7019 222.488 43.7679L259.048 64.7999C259.403 65.0316 259.681 65.3628 259.848 65.7519C260.038 66.1156 260.142 66.5179 260.152 66.9279Z"
        fill="#455A64" />
    <path
        d="M221.904 43.7119C222.023 43.7153 222.14 43.7513 222.24 43.8159L259.04 65.0079C259.364 65.2223 259.619 65.5249 259.776 65.8799C259.945 66.2095 260.035 66.5736 260.04 66.9439V97.5999C260.059 97.7267 260.047 97.856 260.005 97.9771C259.963 98.0983 259.893 98.2076 259.8 98.2959H259.736C259.683 98.3088 259.629 98.3088 259.576 98.2959C259.458 98.2866 259.343 98.2511 259.24 98.1919L222.44 76.9919C222.135 76.7683 221.885 76.4774 221.71 76.1416C221.535 75.8059 221.44 75.4344 221.432 75.0559V44.4799C221.419 44.3515 221.434 44.2218 221.477 44.1C221.52 43.9783 221.589 43.8676 221.68 43.7759H221.752C221.799 43.7647 221.849 43.7647 221.896 43.7759M221.896 43.5679C221.819 43.5676 221.742 43.584 221.672 43.6159L221.56 43.6799C221.441 43.7881 221.35 43.9227 221.293 44.0728C221.236 44.2229 221.215 44.3843 221.232 44.5439V75.1279C221.239 75.5426 221.343 75.9499 221.535 76.3178C221.726 76.6857 222 77.0041 222.336 77.2479L259.136 98.4399C259.266 98.5193 259.415 98.5635 259.568 98.5679C259.653 98.569 259.737 98.5527 259.816 98.5199L259.888 98.4799C260.014 98.3729 260.112 98.2368 260.173 98.0835C260.234 97.9301 260.257 97.7641 260.24 97.5999V66.9439C260.23 66.5434 260.132 66.15 259.952 65.7919C259.78 65.4034 259.503 65.0708 259.152 64.8319L222.352 43.6399C222.22 43.5573 222.068 43.5105 221.912 43.5039L221.896 43.5679Z"
        fill="#37474F" />
    <path
        d="M255.568 44.5039C255.568 45.3759 254.952 45.7279 254.2 45.3039C253.796 45.0428 253.461 44.6884 253.223 44.2708C252.985 43.8531 252.851 43.3843 252.832 42.9039C252.832 42.0319 253.44 41.6799 254.2 42.1039C254.601 42.368 254.934 42.723 255.172 43.14C255.409 43.5571 255.545 44.0244 255.568 44.5039Z"
        fill="white" />
    <path
        d="M260.656 47.64C260.656 48.512 260.04 48.872 259.28 48.44C258.878 48.1774 258.544 47.8227 258.306 47.4053C258.068 46.988 257.933 46.5199 257.912 46.04C257.912 45.168 258.528 44.808 259.28 45.24C259.684 45.5017 260.019 45.856 260.259 46.2734C260.498 46.6908 260.634 47.1593 260.656 47.64Z"
        fill="white" />
    <path
        d="M265.736 50.784C265.736 51.656 265.128 52.008 264.368 51.584C263.967 51.3199 263.634 50.9649 263.396 50.5478C263.159 50.1308 263.023 49.6635 263 49.184C263 48.312 263.616 47.96 264.368 48.384C264.772 48.6451 265.107 48.9994 265.345 49.4171C265.583 49.8348 265.717 50.3036 265.736 50.784Z"
        fill="white" />
</svg>
    