<svg version="1.1" id="Layer_1" xmlns="http://www.w3.org/2000/svg"
    xmlns:xlink="http://www.w3.org/1999/xlink" viewBox="0 0 511.998 511.998" xml:space="preserve"
    width="64px" height="64px" fill="#18181B" stroke="#18181B"><g id="SVGRepo_bgCarrier" strokeWidth="0"></g><g id="SVGRepo_tracerCarrier" strokeLinecap="round" strokeLinejoin="round"></g><g id="SVGRepo_iconCarrier"> <circle cx="255.999" cy="255.999" r="255.999"></circle> <g> <rect x="113.42" y="376.004" style="fill:#E6E5E5;" width="285.139" height="8"></rect> <rect x="157.301" y="400.003" style="fill:#E6E5E5;" width="197.406" height="8"></rect> </g> <circle style="fill:#E6E5E5;" cx="193.387" cy="224.81" r="27.404"></circle> <path style="fill:#E21B1B;" d="M240.655,312.952v-24.256c0-25.535-27.864-26-27.864-26H174c0,0-27.864,0.312-27.864,26v24.256 H240.655z"></path> <circle style="fill:#E6E5E5;" cx="318.611" cy="224.81" r="27.404"></circle> <path style="fill:#E21B1B;" d="M365.879,312.952v-24.256c0-25.535-27.864-26-27.864-26h-38.816c0,0-27.864,0.312-27.864,26v24.256 H365.879z"></path> <circle style="fill:#E6E5E5;" cx="255.999" cy="94.796" r="27.404"></circle> <path style="fill:#E21B1B;" d="M303.263,182.944v-24.256c0-25.536-27.864-26-27.864-26h-38.792c0,0-27.864,0.312-27.864,26v24.256 H303.263z"></path> </g></svg>