<svg width="100" height="100" viewBox="0 0 100 100" fill="none" xmlns="http://www.w3.org/2000/svg">
	<g clip-path="url(#clip0_452_35)">
		<path
			d="M0 30V32.7367H19.4648V30H0ZM22.2226 30V32.7367H49.9609C49.9609 32.7367 47.1276 30 43.375 30H22.2226ZM55.4023 30V32.7367H72.1835L71.1875 30H55.4023ZM84.2148 30L83.2187 32.7367H99.8476V30H84.2148ZM0 35.3222V38.0589H19.4648V35.3222H0ZM22.2226 35.3261V38.059H53.1796C53.1796 38.059 52.8181 35.9527 52.1874 35.3261H22.2226ZM55.4023 35.3261V38.059H74.0234L73.1015 35.3261H55.4023ZM82.2226 35.3261L81.3007 38.059H99.8476V35.3261H82.2226ZM5.5937 40.6444V43.385H14.0234V40.6444H5.5937ZM27.8164 40.6444V43.385H36.2461V40.6444H27.8164ZM44.4453 40.6444V43.385H52.875C52.875 43.385 53.4102 41.9377 53.4102 40.6444H44.4453ZM60.9961 40.6444V43.385H75.9414L74.9453 40.6444H60.9961ZM80.3867 40.6444L79.3867 43.385H94.4062V40.6444H80.3867ZM5.5937 45.9706V48.7073H14.0234V45.9706H5.5937ZM27.8164 45.9706V48.7073H49.3476C49.3476 48.7073 51.1488 47.3031 51.7226 45.9706H27.8164ZM60.9961 45.9706V48.7073H69.4258V47.1839L69.961 48.7073H85.4024L85.9766 47.1839V48.7073H94.4063V45.9706H78.582L77.7422 48.2886L76.8984 45.9706H60.9961ZM5.5937 51.2928V54.0295H14.0234V51.2928H5.5937ZM27.8164 51.2928V54.0295H51.7226C51.1487 52.7014 49.3476 51.2928 49.3476 51.2928H27.8164ZM60.9961 51.2928V54.0295H69.4258V51.2928H60.9961ZM70.957 51.2928L71.9765 54.0295H83.5546L84.5234 51.2928H70.957ZM85.9765 51.2928V54.0295H94.4062V51.2928H85.9765ZM5.5937 56.615V59.3516H14.0234V56.615H5.5937ZM27.8164 56.615V59.3516H36.2461V56.615H27.8164ZM44.4453 56.615V59.3516H53.4101C53.4101 58.0601 52.8749 56.615 52.8749 56.615H44.4453ZM60.9961 56.615V59.3516H69.4258V56.615H60.9961ZM72.8711 56.615L73.8594 59.3516H81.6211L82.6172 56.615H72.8711ZM85.9765 56.615V59.3516H94.4062V56.615H85.9765ZM0.1523 61.9372V64.6778H19.6171V61.9372H0.1523ZM22.2226 61.9372V64.6778H52.1874C52.8181 64.0503 53.1796 61.9372 53.1796 61.9372H22.2226ZM55.5547 61.9372V64.6778H69.4258V61.9372H55.5547ZM74.789 61.9372L75.8046 64.6778H79.7538L80.7069 61.9372H74.789ZM85.9765 61.9372V64.6778H100V61.9372H85.9765ZM0.1523 67.2633V70H19.6171V67.2633H0.1523ZM22.2226 67.2633V69.9961H43.375C47.1276 69.9961 49.9609 67.2633 49.9609 67.2633H22.2226ZM55.5547 67.2633V70H69.4258V67.2633H55.5547ZM76.7148 67.2633L77.6914 69.9923L77.8594 69.9961L78.8516 67.2633H76.7148ZM85.9765 67.2633V70H100V67.2633H85.9765Z"
			fill="#1F70C1" stroke="black" strokeWidth="0.1" />
	</g>
	<defs>
		<clipPath id="clip0_452_35">
			<rect width="100" height="100" fill="white" />
		</clipPath>
	</defs>
</svg>
	