<svg width="64" height="64" viewBox="0 0 64 64" fill="none" xmlns="http://www.w3.org/2000/svg">
    <g clip-path="url(#clip0_456_45)">
        <path
            d="M62.9589 32C62.9589 14.9019 49.0981 1.04126 31.9999 1.04126C14.9016 1.04126 1.04112 14.9019 1.04112 32C1.04112 49.0981 14.9019 62.9589 32 62.9589C49.0981 62.9589 62.9589 49.0981 62.9589 32Z"
            fill="#FFD782" />
        <path
            d="M35.563 35.5009V39.1542C35.563 40.7278 34.3827 41.9082 32.809 41.9082C31.3477 41.9082 30.055 40.7279 30.055 39.1542V33.309C30.055 33.2528 30.1112 33.2528 30.1112 33.1965C30.055 33.1403 30.055 33.1403 30.055 33.084C30.055 31.6227 31.3477 30.33 32.809 30.33C36.3497 30.33 39.2161 27.5199 39.2161 24.0353C39.2161 20.4945 36.3497 17.7405 32.809 17.7405C30.5046 17.7405 28.4812 18.9769 27.4135 20.8317C26.6267 22.1805 24.9405 22.6302 23.5916 21.8434C22.2989 21.0567 21.8494 19.4267 22.6361 18.0778C24.6594 14.5933 28.4812 12.2327 32.809 12.2327C39.3285 12.2327 44.6679 17.5157 44.6679 24.0353C44.668 29.5995 40.79 34.2644 35.563 35.5009ZM35.563 47.8094V48.8212C35.563 50.3948 34.3827 51.5752 32.809 51.5752C31.3477 51.5752 30.055 50.3949 30.055 48.8212V47.8094C30.055 46.2919 31.3477 45.0554 32.809 45.0554C34.3829 45.0554 35.563 46.2919 35.563 47.8094Z"
            fill="#515262" />
        <path opacity="0.1"
            d="M9.37 32.0001C9.37 16.3145 21.0359 3.35538 36.1645 1.32101C34.8022 1.13776 33.4125 1.04126 32.0001 1.04126C14.9019 1.04126 1.04112 14.902 1.04112 32.0001C1.04112 49.0983 14.9019 62.959 32.0001 62.959C33.4126 62.959 34.8022 62.8625 36.1646 62.6793C21.036 60.645 9.37 47.6859 9.37 32.0001Z"
            fill="black" />
        <path
            d="M51.6041 8.01837C51.9533 7.56137 51.8658 6.90812 51.409 6.55899C45.7929 2.26824 39.0814 0.000244141 31.9999 0.000244141C23.4525 0.000244141 15.4165 3.32887 9.3725 9.37274C3.32863 15.4169 0 23.4527 0 32.0002C0 40.5581 3.33575 48.6011 9.39287 54.6475C9.59612 54.8502 9.86225 54.9517 10.1285 54.9517C10.3951 54.9517 10.662 54.8499 10.8654 54.6462C11.2715 54.2392 11.271 53.58 10.8641 53.1739C5.201 47.5209 2.08238 40.0014 2.08238 32.0004C2.08238 24.009 5.19438 16.496 10.8451 10.8452C16.4959 5.19462 24.0089 2.08262 32.0001 2.08262C38.6206 2.08262 44.8951 4.20274 50.1449 8.21374C50.6017 8.56274 51.255 8.47524 51.6041 8.01837Z"
            fill="black" />
        <path
            d="M53.1819 9.39841C52.7748 9.80441 52.774 10.4637 53.1801 10.8707C58.8146 16.5188 61.9178 24.0227 61.9178 32C61.9178 39.9914 58.8058 47.5044 53.155 53.155C47.5043 58.8058 39.9913 61.9178 32 61.9178C25.402 61.9178 19.1449 59.8108 13.905 55.8248C13.4475 55.4767 12.7943 55.5655 12.446 56.023C12.0979 56.4807 12.1868 57.1338 12.6443 57.482C18.2495 61.7462 24.9426 64 32 64C40.5475 64 48.5834 60.6714 54.6274 54.6275C60.6714 48.5833 64 40.5474 64 31.9999C64 23.4672 60.6809 15.441 54.6543 9.39991C54.2483 8.99316 53.589 8.99204 53.1819 9.39841Z"
            fill="black" />
        <path
            d="M32.8093 44.0142C30.7521 44.0142 29.0141 45.7522 29.0141 47.8093V48.821C29.0141 50.9137 30.7165 52.6162 32.8093 52.6162C34.9729 52.6162 36.6044 50.9847 36.6044 48.821V47.8093C36.6041 45.6813 34.9373 44.0142 32.8093 44.0142ZM34.5219 48.8209C34.5219 49.8133 33.8015 50.5338 32.809 50.5338C31.8645 50.5338 31.0961 49.7654 31.0961 48.8209V47.8092C31.0961 46.8968 31.8965 46.0963 32.809 46.0963C33.7854 46.0963 34.5219 46.8327 34.5219 47.8092V48.8209Z"
            fill="black" />
        <path
            d="M36.6041 36.2977C42.0052 34.6557 45.709 29.7257 45.709 24.0354C45.709 16.9533 39.922 11.1917 32.809 11.1917C28.2579 11.1917 24.0149 13.6299 21.7369 17.5533C20.6795 19.3659 21.2566 21.641 23.0504 22.7329C23.0559 22.7363 23.0615 22.7395 23.0671 22.7429C23.6604 23.089 24.3314 23.2719 25.0072 23.2719C26.3775 23.2718 27.6132 22.5558 28.3157 21.3514C29.2284 19.7665 30.95 18.7819 32.8091 18.7819C35.8182 18.7819 38.1751 21.0895 38.1751 24.0355C38.1751 26.9325 35.7679 29.2892 32.8091 29.2892C30.7874 29.2892 29.014 31.0625 29.014 33.0843C29.014 33.1253 29.0157 33.1645 29.019 33.2023C29.0155 33.24 29.014 33.2759 29.014 33.3092V39.1543C29.014 41.2469 30.7164 42.9494 32.8091 42.9494C34.9727 42.9494 36.6043 41.3179 36.6043 39.1543V36.2978L36.6041 36.2977ZM35.3235 34.4877C34.8538 34.5987 34.5221 35.018 34.5221 35.5008V39.154C34.5221 40.1464 33.8017 40.8669 32.8092 40.8669C31.8647 40.8669 31.0964 40.0985 31.0964 39.154V33.5474C31.1395 33.4177 31.1526 33.296 31.1526 33.1965C31.1526 33.0944 31.1376 32.9938 31.1087 32.8975C31.215 32.0897 31.9914 31.3713 32.8092 31.3713C36.9162 31.3713 40.2575 28.0804 40.2575 24.0354C40.2575 22.0469 39.4797 20.193 38.0676 18.8152C36.6696 17.4509 34.8021 16.6997 32.8091 16.6997C30.2076 16.6997 27.7944 18.084 26.5142 20.3073C26.192 20.8596 25.6286 21.1894 25.0071 21.1897C24.7027 21.1897 24.3979 21.1065 24.1247 20.9493C23.3026 20.4433 23.0492 19.4362 23.5366 18.6008C25.4444 15.3152 28.9974 13.274 32.8091 13.274C38.774 13.274 43.6269 18.1017 43.6269 24.0355C43.6269 29.033 40.2124 33.3312 35.3235 34.4877Z"
            fill="black" />
    </g>
    <defs>
        <clipPath id="clip0_456_45">
            <rect width="64" height="64" fill="white" />
        </clipPath>
    </defs>
</svg>
    