<?xml version="1.0" encoding="utf-8"?>
<!-- Uploaded to: SVG Repo, www.svgrepo.com, Generator: SVG Repo Mixer Tools -->
<svg width="800px" height="800px" viewBox="0 0 1024 1024" class="icon"  version="1.1" xmlns="http://www.w3.org/2000/svg"><path d="M892.87203 849.309805l-85.165757-132.98325c73.449438-61.147455 91.812821-169.05473 38.963956-251.592173v-0.010239c-19.235734-30.021342-45.560849-52.718831-75.318028-67.711584V156.550018c0-34.755787-28.275617-63.031404-63.031405-63.031404H189.695234c-34.755787 0-63.031404 28.275617-63.031404 63.031404v714.367863c0 34.766026 28.275617 63.042667 63.031404 63.042667h518.624538c34.755787 0 63.031404-28.275617 63.031405-63.042667V766.165197l73.105412 114.150928 48.415441-31.00632z m-82.472939-361.348585c44.413074 69.406115 24.130929 162.008351-45.253683 206.431664-6.959349 4.457997-14.240197 8.146032-21.676676 11.360008l-1.907499 0.790439c-16.52039 6.842626-33.645896 10.469227-50.66287 11.217688-0.499656 0.021502-0.998288 0.027645-1.498968 0.043003a148.948694 148.948694 0 0 1-24.142192-1.132417c-0.732078-0.097269-1.46518-0.263139-2.197258-0.370647a149.295791 149.295791 0 0 1-22.110803-4.913625c-0.565185-0.172013-1.152895-0.286688-1.716032-0.46382-7.393476-2.346745-14.565793-5.363111-21.52207-8.839202-0.897947-0.447438-1.807158-0.871326-2.69589-1.337195a148.804326 148.804326 0 0 1-19.5644-12.309149c-0.782248-0.582591-1.545043-1.191803-2.317053-1.789752-6.189387-4.791783-12.075704-10.049434-17.518678-15.861007-0.542659-0.582591-1.037196-1.216376-1.572688-1.808182-5.550482-6.119763-10.7467-12.670581-15.329611-19.830611v-0.010238c-0.475083-0.740269-0.842658-1.523541-1.303406-2.270978-2.20033-3.572336-4.330011-7.170269-6.19553-10.849089-0.452557-0.888732-0.789416-1.817396-1.221495-2.712272-1.763131-3.656294-3.473019-7.328971-4.913626-11.069225-0.101365-0.260067-0.167917-0.53242-0.267234-0.794535-20.888285-55.156702-7.099621-118.065241 34.962612-159.411777 0.184299-0.17918 0.343002-0.379861 0.527301-0.559042 2.959029-2.878142 6.135121-5.585294 9.368551-8.242277 0.670645-0.549826 1.273713-1.164158 1.955621-1.701697a150.194762 150.194762 0 0 1 12.320412-8.800294c5.714304-3.658342 11.620075-6.761739 17.607756-9.551827 2.247428-1.042315 4.566529-1.868591 6.854912-2.795207 3.774041-1.532756 7.566513-2.987697 11.409154-4.19281 2.776777-0.869279 5.587342-1.596237 8.405075-2.299646a146.98181 146.98181 0 0 1 10.511207-2.235142c2.927288-0.509895 5.857648-0.976787 8.808485-1.312621 3.597933-0.406482 7.19689-0.60614 10.800967-0.750508 2.879166-0.116723 5.755259-0.298975 8.641592-0.249828 2.754252 0.05017 5.492121 0.305118 8.236133 0.505799 3.252884 0.235494 6.508839 0.431056 9.75046 0.880542 2.753228 0.380885 5.463452 0.990097 8.189035 1.522517 3.219095 0.629689 6.444334 1.207161 9.631689 2.050843 2.563809 0.678836 5.064137 1.582927 7.590062 2.396915 3.303054 1.064841 6.616347 2.080535 9.863087 3.382917 27.89678 11.176732 52.740333 30.715536 70.153551 57.882285zM189.695234 136.605756h518.624538c11.003696 0 19.944262 8.951829 19.944262 19.944262v120.141681H169.750972V156.550018c0-10.992433 8.940567-19.944262 19.944262-19.944262z m538.5688 734.312125c0 11.003696-8.941591 19.955525-19.944262 19.955525H189.695234c-11.003696 0-19.944262-8.951829-19.944262-19.955525V319.778841h558.513062v61.401379c-0.373718-0.08703-0.75358-0.119795-1.127297-0.203753-4.287008-0.972691-8.627258-1.659718-12.97058-2.340602-1.801014-0.280545-3.588718-0.689075-5.394851-0.916378-43.230486-5.526933-88.546627 3.426944-128.052219 28.717936a196.346393 196.346393 0 0 0-15.87227 11.337482c-0.891804 0.706481-1.675076 1.50204-2.550498 2.220807-4.150831 3.404419-8.21668 6.884605-12.041915 10.594142-0.230374 0.225255-0.429008 0.472011-0.657335 0.697266-26.495081 25.94423-44.975187 58.982962-53.094597 96.049658-8.200298 37.361576-5.161406 75.423489 8.334426 110.302142l0.003072 0.008192c2.03958 5.269938 4.39042 10.442606 6.90713 15.553841 0.357336 0.727982 0.627642 1.484634 0.995217 2.210569a195.473019 195.473019 0 0 0 9.701313 16.977042c5.019086 7.83989 10.695506 15.072616 16.663734 22.001248 1.127298 1.305454 2.228998 2.62217 3.385989 3.890765 6.055258 6.661398 12.482186 12.898907 19.355528 18.5999 0.653239 0.540611 1.344361 1.017742 2.003744 1.549139a189.879533 189.879533 0 0 0 21.128897 14.779785c0.809893 0.489417 1.587022 1.025933 2.404083 1.503063 7.62897 4.451853 15.583535 8.350809 23.820692 11.727583 1.40989 0.579519 2.840258 1.06996 4.263458 1.615691 7.341258 2.808517 14.866815 5.216696 22.606364 7.138528 1.14368 0.283616 2.253572 0.657334 3.401348 0.920473 0.627642 0.144368 1.224567 0.364503 1.854256 0.502728 8.16139 1.788728 16.356568 2.878142 24.551746 3.608172 1.450846 0.125938 2.904763 0.144368 4.360728 0.236517 4.228646 0.280545 8.461388 0.689075 12.680819 0.689075 3.062441 0 6.073688-0.504775 9.123843-0.651191a189.848817 189.848817 0 0 0 8.931351-0.637881c7.026925-0.670645 13.9617-1.771322 20.863711-3.216023 1.470299-0.309213 2.954933-0.336858 4.421137-0.680884v114.952629z" fill="#22C67F" /><path d="M205.656582 164.881373h86.174285v86.174285h-86.174285zM205.656582 381.418785h243.353993V450.031388H205.656582zM205.656582 575.827987h243.353993v68.613628H205.656582zM205.656582 771.191451h66.706129v66.706128h-66.706129zM343.298511 771.191451h66.706128v66.706128h-66.706128zM480.938391 771.191451h66.707153v66.706128h-66.707153zM618.580319 769.933095h66.707153v66.706129h-66.707153z" fill="#74E8AE" /></svg>