<svg height="200px" width="200px" version="1.1" id="Layer_1" xmlns="http://www.w3.org/2000/svg" xmlns:xlink="http://www.w3.org/1999/xlink" viewBox="-51.19 -51.19 614.29 614.29" xml:space="preserve" fill="#000000"><g id="SVGRepo_bgCarrier" strokeWidth="0"></g><g id="SVGRepo_tracerCarrier" strokeLinecap="round" strokeLinejoin="round"></g><g id="SVGRepo_iconCarrier"> <polygon style="fill:#FECD57;" points="320.543,225.322 290.145,225.322 298.346,152.641 307.312,73.274 259.982,137.614 173.072,255.719 148.079,289.693 190.246,289.693 221.346,289.693 215.176,362.78 208.639,440.271 253.789,376.963 337.896,259.031 361.951,225.322 "></polygon> <g> <path style="fill:#FECD57;" d="M255.984,0.031C115.019,0.031,0.679,113.996,0.062,254.812C0.023,255.187,0,255.562,0,255.953 c0,5.889,4.78,10.669,10.668,10.669s10.661-4.78,10.661-10.669h0.055c0-31.678,6.201-62.402,18.432-91.315 c11.809-27.93,28.726-53.016,50.281-74.571c21.548-21.556,46.642-38.473,74.571-50.281c28.913-12.231,59.63-18.433,91.316-18.433 c31.678,0,62.387,6.201,91.315,18.433c27.929,11.809,53.015,28.726,74.571,50.281c7.936,7.95,15.245,16.37,21.899,25.242 l20.291-8.372C417.623,42.206,341.724,0.031,255.984,0.031z"></path> <path style="fill:#FECD57;" d="M501.237,245.284c-5.889,0-10.669,4.78-10.669,10.669c0,31.678-6.186,62.403-18.416,91.301 c-11.824,27.944-28.726,53.03-50.281,74.586c-21.557,21.541-46.643,38.473-74.587,50.281c-28.913,12.231-59.622,18.433-91.3,18.433 c-31.686,0-62.403-6.201-91.316-18.433c-27.929-11.809-53.023-28.74-74.571-50.281c-8.013-8.013-15.378-16.51-22.087-25.477 l-20.275,8.373c46.423,64.871,122.392,107.139,208.249,107.139c141.332,0,255.922-114.574,255.922-255.922 C511.906,250.064,507.127,245.284,501.237,245.284z"></path> </g> <polygon style="fill:#F6BB42;" points="307.312,73.274 148.079,289.693 221.346,289.693 208.639,440.271 249.931,267.122 189.754,266.122 "></polygon> <g> <path style="fill:#F6BB42;" d="M466.732,123.884c1.109-1.421,1.859-3.124,2.125-4.998c0.077-0.5,0.124-1.016,0.124-1.531V42.69 c0-5.889-4.78-10.669-10.653-10.669c-5.904,0-10.668,4.78-10.668,10.669v63.996h-63.715c-5.889,0-10.669,4.779-10.669,10.668 s4.78,10.653,10.669,10.653h74.383c0.516,0,1.031-0.047,1.531-0.125c1.875-0.266,3.577-1.016,4.998-2.124 c0.094-0.062,0.172-0.125,0.25-0.188c0.125-0.094,0.219-0.203,0.344-0.312c0.125-0.125,0.281-0.234,0.406-0.375 c0.141-0.125,0.25-0.266,0.375-0.406c0.109-0.125,0.219-0.219,0.312-0.344C466.607,124.056,466.67,123.977,466.732,123.884z"></path> <path style="fill:#F6BB42;" d="M128.023,383.586L128.023,383.586L128.023,383.586H53.64c-0.422,0-0.835,0.031-1.242,0.078 c-4.194,0.484-7.638,3.406-8.896,7.295c-0.016,0.047-0.031,0.078-0.047,0.125c-0.062,0.203-0.109,0.406-0.164,0.625 c-0.031,0.125-0.07,0.25-0.101,0.391c-0.141,0.688-0.211,1.422-0.211,2.155v74.962c0,5.889,4.772,10.668,10.661,10.668 s10.661-4.779,10.661-10.668v-64.309h63.723l0,0l0,0c5.889,0,10.661-4.765,10.661-10.653S133.912,383.586,128.023,383.586z"></path> </g> </g></svg>