<svg width="24" height="24" viewBox="0 0 24 24" fill="none" xmlns="http://www.w3.org/2000/svg">
    <mask id="mask0_464_41" style="mask-type:alpha" maskUnits="userSpaceOnUse" x="0" y="0"
        width="24" height="24">
        <rect width="24" height="24" fill="#3F99E2" />
    </mask>
    <g mask="url(#mask0_464_41)">
        <path
            d="M12 22C9.31667 19.7167 7.3125 17.5958 5.9875 15.6375C4.6625 13.6792 4 11.8667 4 10.2C4 7.7 4.80417 5.70833 6.4125 4.225C8.02083 2.74167 9.88333 2 12 2H12.5C12.6667 2 12.8333 2.01667 13 2.05V4.075C12.8333 4.04167 12.6708 4.02083 12.5125 4.0125C12.3542 4.00417 12.1833 4 12 4C10.3167 4 8.89583 4.57917 7.7375 5.7375C6.57917 6.89583 6 8.38333 6 10.2C6 11.3833 6.49167 12.7375 7.475 14.2625C8.45833 15.7875 9.96667 17.4833 12 19.35C14.0333 17.4833 15.5417 15.7875 16.525 14.2625C17.5083 12.7375 18 11.3833 18 10.2V10H20V10.2C20 11.8667 19.3375 13.6792 18.0125 15.6375C16.6875 17.5958 14.6833 19.7167 12 22ZM12 12C12.55 12 13.0208 11.8042 13.4125 11.4125C13.8042 11.0208 14 10.55 14 10C14 9.45 13.8042 8.97917 13.4125 8.5875C13.0208 8.19583 12.55 8 12 8C11.45 8 10.9792 8.19583 10.5875 8.5875C10.1958 8.97917 10 9.45 10 10C10 10.55 10.1958 11.0208 10.5875 11.4125C10.9792 11.8042 11.45 12 12 12ZM18 8H20V5H23V3H20V0H18V3H15V5H18V8Z"
            fill="#3F99E2" />
    </g>
</svg>
    