<svg width="64" height="64" viewBox="0 0 64 64" fill="none" xmlns="http://www.w3.org/2000/svg">
    <g clip-path="url(#clip0_457_66)">
        <path
            d="M0 32C0 40.4869 3.37142 48.6263 9.37258 54.6274C15.3737 60.6286 23.5131 64 32 64C40.4869 64 48.6263 60.6286 54.6274 54.6274C60.6286 48.6263 64 40.4869 64 32C64 23.5131 60.6286 15.3737 54.6274 9.37258C48.6263 3.37142 40.4869 0 32 0C23.5131 0 15.3737 3.37142 9.37258 9.37258C3.37142 15.3737 0 23.5131 0 32Z"
            fill="#8DD9FF" stroke="black" strokeWidth="0.0625" />
        <path
            d="M19.1779 2.68025C17.6416 5.35413 16.75 8.44513 16.75 11.75C16.75 21.8291 24.9207 30 35 30C45.0793 30 53.25 21.8291 53.25 11.75C53.25 10.3461 53.0765 8.98525 52.7764 7.67238C47.1851 2.89263 39.9324 0 32 0C27.439 0 23.1044 0.960625 19.1779 2.68025Z"
            fill="#E7E008" stroke="black" strokeWidth="0.0625" />
        <path
            d="M26.4201 11.75C26.4201 12.8768 26.6421 13.9925 27.0732 15.0334C27.5044 16.0744 28.1364 17.0202 28.9331 17.8169C29.7298 18.6136 30.6757 19.2456 31.7166 19.6768C32.7576 20.108 33.8733 20.3299 35 20.3299C36.1267 20.3299 37.2424 20.108 38.2834 19.6768C39.3243 19.2456 40.2702 18.6136 41.0669 17.8169C41.8636 17.0202 42.4956 16.0744 42.9268 15.0334C43.358 13.9925 43.5799 12.8768 43.5799 11.75C43.5799 9.47452 42.6759 7.29219 41.0669 5.68315C39.4579 4.07411 37.2755 3.17017 35 3.17017C32.7245 3.17017 30.5422 4.07411 28.9331 5.68315C27.3241 7.29219 26.4201 9.47452 26.4201 11.75Z"
            fill="#E7E008" stroke="black" strokeWidth="0.0625" />
        <path
            d="M43.5106 38.3021C43.5106 36.7743 42.2721 35.5357 40.7443 35.5357C40.5136 35.5357 40.2932 35.5722 40.079 35.6253C39.3571 34.8458 38.3338 34.3501 37.1875 34.3501C35.0049 34.3501 33.2356 36.1195 33.2356 38.302H43.5106V38.3021Z"
            fill="#FFF8DB" stroke="black" strokeWidth="0.0625" />
        <path
            d="M21.4147 38.3021C21.4147 36.214 19.722 34.5213 17.6339 34.5213C17.3187 34.5213 17.0174 34.5711 16.7247 34.6438C15.7381 33.5784 14.3394 32.9009 12.7727 32.9009C9.78974 32.9009 7.37137 35.3191 7.37137 38.3023H21.4147V38.3021ZM34.1359 36.4686C33.9435 36.4686 33.7617 36.5065 33.5875 36.5614C33.0355 35.768 32.12 35.2463 31.0802 35.2463C30.0405 35.2463 29.1249 35.7679 28.573 36.5614C28.3987 36.5064 28.217 36.4686 28.0246 36.4686C27.012 36.4686 26.1912 37.2895 26.1912 38.302H35.9695C35.9692 37.2895 35.1484 36.4686 34.1359 36.4686ZM54.3961 36.826C54.2412 36.826 54.0949 36.8565 53.9546 36.9008C53.5102 36.262 52.7731 35.842 51.936 35.842C51.0989 35.842 50.3617 36.262 49.9174 36.9008C49.7771 36.8565 49.6307 36.826 49.4759 36.826C48.6606 36.826 47.9999 37.4869 47.9999 38.302H55.8721C55.8722 37.4869 55.2114 36.826 54.3961 36.826Z"
            fill="#FFF8DB" stroke="black" strokeWidth="0.0625" />
        <path
            d="M61.181 36.4912C60.991 36.4912 60.8115 36.5286 60.6394 36.5828C60.0942 35.7992 59.1899 35.2839 58.1629 35.2839C57.1359 35.2839 56.2316 35.7992 55.6864 36.5828C55.5142 36.5286 55.3347 36.4912 55.1447 36.4912C54.1446 36.4912 53.3339 37.3019 53.3339 38.3021H62.9917C62.9919 37.3019 62.1811 36.4912 61.181 36.4912Z"
            fill="#FFF8DB" stroke="black" strokeWidth="0.0625" />
        <path
            d="M62.9919 40H5.83337L11 52C11 52 25.7671 60.6666 30.0502 61.6666C31.8116 62.0779 34.8966 62.7709 37.9188 63.4446C50.1425 61.1575 59.9215 51.9291 62.9919 40Z"
            fill="#57B9E7" stroke="black" strokeWidth="0.0625" />
        <path
            d="M59.3479 48.6233C53.6971 46.3427 43.4883 44.8167 31.8119 44.8167C21.9279 44.8167 13.0883 45.9092 7.17801 47.6275L8.79988 51.3315C8.79988 51.3315 19.7781 57.666 26.2719 60.5017C28.0728 60.5783 29.9218 60.6204 31.8119 60.6204C37.8724 60.6204 43.5326 60.2068 48.3743 59.493C52.8571 56.8173 56.6329 53.0802 59.3479 48.6233Z"
            fill="#B3F4EF" stroke="black" strokeWidth="0.0625" />
        <path
            d="M58.1439 50.4446H16.524V53.375H55.8082C56.6431 52.4465 57.4211 51.4666 58.1439 50.4446Z"
            fill="#FFF8DB" stroke="black" strokeWidth="0.0625" />
        <path
            d="M56.367 52.7185H16.524C16.524 52.7185 24.5602 58.1249 24.6551 58.1249C24.7165 58.1249 36.693 59.1686 45.148 59.9061C46.2559 59.7819 47.3374 59.6459 48.3742 59.4931C51.4006 57.6866 54.094 55.3873 56.367 52.7185Z"
            fill="#FFF8DB" stroke="black" strokeWidth="0.0625" />
        <path
            d="M32 41.625C43.2288 41.625 53.4565 42.9735 61.1446 45.1839C61.8973 43.5238 62.5292 41.7973 62.9917 40H5.83337L7.55987 44.0099C14.5136 42.5064 22.9288 41.625 32 41.625Z"
            fill="#57B9E7" stroke="black" strokeWidth="0.0625" />
        <path
            d="M5.96488 40.5C5.73821 40.5001 5.51821 40.4232 5.34097 40.2819C5.16372 40.1406 5.03973 39.9433 4.98933 39.7223C4.93893 39.5013 4.9651 39.2697 5.06357 39.0656C5.16203 38.8614 5.32694 38.6967 5.53126 38.5986C9.90238 36.4985 15.1133 31.9072 15.1133 21.96C15.1133 21.4077 15.5605 20.96 16.1133 20.96C16.666 20.96 17.1133 21.4077 17.1133 21.96C17.1133 32.9472 11.2851 38.0527 6.39651 40.4013C6.26183 40.4661 6.11433 40.4998 5.96488 40.5Z"
            fill="#8C665B" stroke="black" strokeWidth="0.0625" />
        <path
            d="M16.5058 21.0228C16.5058 21.0228 10.479 20.8651 10.2694 27.0463C10.2694 27.0463 10.9528 26.4922 11.1921 25.9751C11.1921 25.9751 11.3469 26.2885 11.2373 26.6156C11.2373 26.6156 11.8008 26.0678 11.9486 25.4611C11.9486 25.4611 12.0505 25.6875 11.9506 26.0152C11.9506 26.0152 12.5391 25.5317 12.7015 25.1456C12.7015 25.1456 12.7974 25.3192 12.664 25.5612C12.664 25.5612 13.2224 25.0758 13.3618 24.3848C13.3618 24.3848 13.5321 24.5426 13.4884 24.9055C13.4884 24.9055 14.156 24.1138 14.2254 23.6587C14.2254 23.6587 14.4533 23.7538 14.323 24.0971C14.323 24.097 15.959 22.8811 16.5058 21.0228Z"
            fill="#43AB5F" stroke="black" strokeWidth="0.0625" />
        <path
            d="M16.5058 21.0229C16.5058 21.0229 21.611 24.2298 18.3616 29.4923C18.3616 29.4923 18.0995 28.6524 18.1868 28.0893C18.1868 28.0893 17.8842 28.2644 17.7944 28.5976C17.7944 28.5976 17.6285 27.8294 17.8416 27.2422C17.8416 27.2422 17.6314 27.3743 17.5331 27.7026C17.5331 27.7026 17.3109 26.9741 17.3896 26.5626C17.3896 26.5626 17.2136 26.6541 17.1906 26.9294C17.1906 26.9294 16.9946 26.2159 17.2612 25.5636C17.2612 25.5636 17.032 25.6006 16.8675 25.9268C16.8675 25.9268 16.7501 24.8979 16.9445 24.4806C16.9445 24.4806 16.702 24.4336 16.6204 24.7916C16.6202 24.7914 15.9318 22.8729 16.5058 21.0229Z"
            fill="#43AB5F" stroke="black" strokeWidth="0.0625" />
        <path
            d="M16.5058 21.023C16.5058 21.023 17.126 14.7564 11.1249 14.146C11.1249 14.146 11.6114 14.8929 12.0963 15.175C12.0963 15.175 11.7791 15.3162 11.4691 15.1812C11.4691 15.1812 11.9588 15.8029 12.538 15.9954C12.538 15.9954 12.3098 16.0872 11.9984 15.9624C11.9984 15.9624 12.4234 16.6059 12.7869 16.7995C12.7869 16.7995 12.6105 16.8882 12.3853 16.7341C12.3853 16.7341 12.8145 17.3464 13.4764 17.5354C13.4764 17.5354 13.3096 17.7029 12.9598 17.6344C12.9598 17.6344 13.6788 18.3797 14.1165 18.481C14.1165 18.481 14.0061 18.7122 13.6821 18.5547C13.6821 18.5547 14.7391 20.3356 16.5058 21.023Z"
            fill="#52C883" stroke="black" strokeWidth="0.0625" />
        <path
            d="M16.5058 21.0229C16.5058 21.0229 11.9906 15.9234 6.6745 20.5516C6.6745 20.5516 7.6635 20.6854 8.27925 20.4816C8.27925 20.4816 8.13712 20.8528 7.77975 21.0163C7.77975 21.0163 8.671 21.0562 9.291 20.7069C9.291 20.7069 9.18087 20.9669 8.8305 21.1389C8.8305 21.1389 9.68737 21.2494 10.1346 21.0836C10.1346 21.0836 10.0636 21.2976 9.75912 21.3755C9.75912 21.3755 10.5944 21.4596 11.278 21.0378C11.278 21.0378 11.2779 21.3011 10.9415 21.5468C10.9415 21.5468 12.1164 21.4832 12.5495 21.1869C12.5495 21.1869 12.6459 21.4491 12.2591 21.6082C12.2592 21.6083 14.5346 22.0147 16.5058 21.0229ZM16.5058 21.0229C16.5058 21.0229 23.0896 19.2781 24.9522 26.0761C24.9522 26.0761 24.0546 25.6398 23.6549 25.129C23.6549 25.129 23.5675 25.5167 23.7745 25.8508C23.7745 25.8508 23.0104 25.3903 22.6876 24.7561C22.6876 24.7561 22.6353 25.0336 22.8318 25.3709C22.8318 25.3709 22.0571 24.9883 21.7766 24.6024C21.7766 24.6024 21.7173 24.8199 21.9276 25.0534C21.9276 25.0534 21.1856 24.6608 20.85 23.931C20.85 23.931 20.7044 24.1503 20.8482 24.5412C20.8482 24.5412 19.9053 23.8375 19.7089 23.351C19.7089 23.351 19.4835 23.5158 19.7174 23.8624C19.7171 23.8624 17.5976 22.9406 16.5058 21.0229Z"
            fill="#34BE69" />
        <path
            d="M16.5058 21.0229C16.5058 21.0229 11.9906 15.9234 6.6745 20.5516C6.6745 20.5516 7.6635 20.6854 8.27925 20.4816C8.27925 20.4816 8.13712 20.8528 7.77975 21.0163C7.77975 21.0163 8.671 21.0562 9.291 20.7069C9.291 20.7069 9.18087 20.9669 8.8305 21.1389C8.8305 21.1389 9.68737 21.2494 10.1346 21.0836C10.1346 21.0836 10.0636 21.2976 9.75912 21.3755C9.75912 21.3755 10.5944 21.4596 11.278 21.0378C11.278 21.0378 11.2779 21.3011 10.9415 21.5468C10.9415 21.5468 12.1164 21.4832 12.5495 21.1869C12.5495 21.1869 12.6459 21.4491 12.2591 21.6082C12.2592 21.6083 14.5346 22.0147 16.5058 21.0229ZM16.5058 21.0229C16.5058 21.0229 23.0896 19.2781 24.9522 26.0761C24.9522 26.0761 24.0546 25.6398 23.6549 25.129C23.6549 25.129 23.5675 25.5167 23.7745 25.8508C23.7745 25.8508 23.0104 25.3903 22.6876 24.7561C22.6876 24.7561 22.6353 25.0336 22.8318 25.3709C22.8318 25.3709 22.0571 24.9883 21.7766 24.6024C21.7766 24.6024 21.7173 24.8199 21.9276 25.0534C21.9276 25.0534 21.1856 24.6608 20.85 23.931C20.85 23.931 20.7044 24.1503 20.8482 24.5412C20.8482 24.5412 19.9053 23.8375 19.7089 23.351C19.7089 23.351 19.4835 23.5158 19.7174 23.8624C19.7171 23.8624 17.5976 22.9406 16.5058 21.0229Z"
            stroke="black" strokeWidth="0.0625" />
        <path
            d="M16.5057 21.0228C16.5057 21.0228 17.7069 14.3184 24.655 15.5032C24.655 15.5032 23.8802 16.1324 23.2484 16.2788C23.2484 16.2788 23.5629 16.5218 23.9531 16.4754C23.9531 16.4754 23.2127 16.9733 22.5017 16.9978C22.5017 16.9978 22.731 17.1627 23.1197 17.127C23.1197 17.127 22.4457 17.6674 21.9774 17.7585C21.9774 17.7585 22.1492 17.9042 22.4499 17.8123C22.4499 17.8123 21.7804 18.3188 20.9772 18.3145C20.9772 18.3145 21.1145 18.5393 21.5295 18.574C21.5295 18.574 20.4932 19.1313 19.9692 19.1037C19.9692 19.1037 20.0234 19.3777 20.4365 19.3122C20.4364 19.3123 18.7051 20.8437 16.5057 21.0228Z"
            fill="#52C883" stroke="black" strokeWidth="0.0625" />
        <path
            d="M12.8823 51.2188V49.1897C16.0983 49.1897 23.7688 40.722 23.9719 36.9463L25.999 37.0553C25.7335 41.9532 17.1535 51.2188 12.8823 51.2188Z"
            fill="#8C665B" stroke="black" strokeWidth="0.0625" />
        <path
            d="M31.6269 11.7501C31.6269 12.6447 31.9822 13.5027 32.6148 14.1352C33.2474 14.7678 34.1054 15.1232 35 15.1232C35.8946 15.1232 36.7526 14.7678 37.3851 14.1352C38.0177 13.5027 38.3731 12.6447 38.3731 11.7501C38.3731 10.8555 38.0177 9.9975 37.3851 9.36492C36.7526 8.73234 35.8946 8.37695 35 8.37695C34.1054 8.37695 33.2474 8.73234 32.6148 9.36492C31.9822 9.9975 31.6269 10.8555 31.6269 11.7501Z"
            fill="#FFF8DB" stroke="black" strokeWidth="0.0625" />
        <path
            d="M25.9494 54C23.4714 52 20.8099 53.9166 19.3414 51C18.4753 49.2796 14.6081 50.45 12.7334 49C10.2554 47.0833 10.6348 44.6146 9.42939 42C7.88064 38.6406 3.99276 36.3067 0.261261 36.0281C2.24351 51.7982 15.6923 64 32 64C40.1124 64 47.5144 60.9753 53.1546 56H31.456C28.7944 56 27.4174 55.1848 25.9494 54Z"
            fill="#8C665B" stroke="black" strokeWidth="0.0625" />
        <path
            d="M25.278 37.3035C25.278 37.3035 18.678 36.524 17.826 43.2882C17.826 43.2882 18.632 42.7486 18.9467 42.2051C18.9467 42.2051 19.0851 42.5647 18.9319 42.9128C18.9319 42.9128 19.6055 42.3683 19.829 41.717C19.829 41.717 19.9181 41.9757 19.7754 42.3255C19.7754 42.3255 20.4701 41.854 20.6871 41.4463C20.6871 41.4463 20.7749 41.6466 20.6041 41.8988C20.6041 41.8988 21.266 41.4222 21.4885 40.6777C21.4885 40.6777 21.6596 40.8681 21.5751 41.262C21.5751 41.262 22.3876 40.4601 22.5096 39.9675C22.5096 39.9675 22.7502 40.0948 22.5726 40.4586C22.5726 40.4585 24.4907 39.2882 25.278 37.3035Z"
            fill="#43AB5F" stroke="black" strokeWidth="0.0625" />
        <path
            d="M25.278 37.3035C25.278 37.3035 30.5595 41.3375 26.4631 46.7873C26.4631 46.7873 26.26 45.839 26.4122 45.2296C26.4122 45.2296 26.0626 45.3915 25.9304 45.7481C25.9304 45.7481 25.8256 44.8882 26.1185 44.2651C26.1185 44.2651 25.8745 44.389 25.7335 44.7393C25.7335 44.7393 25.5629 43.9172 25.6907 43.4735C25.6907 43.4735 25.4884 43.5562 25.4354 43.8561C25.4354 43.8561 25.292 43.0531 25.6502 42.3637C25.6502 42.3637 25.3949 42.3812 25.1815 42.7228C25.1815 42.7228 25.1561 41.5816 25.4115 41.143C25.4115 41.143 25.1501 41.067 25.0244 41.4517C25.0245 41.4518 24.4617 39.2765 25.278 37.3035Z"
            fill="#43AB5F" stroke="black" strokeWidth="0.0625" />
        <path
            d="M25.278 37.3034C25.278 37.3034 26.5894 30.4866 20.0631 29.2129C20.0631 29.2129 20.522 30.0816 21.0259 30.4401C21.0259 30.4401 20.6636 30.5633 20.3369 30.384C20.3369 30.384 20.8117 31.1156 21.4282 31.3853C21.4282 31.3853 21.1685 31.4631 20.8392 31.2948C20.8392 31.2948 21.2411 32.0439 21.6206 32.293C21.6206 32.293 21.418 32.3726 21.1862 32.1808C21.1862 32.1808 21.5959 32.8961 22.3034 33.17C22.3034 33.17 22.1034 33.3371 21.7262 33.2266C21.7262 33.2266 22.4405 34.1173 22.9109 34.2724C22.9109 34.2724 22.7665 34.5151 22.4266 34.3096C22.4267 34.3098 23.4079 36.3709 25.278 37.3034Z"
            fill="#52C883" stroke="black" strokeWidth="0.0625" />
        <path
            d="M25.278 37.3035C25.278 37.3035 20.8346 31.2512 14.5331 35.7968C14.5331 35.7968 15.6054 36.0433 16.3019 35.8815C16.3019 35.8815 16.1085 36.2747 15.6997 36.4183C15.6997 36.4183 16.6741 36.5518 17.3899 36.2308C17.3899 36.2308 17.2429 36.5052 16.8409 36.6587C16.8409 36.6587 17.7704 36.8662 18.2781 36.7291C18.2781 36.7291 18.1787 36.9568 17.8366 37.0117C17.8366 37.0117 18.745 37.1881 19.538 36.794C19.538 36.794 19.5114 37.083 19.1174 37.3188C19.1174 37.3188 20.4135 37.3672 20.9187 37.0856C20.9187 37.0856 20.9981 37.3831 20.5576 37.5187C20.5575 37.5187 23.0144 38.1937 25.278 37.3035ZM25.278 37.3035C25.278 37.3035 32.6809 36.0505 34.0416 43.7003C34.0416 43.7003 33.1001 43.1311 32.7127 42.5302C32.7127 42.5302 32.5779 42.9471 32.7714 43.3346C32.7714 43.3346 31.9789 42.7522 31.6884 42.0235C31.6884 42.0235 31.603 42.3228 31.7847 42.7128C31.7847 42.7128 30.9729 42.215 30.7037 41.763C30.7037 41.763 30.6167 41.9957 30.8241 42.2733C30.8241 42.2733 30.0491 41.7676 29.7541 40.9327C29.7541 40.9327 29.5721 41.1588 29.6907 41.6023C29.6907 41.6023 28.7264 40.735 28.5597 40.1811C28.5597 40.1811 28.2957 40.3395 28.5176 40.7435C28.5175 40.7436 26.2836 39.5183 25.278 37.3035Z"
            fill="#34BE69" />
        <path
            d="M25.278 37.3035C25.278 37.3035 20.8346 31.2512 14.5331 35.7968C14.5331 35.7968 15.6054 36.0433 16.3019 35.8815C16.3019 35.8815 16.1085 36.2747 15.6997 36.4183C15.6997 36.4183 16.6741 36.5518 17.3899 36.2308C17.3899 36.2308 17.2429 36.5052 16.8409 36.6587C16.8409 36.6587 17.7704 36.8662 18.2781 36.7291C18.2781 36.7291 18.1787 36.9568 17.8366 37.0117C17.8366 37.0117 18.745 37.1881 19.538 36.794C19.538 36.794 19.5114 37.083 19.1174 37.3188C19.1174 37.3188 20.4135 37.3672 20.9187 37.0856C20.9187 37.0856 20.9981 37.3831 20.5576 37.5187C20.5575 37.5187 23.0144 38.1937 25.278 37.3035ZM25.278 37.3035C25.278 37.3035 32.6809 36.0505 34.0416 43.7003C34.0416 43.7003 33.1001 43.1311 32.7127 42.5302C32.7127 42.5302 32.5779 42.9471 32.7714 43.3346C32.7714 43.3346 31.9789 42.7522 31.6884 42.0235C31.6884 42.0235 31.603 42.3228 31.7847 42.7128C31.7847 42.7128 30.9729 42.215 30.7037 41.763C30.7037 41.763 30.6167 41.9957 30.8241 42.2733C30.8241 42.2733 30.0491 41.7676 29.7541 40.9327C29.7541 40.9327 29.5721 41.1588 29.6907 41.6023C29.6907 41.6023 28.7264 40.735 28.5597 40.1811C28.5597 40.1811 28.2957 40.3395 28.5176 40.7435C28.5175 40.7436 26.2836 39.5183 25.278 37.3035Z"
            stroke="black" strokeWidth="0.0625" />
        <path
            d="M25.278 37.3034C25.278 37.3034 27.271 30.0645 34.7791 32.0641C34.7791 32.0641 33.8654 32.6769 33.1569 32.774C33.1569 32.774 33.4778 33.0724 33.9108 33.0607C33.9108 33.0607 33.048 33.5329 32.2649 33.4881C32.2649 33.4881 32.5 33.6921 32.9303 33.6922C32.9303 33.6922 32.136 34.2176 31.6128 34.2706C31.6128 34.2706 31.7869 34.4479 32.126 34.3772C32.126 34.3772 31.3401 34.8659 30.4589 34.7805C30.4589 34.7805 30.587 35.041 31.039 35.121C31.039 35.121 29.8454 35.6284 29.2729 35.5454C29.2729 35.5454 29.3048 35.8516 29.7648 35.8212C29.7649 35.8211 27.7104 37.328 25.278 37.3034Z"
            fill="#52C883" stroke="black" strokeWidth="0.0625" />
        <path
            d="M49.7823 27H47.7823C47.7823 37.5479 51.0514 45.4062 57.7479 50.9982C58.1453 50.4606 58.5219 49.9071 58.8856 49.3445C52.768 44.1566 49.7823 36.837 49.7823 27Z"
            fill="#8C665B" stroke="black" strokeWidth="0.0625" />
        <path
            d="M48.5471 26.7078C48.5471 26.7078 41.2451 29.7886 44.3476 37.3036C44.3476 37.3036 44.8654 36.2693 44.8714 35.5203C44.8714 35.5203 45.2268 35.8115 45.2729 36.2628C45.2729 36.2628 45.6505 35.3013 45.4984 34.4944C45.4984 34.4944 45.7433 34.7101 45.8014 35.1568C45.8014 35.1568 46.2438 34.2585 46.2286 33.708C46.2286 33.708 46.4375 33.8639 46.4093 34.226C46.4093 34.226 46.8145 33.3418 46.6065 32.4389C46.6065 32.4389 46.8961 32.5354 47.0406 32.9935C47.0406 32.9935 47.4106 31.6834 47.2466 31.1008C47.2466 31.1008 47.5711 31.091 47.6014 31.5728C47.6014 31.5729 48.9006 29.2294 48.5471 26.7078Z"
            fill="#43AB5F" stroke="black" strokeWidth="0.0625" />
        <path
            d="M48.5471 26.7078C48.5471 26.7078 56.4 27.778 55.3642 35.8421C55.3642 35.8421 54.5947 34.9786 54.3936 34.2571C54.3936 34.2571 54.1265 34.631 54.1996 35.0786C54.1996 35.0786 53.5844 34.2489 53.5209 33.4301C53.5209 33.4301 53.3407 33.7024 53.4012 34.1488C53.4012 34.1488 52.7399 33.397 52.611 32.8615C52.611 32.8615 52.4499 33.0666 52.5717 33.4088C52.5717 33.4088 51.95 32.6608 51.9152 31.7349C51.9152 31.7349 51.6609 31.9035 51.6409 32.3835C51.6409 32.3835 50.942 31.2151 50.9484 30.61C50.9484 30.61 50.6325 30.6853 50.729 31.1583C50.7289 31.158 48.8635 29.2343 48.5471 26.7078Z"
            fill="#43AB5F" stroke="black" strokeWidth="0.0625" />
        <path
            d="M48.5471 26.7078C48.5471 26.7078 45.8899 18.8677 38.3731 21.3926C38.3731 21.3926 39.3607 22.023 40.0945 22.0977C40.0945 22.0977 39.7915 22.4388 39.3471 22.4455C39.3471 22.4455 40.2706 22.9242 41.0686 22.8403C41.0686 22.8403 40.8451 23.0741 40.4046 23.0936C40.4046 23.0936 41.2626 23.6335 41.803 23.6682C41.803 23.6682 41.6399 23.8701 41.2865 23.8078C41.2865 23.8078 42.1326 24.3081 43.0277 24.1752C43.0277 24.1752 42.919 24.4663 42.4627 24.5741C42.4627 24.5741 43.728 25.0766 44.3072 24.9602C44.3072 24.9602 44.3006 25.297 43.8271 25.2842C43.827 25.2842 46.0589 26.8431 48.5471 26.7078Z"
            fill="#52C883" stroke="black" strokeWidth="0.0625" />
        <path
            d="M48.5471 26.7076C48.5471 26.7076 40.3741 23.0511 36.5194 31.477C36.5194 31.477 37.7763 31.1008 38.403 30.5225C38.403 30.5225 38.4343 31.0441 38.0951 31.4339C38.0951 31.4339 39.184 30.9981 39.7369 30.2435C39.7369 30.2435 39.7461 30.6145 39.4199 31.0106C39.4199 31.0106 40.5059 30.6781 40.9514 30.2368C40.9514 30.2368 40.9825 30.5314 40.6601 30.7899C40.6601 30.7899 41.7059 30.4374 42.2958 29.5616C42.2958 29.5616 42.4384 29.877 42.169 30.3538C42.169 30.3538 43.5413 29.6403 43.8991 29.0504C43.8991 29.0504 44.1566 29.312 43.7799 29.7123C43.78 29.7124 46.7249 28.9645 48.5471 26.7076Z"
            fill="#34BE69" stroke="black" strokeWidth="0.0625" />
        <path
            d="M48.5471 26.7078C48.5471 26.7078 55.484 21.0466 61.4024 28.1759C61.4024 28.1759 60.0909 28.1406 59.3351 27.7458C59.3351 27.7458 59.4409 28.2574 59.87 28.5453C59.87 28.5453 58.7051 28.4084 57.9746 27.8242C57.9746 27.8242 58.0625 28.1849 58.4807 28.4822C58.4807 28.4822 57.3456 28.4444 56.8004 28.1344C56.8004 28.1344 56.8472 28.4271 57.2259 28.5926C57.2259 28.5926 56.1244 28.5249 55.3265 27.8332C55.3265 27.8332 55.2711 28.1749 55.6554 28.5648C55.6554 28.5648 54.1445 28.2338 53.6452 27.7578C53.6452 27.7578 53.4649 28.0776 53.9329 28.3657C53.933 28.3654 50.8949 28.4116 48.5471 26.7078Z"
            fill="#34BE69" stroke="black" strokeWidth="0.0625" />
        <path
            d="M48.5471 26.7077C48.5471 26.7077 46.348 18.0284 55.3105 15.6772C55.3105 15.6772 54.7242 16.851 54.0469 17.3691C54.0469 17.3691 54.5554 17.4895 54.9975 17.2222C54.9975 17.2222 54.3811 18.2201 53.543 18.6351C53.543 18.6351 53.907 18.7081 54.3531 18.4546C54.3531 18.4546 53.8392 19.4674 53.3279 19.8306C53.3279 19.8306 53.6127 19.9117 53.9229 19.6386C53.9229 19.6386 53.3961 20.6084 52.432 21.039C52.432 21.039 52.7182 21.2336 53.234 21.0502C53.234 21.0502 52.2955 22.2796 51.6531 22.5309C51.6531 22.5309 51.8666 22.8295 52.3256 22.527C52.3257 22.5271 51.0835 25.3 48.5471 26.7077Z"
            fill="#52C883" stroke="black" strokeWidth="0.0625" />
        <path
            d="M8.06525 45.184C6.29313 41.6004 4.0045 41.7292 1.45425 41.5166C5.50563 54.5405 17.6426 64.0001 32 64.0001C38.276 64.0001 44.1228 62.1837 49.0616 59.0604C47.4619 58.8271 45.6666 58.3334 42.5333 59.6782C40.9659 60.351 38.7809 57.4277 37.3339 57.2501C33.2629 56.7501 28.8333 59.9064 26.191 57.7501C22.8025 54.985 21.375 57.5001 18.6506 56.3125C15.9263 55.125 17.37 52.906 16.2773 51.7224C14.5331 49.8335 10.6666 50.4447 8.06525 45.184Z"
            fill="#674447" stroke="black" strokeWidth="0.0625" />
    </g>
    <defs>
        <clipPath id="clip0_457_66">
            <rect width="64" height="64" fill="white" />
        </clipPath>
    </defs>
</svg>
    