<svg width="64" height="64" viewBox="0 0 64 64" fill="none" xmlns="http://www.w3.org/2000/svg">
    <g clip-path="url(#clip0_456_54)">
        <path
            d="M32 0C49.673 0 64 14.327 64 32C64 49.673 49.673 64 32 64C14.327 64 0 49.673 0 32C0 14.327 14.327 0 32 0Z"
            fill="#3DB39E" stroke="black" strokeWidth="0.64" />
        <path
            d="M14.9645 20.6797L26.4026 26.4026L30.9773 24.1133L19.5392 18.3904L14.9645 20.6797ZM38.9843 20.1075L27.5462 14.3847L22.9709 16.6739L34.409 22.3962L38.9843 20.1075ZM18.3955 30.4083L22.9709 28.1191L11.5328 22.3962L6.95743 24.6855L18.3955 30.4083ZM30.9773 12.6675L42.4154 18.3904L46.9907 16.1011L35.5526 10.3789L30.9773 12.6675ZM35.4656 63.8099C37.6781 63.5719 39.8221 63.1053 41.8765 62.4391L1.72031 42.3482C2.43455 44.4378 3.35487 46.4301 4.46399 48.2995L35.4656 63.8099ZM2.38271 38.4199L6.95743 36.1312L0.0166321 32.6586C0.0499121 34.2938 0.204792 35.8983 0.474232 37.4656L2.38271 38.4199ZM10.3885 34.4141L14.9638 32.1248L3.52639 26.4026L0.252792 28.0403C0.202232 28.4506 0.158712 28.8634 0.123512 29.2787L10.3885 34.4141Z"
            fill="#E4E7E7" stroke="black" strokeWidth="0.64" />
        <path
            d="M38.6451 46.0358C42.4723 43.8867 47.2807 45.0189 47.8829 46.0326C48.4743 47.0291 47.0887 51.6627 43.2608 53.8112C39.4343 55.9597 34.6266 54.8288 34.0237 53.8144C33.5264 52.9747 34.8179 48.1843 38.6451 46.0358Z"
            fill="#349886" stroke="black" strokeWidth="0.64" />
        <path
            d="M54.8474 29.9194C57.9187 26.8659 60.0813 23.2653 61.5315 19.6627C58.2829 11.895 52.0608 5.68384 44.2867 2.448C40.6522 3.89568 37.0182 6.05632 33.9334 9.1232C23.8899 19.1104 23.9488 35.3613 26.2048 37.6051C28.9338 40.3181 44.8038 39.9066 54.8474 29.9194ZM54.8474 29.9194C57.9187 26.8659 60.0813 23.2653 61.5315 19.6627C58.2829 11.895 52.0608 5.68384 44.2867 2.448C40.6522 3.89568 37.0182 6.05632 33.9334 9.1232C23.8899 19.1104 23.9488 35.3613 26.2048 37.6051C28.9338 40.3181 44.8038 39.9066 54.8474 29.9194Z"
            fill="#E77944" />
        <path
            d="M54.8474 29.9194C57.9187 26.8659 60.0813 23.2653 61.5315 19.6627C58.2829 11.895 52.0608 5.68384 44.2867 2.448C40.6522 3.89568 37.0182 6.05632 33.9334 9.1232C23.8899 19.1104 23.9488 35.3613 26.2048 37.6051C28.9338 40.3181 44.8038 39.9066 54.8474 29.9194Z"
            stroke="black" strokeWidth="0.64" />
        <path
            d="M37.4963 24.6623L49.6442 12.5311C50.1485 12.0274 50.9657 12.0274 51.4707 12.5311C51.975 13.0348 51.975 13.8508 51.4707 14.3551L39.3229 26.4863C38.8186 26.99 38.0006 26.99 37.4963 26.4863C36.992 25.9826 36.992 25.166 37.4963 24.6623Z"
            fill="#CDCFCF" stroke="black" strokeWidth="0.64" />
        <path
            d="M38.6016 21.9436C38.3629 21.7049 37.9757 21.7049 37.737 21.9436L37.3043 22.3762C37.0656 22.615 37.0656 23.0015 37.3043 23.2409L40.7622 26.6982C41.001 26.9369 41.3882 26.9369 41.6269 26.6982L42.0589 26.2662C42.2976 26.0274 42.2976 25.6396 42.0589 25.4009L38.6016 21.9436ZM41.7952 18.7353C41.5558 18.4966 41.1674 18.4966 40.928 18.7353L40.4934 19.1673C40.2541 19.406 40.2541 19.7938 40.4934 20.0326L43.9648 23.4905C44.2048 23.7292 44.5926 23.7292 44.8326 23.4905L45.2666 23.0585C45.5066 22.8191 45.5066 22.4319 45.2666 22.1932L41.7952 18.7353ZM44.9971 15.5474C44.7584 15.3087 44.3712 15.3087 44.1325 15.5474L43.6998 15.9801C43.4611 16.2188 43.4611 16.6066 43.6998 16.8454L47.1584 20.3026C47.3971 20.5414 47.7843 20.5414 48.023 20.3026L48.4557 19.87C48.6944 19.6313 48.6944 19.2441 48.4557 19.0054L44.9971 15.5474ZM51.6634 15.7977L48.2054 12.3404C47.9667 12.101 47.5795 12.101 47.3408 12.3404L46.9088 12.7724C46.6701 13.0111 46.6701 13.3983 46.9088 13.637L50.3661 17.0956C50.6048 17.3343 50.992 17.3343 51.2307 17.0956L51.6634 16.663C51.9021 16.4236 51.9021 16.037 51.6634 15.7977ZM38.6016 21.9436C38.3629 21.7049 37.9757 21.7049 37.737 21.9436L37.3043 22.3762C37.0656 22.615 37.0656 23.0015 37.3043 23.2409L40.7622 26.6982C41.001 26.9369 41.3882 26.9369 41.6269 26.6982L42.0589 26.2662C42.2976 26.0274 42.2976 25.6396 42.0589 25.4009L38.6016 21.9436ZM41.7952 18.7353C41.5558 18.4966 41.1674 18.4966 40.928 18.7353L40.4934 19.1673C40.2541 19.406 40.2541 19.7938 40.4934 20.0326L43.9648 23.4905C44.2048 23.7292 44.5926 23.7292 44.8326 23.4905L45.2666 23.0585C45.5066 22.8191 45.5066 22.4319 45.2666 22.1932L41.7952 18.7353ZM44.9971 15.5474C44.7584 15.3087 44.3712 15.3087 44.1325 15.5474L43.6998 15.9801C43.4611 16.2188 43.4611 16.6066 43.6998 16.8454L47.1584 20.3026C47.3971 20.5414 47.7843 20.5414 48.023 20.3026L48.4557 19.87C48.6944 19.6313 48.6944 19.2441 48.4557 19.0054L44.9971 15.5474ZM51.6634 15.7977L48.2054 12.3404C47.9667 12.101 47.5795 12.101 47.3408 12.3404L46.9088 12.7724C46.6701 13.0111 46.6701 13.3983 46.9088 13.637L50.3661 17.0956C50.6048 17.3343 50.992 17.3343 51.2307 17.0956L51.6634 16.663C51.9021 16.4236 51.9021 16.037 51.6634 15.7977Z"
            fill="#EFF1F1" />
        <path
            d="M38.6016 21.9436C38.3629 21.7049 37.9757 21.7049 37.737 21.9436L37.3043 22.3762C37.0656 22.615 37.0656 23.0015 37.3043 23.2409L40.7622 26.6982C41.001 26.9369 41.3882 26.9369 41.6269 26.6982L42.0589 26.2662C42.2976 26.0274 42.2976 25.6396 42.0589 25.4009L38.6016 21.9436ZM41.7952 18.7353C41.5558 18.4966 41.1674 18.4966 40.928 18.7353L40.4934 19.1673C40.2541 19.406 40.2541 19.7938 40.4934 20.0326L43.9648 23.4905C44.2048 23.7292 44.5926 23.7292 44.8326 23.4905L45.2666 23.0585C45.5066 22.8191 45.5066 22.4319 45.2666 22.1932L41.7952 18.7353ZM44.9971 15.5474C44.7584 15.3087 44.3712 15.3087 44.1325 15.5474L43.6998 15.9801C43.4611 16.2188 43.4611 16.6066 43.6998 16.8454L47.1584 20.3026C47.3971 20.5414 47.7843 20.5414 48.023 20.3026L48.4557 19.87C48.6944 19.6313 48.6944 19.2441 48.4557 19.0054L44.9971 15.5474ZM51.6634 15.7977L48.2054 12.3404C47.9667 12.101 47.5795 12.101 47.3408 12.3404L46.9088 12.7724C46.6701 13.0111 46.6701 13.3983 46.9088 13.637L50.3661 17.0956C50.6048 17.3343 50.992 17.3343 51.2307 17.0956L51.6634 16.663C51.9021 16.4236 51.9021 16.037 51.6634 15.7977Z"
            stroke="black" strokeWidth="0.64" />
        <path
            d="M38.6419 11.0432C41.5853 8.11648 45.0298 6.02304 48.4966 4.5792C47.1539 3.77024 45.7478 3.05664 44.2867 2.448C40.6522 3.89568 37.0182 6.05632 33.9334 9.1232C23.8899 19.1104 23.9488 35.3613 26.2048 37.6051C26.8986 38.295 28.4448 38.7814 30.5267 38.9606C28.6874 35.3203 29.2115 20.4211 38.6419 11.0432Z"
            fill="#C5673A" stroke="black" strokeWidth="0.64" />
        <path
            d="M25.0528 29.6116C26.6714 30.8103 28.6515 32.3988 30.4422 34.1876C32.007 35.7511 33.4195 37.4593 34.5549 38.9473C36.2957 38.809 38.1958 38.5038 40.167 38.0007C39.0304 36.3258 36.7827 33.2129 34.1005 30.5338C30.969 27.4049 27.248 24.8743 25.9219 24.009C25.4509 25.9847 25.175 27.883 25.0528 29.6116Z"
            fill="#EFF1F1" stroke="black" strokeWidth="0.64" />
        <path
            d="M29.6838 33.4534C29.6947 31.6089 29.8944 29.477 30.3469 27.2134C28.4326 25.6876 26.7302 24.5375 25.9213 24.0095C25.8061 24.4902 25.7043 24.9663 25.6128 25.4367L25.5904 25.5583C25.5078 25.9846 25.4355 26.4057 25.3709 26.821L25.3491 26.9618C25.2109 27.877 25.113 28.7628 25.0528 29.6082V29.6121C26.4461 30.6431 28.1062 31.9647 29.6838 33.4534Z"
            fill="#CCCDCD" stroke="black" strokeWidth="0.64" />
    </g>
    <defs>
        <clipPath id="clip0_456_54">
            <rect width="64" height="64" fill="white" />
        </clipPath>
    </defs>
</svg>
    