<svg width="24" height="24" viewBox="0 0 24 24" fill="none" xmlns="http://www.w3.org/2000/svg">
    <path
        d="M6.82106 10.0576C6.82106 10.3501 6.85256 10.5873 6.90825 10.7607C6.97125 10.9343 7.05038 11.1241 7.16082 11.3292C7.19963 11.3922 7.21575 11.4552 7.21575 11.5109C7.21575 11.5893 7.16813 11.6684 7.06575 11.7473L6.56831 12.0792C6.49725 12.1261 6.42619 12.1503 6.36338 12.1503C6.28425 12.1503 6.20513 12.1107 6.126 12.0396C6.01982 11.9251 5.92465 11.8008 5.84175 11.6684C5.7539 11.5165 5.67233 11.3611 5.59725 11.2025C4.98188 11.929 4.20788 12.2924 3.276 12.2924C2.61319 12.2924 2.08444 12.1026 1.69706 11.7239C1.31025 11.3446 1.11319 10.8393 1.11319 10.2078C1.11319 9.53689 1.34981 8.99202 1.83188 8.58196C2.313 8.17096 2.95238 7.96583 3.76613 7.96583C4.03425 7.96583 4.31025 7.98927 4.60238 8.02883C4.89488 8.06839 5.19506 8.13139 5.51081 8.20246V7.62608C5.51081 7.02608 5.38406 6.60796 5.13956 6.36346C4.88644 6.11877 4.46025 6.00008 3.85238 6.00008C3.57619 6.00008 3.29213 6.03158 2.99981 6.10264C2.70959 6.17179 2.42468 6.26159 2.14725 6.37133C2.0205 6.42627 1.926 6.45777 1.87106 6.47389C1.81556 6.48927 1.776 6.49733 1.7445 6.49733C1.63388 6.49733 1.57894 6.41821 1.57894 6.25283V5.86602C1.57894 5.73927 1.59431 5.64477 1.63388 5.58927C1.67325 5.53433 1.7445 5.47939 1.85513 5.42371C2.13113 5.28158 2.463 5.16308 2.84963 5.06839C3.23644 4.96583 3.64725 4.91839 4.0815 4.91839C5.0205 4.91839 5.7075 5.13139 6.15 5.55777C6.58425 5.98396 6.80475 6.63139 6.80475 7.50008V10.0576H6.82106ZM3.61594 11.2581C3.876 11.2581 4.14469 11.2105 4.42894 11.116C4.71319 11.0208 4.96575 10.8473 5.17894 10.6107C5.30494 10.4607 5.40019 10.295 5.44706 10.1054C5.49469 9.91564 5.52619 9.68727 5.52619 9.41821V9.08727C5.28702 9.02851 5.04469 8.9835 4.80038 8.95246C4.55403 8.92139 4.30599 8.90574 4.05769 8.90558C3.52894 8.90558 3.14213 9.00814 2.88131 9.22133C2.62125 9.43433 2.49469 9.73396 2.49469 10.1288C2.49469 10.5001 2.58919 10.7763 2.78681 10.9658C2.97656 11.1629 3.25275 11.2581 3.61594 11.2581ZM9.95513 12.1107C9.813 12.1107 9.7185 12.0873 9.6555 12.0316C9.59175 11.984 9.53681 11.8741 9.48919 11.7241L7.63406 5.62133C7.58719 5.46327 7.56281 5.36071 7.56281 5.30502C7.56281 5.17902 7.626 5.10814 7.75275 5.10814H8.52619C8.67619 5.10814 8.77875 5.13139 8.83444 5.18708C8.89744 5.23396 8.94506 5.34458 8.99194 5.49458L10.3183 10.7213L11.5502 5.49477C11.5892 5.33727 11.6368 5.23414 11.6996 5.18727C11.7634 5.13946 11.874 5.10796 12.0161 5.10796H12.6474C12.7974 5.10796 12.9002 5.13139 12.9632 5.18708C13.0262 5.23396 13.0819 5.34458 13.1132 5.49458L14.3606 10.7843L15.7266 5.49477C15.7734 5.33727 15.8291 5.23414 15.8841 5.18727C15.9471 5.13946 16.0504 5.10796 16.1923 5.10796H16.9262C17.0529 5.10796 17.124 5.17096 17.124 5.30502C17.124 5.34439 17.1159 5.38414 17.1079 5.43177C17.0998 5.47939 17.0844 5.54239 17.0529 5.62864L15.1502 11.732C15.1026 11.8895 15.0476 11.992 14.9839 12.0395C14.9209 12.0873 14.8183 12.1188 14.6843 12.1188H14.0055C13.8553 12.1188 13.7528 12.0944 13.6898 12.0396C13.626 11.984 13.5711 11.8814 13.5396 11.7239L12.3158 6.63139L11.0998 11.7158C11.0604 11.8741 11.0136 11.9766 10.9498 12.0316C10.8866 12.0873 10.7762 12.1107 10.6341 12.1107H9.95513ZM20.0998 12.3239C19.6898 12.3239 19.2788 12.2763 18.8841 12.1818C18.4892 12.0873 18.1817 11.984 17.9766 11.866C17.8498 11.795 17.7634 11.716 17.7319 11.6448C17.7008 11.5751 17.6845 11.4998 17.6843 11.4235V11.0208C17.6843 10.8554 17.7473 10.7763 17.8661 10.7763C17.913 10.7763 17.9604 10.7843 18.0081 10.8005C18.0549 10.8158 18.126 10.8473 18.2049 10.8788C18.484 11.0014 18.7753 11.0942 19.0738 11.1556C19.3894 11.2186 19.6971 11.2501 20.0134 11.2501C20.5108 11.2501 20.8974 11.1629 21.1656 10.9895C21.4343 10.8158 21.5764 10.5631 21.5764 10.2395C21.5764 10.0182 21.5053 9.83727 21.3634 9.68708C21.2213 9.53708 20.9524 9.40283 20.5658 9.27627L19.4209 8.92096C18.8445 8.73927 18.4181 8.47133 18.1583 8.11602C17.8976 7.76821 17.7634 7.38139 17.7634 6.97133C17.7634 6.63946 17.8346 6.34733 17.9766 6.09458C18.1175 5.8406 18.3113 5.61982 18.5449 5.44714C18.7815 5.26621 19.0504 5.13139 19.3661 5.03689C19.6817 4.94239 20.0134 4.90283 20.3606 4.90283C20.5343 4.90283 20.7158 4.91089 20.8894 4.93433C21.0711 4.95777 21.2366 4.98927 21.4028 5.02077C21.5603 5.06033 21.7104 5.09989 21.8526 5.14752C21.9947 5.19514 22.1053 5.24202 22.1844 5.28964C22.2951 5.35264 22.374 5.41564 22.4209 5.48652C22.4685 5.55027 22.4919 5.63689 22.4919 5.74733V6.11858C22.4919 6.28433 22.4289 6.37133 22.3103 6.37133C22.2473 6.37133 22.1447 6.33927 22.0108 6.27627C21.5603 6.07114 21.0549 5.96858 20.4947 5.96858C20.0449 5.96858 19.6898 6.03964 19.4451 6.18983C19.1996 6.33927 19.0738 6.56858 19.0738 6.89221C19.0738 7.11346 19.1528 7.30302 19.3103 7.45246C19.4685 7.60246 19.7608 7.75283 20.1789 7.88671L21.3002 8.24202C21.8687 8.42371 22.2789 8.67627 22.5234 9.00008C22.7681 9.32389 22.8868 9.69514 22.8868 10.1054C22.8868 10.4451 22.8156 10.7528 22.6817 11.0208C22.5396 11.2896 22.3498 11.5263 22.1053 11.7158C21.8606 11.9129 21.5683 12.055 21.2293 12.1583C20.874 12.2682 20.5028 12.3239 20.0998 12.3239Z"
        fill="#FFBE1B" />
    <path
        d="M22.125 13.7528C21.294 13.7646 20.313 13.9501 19.5711 14.4713C19.3418 14.6369 19.3813 14.8579 19.6341 14.8264C20.4793 14.7239 22.3416 14.5028 22.6734 14.929C23.0053 15.3471 22.3029 17.1078 21.9866 17.8896C21.8921 18.1259 22.0973 18.2213 22.3103 18.0396C23.6996 16.8713 24.063 14.4318 23.7788 14.0764C23.6368 13.903 22.956 13.7408 22.125 13.7528ZM0.305631 14.2236C0.131819 14.2454 0.0530686 14.4554 0.236631 14.6213C3.33188 17.4154 7.42894 19.0973 11.9766 19.0973C15.2213 19.0973 18.9947 18.0792 21.5918 16.1611C22.0179 15.8446 21.6474 15.3634 21.213 15.5603C18.3004 16.7922 15.1341 17.3922 12.2528 17.3922C7.98188 17.3922 3.85276 16.216 0.505319 14.2735C0.432194 14.2302 0.363756 14.2165 0.305819 14.2236H0.305631Z"
        fill="#FF9900" />
</svg>