<svg width="24" height="24" viewBox="0 0 24 24" fill="none" xmlns="http://www.w3.org/2000/svg">
    <g clip-path="url(#clip0_462_31)">
        <path
            d="M8.05229 0.837991H15.0631L7.78537 22.4013C7.71063 22.6229 7.56823 22.8155 7.37823 22.9519C7.18822 23.0884 6.9602 23.1617 6.72629 23.1617H1.27029C1.0931 23.1617 0.918454 23.1195 0.760789 23.0386C0.603123 22.9577 0.46696 22.8405 0.363546 22.6966C0.260161 22.5527 0.192544 22.3862 0.166294 22.211C0.140043 22.0357 0.155914 21.8568 0.212593 21.6889L6.99321 1.59827C7.06799 1.37663 7.2104 1.18402 7.40039 1.04757C7.59038 0.911125 7.81838 0.837703 8.05229 0.837646V0.837991Z"
            fill="url(#paint0_linear_462_31)" />
        <path
            d="M18.24 15.3013H7.12256C7.01918 15.3011 6.91814 15.332 6.83262 15.3901C6.7471 15.4482 6.68106 15.5307 6.64313 15.6269C6.60519 15.723 6.59712 15.8284 6.61997 15.9292C6.64281 16.0301 6.69551 16.1217 6.77119 16.1921L13.9149 22.86C14.1229 23.054 14.3968 23.1619 14.6813 23.1618H20.9764L18.24 15.3013Z"
            fill="#0078D4" />
        <path
            d="M8.05229 0.838143C7.81583 0.837254 7.58528 0.911991 7.39431 1.05144C7.20334 1.19088 7.06195 1.38773 6.9908 1.61324L0.221039 21.6708C0.160602 21.8393 0.141634 22.0198 0.165739 22.1972C0.189843 22.3746 0.256311 22.5436 0.35952 22.6898C0.46273 22.8361 0.599645 22.9553 0.758686 23.0375C0.917727 23.1197 1.09422 23.1623 1.27322 23.1619H6.87018C7.07862 23.1246 7.27345 23.0327 7.43475 22.8955C7.59606 22.7584 7.71806 22.5808 7.7883 22.3811L9.13825 18.4024L13.9606 22.9001C14.1627 23.0673 14.4161 23.1597 14.6783 23.1619H20.9501L18.1994 15.3013L10.1808 15.3032L15.0885 0.838143H8.05229Z"
            fill="url(#paint1_linear_462_31)" />
        <path
            d="M17.0069 1.59738C16.9322 1.37605 16.79 1.18373 16.6002 1.04752C16.4105 0.911306 16.1828 0.838072 15.9492 0.838135H8.13586C8.3694 0.83816 8.59706 0.911431 8.78677 1.04763C8.97648 1.18383 9.11869 1.3761 9.19339 1.59738L15.9742 21.6889C16.031 21.8568 16.0469 22.0358 16.0207 22.2111C15.9945 22.3864 15.927 22.553 15.8236 22.697C15.7202 22.841 15.5841 22.9583 15.4263 23.0392C15.2686 23.1201 15.0939 23.1622 14.9167 23.1622H22.7303C22.9075 23.1621 23.0821 23.1198 23.2397 23.0388C23.3974 22.9579 23.5334 22.8406 23.6368 22.6966C23.7401 22.5527 23.8076 22.3862 23.8339 22.211C23.8601 22.0357 23.8443 21.8568 23.7877 21.6889L17.0069 1.59738Z"
            fill="url(#paint2_linear_462_31)" />
    </g>
    <defs>
        <linearGradient id="paint0_linear_462_31" x1="10.6076" y1="2.49226" x2="3.32676"
            y2="24.0014" gradientUnits="userSpaceOnUse">
            <stop stop-color="#114A8B" />
            <stop offset="1" stop-color="#0669BC" />
        </linearGradient>
        <linearGradient id="paint1_linear_462_31" x1="12.8819" y1="12.5163" x2="11.1978"
            y2="13.0856" gradientUnits="userSpaceOnUse">
            <stop stop-opacity="0.3" />
            <stop offset="0.071" stop-opacity="0.2" />
            <stop offset="0.321" stop-opacity="0.1" />
            <stop offset="0.623" stop-opacity="0.05" />
            <stop offset="1" stop-opacity="0" />
        </linearGradient>
        <linearGradient id="paint2_linear_462_31" x1="11.9557" y1="1.86499" x2="19.9479"
            y2="23.1575" gradientUnits="userSpaceOnUse">
            <stop stop-color="#3CCBF4" />
            <stop offset="1" stop-color="#2892DF" />
        </linearGradient>
        <clipPath id="clip0_462_31">
            <rect width="24" height="24" fill="white" />
        </clipPath>
    </defs>
</svg>
    