<svg width="28" height="28" viewBox="0 0 28 28" fill="none" xmlns="http://www.w3.org/2000/svg">
    <path
        d="M24.8815 9.18735C24.8249 9.12933 24.7665 9.07301 24.7065 9.01848C24.647 8.96467 24.591 8.90385 24.5315 8.84982C24.472 8.79579 24.416 8.73498 24.3565 8.68117C24.297 8.62714 24.241 8.56632 24.1815 8.51229C24.122 8.45826 24.066 8.39767 24.0065 8.34363C23.947 8.2896 23.891 8.22879 23.8315 8.17476C23.772 8.12073 23.716 8.06013 23.6565 8.0061C25.3925 9.6511 26.3872 11.8894 26.425 14.2363C26.425 19.8287 20.538 24.3782 13.3 24.3782C9.247 24.3782 5.621 22.9507 3.2095 20.7129L3.3845 20.8817L3.5595 21.0504L3.7345 21.2193L3.9095 21.3879L4.0845 21.5568L4.2595 21.7254L4.4345 21.8941C6.8425 24.2264 10.549 25.7281 14.7 25.7281C21.938 25.7281 27.825 21.1788 27.825 15.6033C27.825 13.2204 26.761 10.9625 24.8815 9.18735Z"
        fill="black" />
    <path
        d="M25.55 14.2363C25.55 19.3697 20.0655 23.531 13.3 23.531C6.53449 23.531 1.04999 19.3697 1.04999 14.2363C1.04999 11.0535 3.14999 8.24236 6.37699 6.57504C9.60399 4.90773 11.613 3.19995 13.3 3.19995C14.987 3.19995 16.429 4.59383 20.223 6.57526C23.45 8.24192 25.55 11.0535 25.55 14.2363Z"
        fill="#FBF0DF" />
    <path
        d="M25.55 14.2362C25.5482 13.5761 25.454 12.9194 25.27 12.2854C24.3145 23.5241 10.0975 24.0642 4.508 20.7029C7.02056 22.5807 10.1211 23.5782 13.3 23.5309C20.055 23.5309 25.55 19.3628 25.55 14.2362Z"
        fill="#F6DECE" />
    <path
        d="M8.58549 5.95751C10.15 5.05298 12.229 3.35526 14.273 3.35198C13.9579 3.25383 13.63 3.2026 13.3 3.19995C12.453 3.19995 11.55 3.62214 10.4125 4.25651C10.017 4.4792 9.60749 4.72551 9.17349 4.98211C8.35799 5.46817 7.42349 6.01811 6.37349 6.56826C3.04149 8.30645 1.04999 11.1719 1.04999 14.2363V14.638C3.17099 7.41198 7.02449 6.86204 8.58549 5.95751Z"
        fill="#FFFEFC" />
    <path
        d="M12.292 4.05391C12.2965 4.85273 12.1228 5.64249 11.7834 6.36566C11.4398 7.09664 10.9409 7.74393 10.3215 8.26244C10.2235 8.34688 10.3005 8.50897 10.4265 8.4615C11.606 8.01963 13.1985 6.69663 12.5265 4.027C12.4985 3.87497 12.292 3.91544 12.292 4.05391ZM13.0865 4.05391C13.5133 4.72355 13.7857 5.47973 13.8841 6.26766C13.9814 7.05232 13.9016 7.84791 13.65 8.59997C13.608 8.7181 13.7585 8.81938 13.8425 8.7216C14.609 7.7766 15.2775 5.89994 13.2755 3.87497C13.174 3.78747 13.0165 3.92222 13.0865 4.04035V4.05391ZM14.0525 3.9966C14.7188 4.44988 15.2799 5.0411 15.6977 5.73019C16.11 6.41087 16.3669 7.17417 16.45 7.9656C16.4465 7.99403 16.4544 8.02247 16.4721 8.04544C16.4905 8.06838 16.5167 8.0837 16.5457 8.08843C16.5747 8.09315 16.6045 8.08696 16.6292 8.07103C16.6536 8.05538 16.6709 8.03081 16.6775 8.00257C16.9995 6.82482 16.8175 4.81669 14.168 3.77369C14.028 3.71988 13.937 3.9021 14.0525 3.98303V3.9966ZM7.59153 7.50644C8.38504 7.27891 9.12305 6.89003 9.75934 6.36413C10.3869 5.84562 10.897 5.19968 11.256 4.4691C11.319 4.34747 11.5185 4.39472 11.487 4.52969C10.8815 7.22972 8.85503 7.79344 7.59503 7.71907C7.46203 7.72257 7.46553 7.54363 7.59153 7.50644Z"
        fill="#CCBEA7" />
    <path
        d="M13.3 24.3782C6.06199 24.3782 0.174988 19.8286 0.174988 14.2363C0.174988 10.8612 2.33799 7.71251 5.96049 5.82579C7.01049 5.2857 7.90999 4.74233 8.71149 4.26654C9.15249 4.00339 9.56899 3.75686 9.97149 3.52739C11.2 2.82542 12.25 2.3562 13.3 2.3562C14.35 2.3562 15.267 2.76133 16.415 3.41604C16.765 3.60854 17.115 3.81767 17.4895 4.04714C18.361 4.56689 19.3445 5.15401 20.6395 5.82579C24.262 7.71251 26.425 10.8579 26.425 14.2363C26.425 19.8286 20.538 24.3782 13.3 24.3782ZM13.3 3.20014C12.453 3.20014 11.55 3.62189 10.4125 4.25648C10.017 4.47917 9.60749 4.72548 9.17349 4.98208C8.35799 5.46814 7.42349 6.01808 6.37349 6.56823C3.04149 8.30642 1.04999 11.1718 1.04999 14.2363C1.04999 19.3629 6.54499 23.5345 13.3 23.5345C20.055 23.5345 25.55 19.3629 25.55 14.2363C25.55 11.1716 23.5585 8.30642 20.223 6.57501C18.9 5.89995 17.8675 5.26558 17.031 4.76595C16.6495 4.53998 16.2995 4.33064 15.981 4.14514C14.9205 3.53745 14.147 3.20014 13.3 3.20014Z"
        fill="black" />
    <path
        d="M15.7675 16.6999C15.6102 17.321 15.2524 17.8775 14.7455 18.2896C14.3601 18.6475 13.8687 18.8702 13.3455 18.924C12.8066 18.8789 12.298 18.6557 11.9 18.2896C11.3984 17.8757 11.0456 17.3192 10.892 16.6999C10.887 16.6631 10.8907 16.6256 10.903 16.5906C10.9153 16.5552 10.9357 16.5231 10.9625 16.4969C10.9901 16.4705 11.0232 16.4505 11.0594 16.4384C11.0956 16.4262 11.1341 16.4221 11.172 16.4265H15.491C15.5287 16.4227 15.5668 16.4271 15.6026 16.4396C15.6384 16.4521 15.671 16.4722 15.6982 16.4987C15.7248 16.5244 15.7449 16.556 15.757 16.591C15.769 16.626 15.7726 16.6633 15.7675 16.6999Z"
        fill="#B71422" />
    <path
        d="M11.9 18.3166C12.2972 18.683 12.8039 18.9084 13.342 18.958C13.8789 18.9077 14.3843 18.6823 14.7805 18.3166C14.9054 18.2045 15.0223 18.0839 15.1305 17.9557C14.913 17.7184 14.6498 17.5276 14.3566 17.3948C14.0604 17.2604 13.7406 17.1861 13.4155 17.176C13.068 17.1836 12.7271 17.2729 12.4204 17.4368C12.1178 17.5983 11.8588 17.8308 11.6655 18.1142C11.746 18.1849 11.816 18.2525 11.9 18.3166Z"
        fill="#FF6164" />
    <path
        d="M11.956 18.0499C12.1313 17.8322 12.3533 17.6567 12.6057 17.5365C12.8609 17.4146 13.1397 17.3502 13.4225 17.3479C13.943 17.3613 14.4408 17.5642 14.8225 17.9184C14.903 17.834 14.98 17.7462 15.0535 17.6585C14.6083 17.2495 14.0197 17.0169 13.405 17.0071C13.0773 17.0096 12.7539 17.0824 12.4567 17.2204C12.1627 17.3566 11.9022 17.5557 11.6935 17.8035C11.7762 17.8902 11.8639 17.9724 11.956 18.0499Z"
        fill="black" />
    <path
        d="M13.3315 19.1266C12.7522 19.079 12.2048 18.8417 11.774 18.4515C11.2322 18.0096 10.8509 17.4125 10.6855 16.7472C10.6737 16.6882 10.6757 16.6269 10.6914 16.5685C10.7073 16.5098 10.7364 16.4555 10.7765 16.4097C10.825 16.3535 10.8856 16.309 10.9537 16.2795C11.0225 16.2496 11.097 16.2352 11.172 16.2375H15.491C15.566 16.236 15.6404 16.2507 15.7089 16.2804C15.7769 16.3099 15.8375 16.354 15.8865 16.4097C15.9263 16.4561 15.955 16.5103 15.9701 16.569C15.9854 16.6274 15.9867 16.6882 15.974 16.7472C15.8086 17.4127 15.4271 18.0096 14.8855 18.4515C14.4557 18.841 13.9096 19.0783 13.3315 19.1266ZM11.172 16.6291C11.116 16.6291 11.102 16.6527 11.0985 16.6595C11.2464 17.2366 11.5811 17.753 12.054 18.1343C12.4043 18.4649 12.8528 18.6723 13.3315 18.725C13.8091 18.6728 14.2571 18.4679 14.609 18.1409C15.0804 17.7592 15.4138 17.2427 15.561 16.6663C15.5533 16.6554 15.5427 16.6468 15.5304 16.6416C15.518 16.6362 15.5044 16.6343 15.491 16.6359L11.172 16.6291Z"
        fill="black" />
    <path
        d="M18.627 16.9094C19.7579 16.9094 20.6745 16.3895 20.6745 15.7483C20.6745 15.1072 19.7579 14.5874 18.627 14.5874C17.496 14.5874 16.5795 15.1072 16.5795 15.7483C16.5795 16.3895 17.496 16.9094 18.627 16.9094ZM8.03249 16.9094C9.16342 16.9094 10.08 16.3895 10.08 15.7483C10.08 15.1072 9.16342 14.5874 8.03249 14.5874C6.90155 14.5874 5.98499 15.1072 5.98499 15.7483C5.98499 16.3895 6.90155 16.9094 8.03249 16.9094Z"
        fill="#FEBBD0" />
    <path
        d="M8.99501 15.2825C9.37495 15.2836 9.74719 15.1754 10.0673 14.9708C10.3823 14.7699 10.6302 14.4795 10.7791 14.1369C10.9255 13.7985 10.9643 13.4233 10.8903 13.0622C10.8149 12.6986 10.6312 12.3663 10.3635 12.1091C10.0907 11.8471 9.74766 11.67 9.37607 11.5994C9.00208 11.5272 8.61526 11.5637 8.26132 11.7044C7.91158 11.8427 7.61031 12.0809 7.39507 12.3893C7.18388 12.6926 7.07046 13.0533 7.07001 13.4229C7.07001 13.9155 7.27279 14.388 7.63373 14.7365C7.99466 15.0852 8.48423 15.2816 8.99501 15.2825ZM17.6645 15.2825C18.0449 15.2856 18.4182 15.179 18.7397 14.9756C19.056 14.7759 19.3055 14.4863 19.4561 14.1439C19.6041 13.8057 19.6444 13.4302 19.5716 13.0683C19.4973 12.7041 19.3144 12.371 19.047 12.1128C18.7747 11.8497 18.4318 11.6716 18.06 11.6C17.6857 11.5271 17.2983 11.563 16.9437 11.7035C16.5935 11.8415 16.2916 12.0796 16.0759 12.3882C15.8642 12.6917 15.7505 13.0528 15.75 13.4229C15.7491 13.914 15.9499 14.3854 16.3089 14.7341C16.6677 15.0825 17.1553 15.2798 17.6645 15.2825Z"
        fill="black" />
    <path
        d="M8.40002 13.5411C8.54284 13.5419 8.68287 13.5016 8.80339 13.4249C8.92305 13.3484 9.01645 13.2397 9.0718 13.1121C9.12714 12.985 9.14203 12.844 9.11445 12.7081C9.08638 12.5714 9.01759 12.4464 8.91714 12.3496C8.81472 12.2509 8.68582 12.1842 8.54614 12.1575C8.40556 12.1302 8.26011 12.1438 8.12702 12.1967C7.99554 12.2486 7.88225 12.338 7.8013 12.4539C7.72186 12.5679 7.67919 12.7035 7.67902 12.8424C7.67902 13.027 7.75492 13.2042 7.88989 13.3353C8.02709 13.467 8.20983 13.5408 8.40002 13.5411ZM17.0695 13.5411C17.2123 13.5419 17.3524 13.5016 17.4729 13.4249C17.5925 13.3484 17.686 13.2397 17.7413 13.1121C17.7966 12.985 17.8115 12.844 17.784 12.7081C17.7559 12.5714 17.6871 12.4464 17.5866 12.3496C17.4842 12.2509 17.3553 12.1842 17.2156 12.1575C17.0751 12.1302 16.9296 12.1438 16.7965 12.1967C16.665 12.2486 16.5518 12.338 16.4708 12.4539C16.3914 12.5679 16.3487 12.7035 16.3485 12.8424C16.3485 13.0262 16.4233 13.202 16.557 13.3328C16.6904 13.4637 16.872 13.5385 17.0625 13.5411H17.0695Z"
        fill="white" />
</svg>
    