<svg width="24" height="24" viewBox="0 0 24 24" fill="none" xmlns="http://www.w3.org/2000/svg">
    <g clip-path="url(#clip0_432_60)">
        <path
            d="M6.60001 6.5438L5.04376 4.98755V16.1813L5.06251 16.7063C5.06251 16.95 5.10001 17.2313 5.19376 17.5125L17.4938 21.8438L20.55 20.4938L6.60001 6.5438Z"
            fill="#00C4B3" />
        <path
            d="M20.55 20.4937L17.4938 21.8437L5.23126 17.5125C5.47501 18.4125 5.98126 19.4062 6.54376 19.9875L10.5375 23.9625L19.4625 23.9812L20.55 20.4937Z"
            fill="#22D3C5" />
        <path
            d="M0.318759 12.2062C-0.074991 12.6187 0.131259 13.5 0.750009 14.1562L3.50626 16.9313L5.23126 17.55C5.17501 17.2687 5.10001 16.9875 5.10001 16.7438L5.08126 16.2188L5.04376 5.00625M20.55 20.4938L21.9 17.4188L17.5875 5.11875C17.3063 5.0625 17.025 5.00625 16.7813 4.9875L16.2375 4.96875L5.06251 4.9875"
            fill="#0075C9" />
        <path
            d="M20.55 20.4937L23.8687 19.4062V10.2749L20.0437 6.43115C19.4812 5.86865 18.4875 5.34365 17.5687 5.11865L21.9 17.4187"
            fill="#00A8E1" />
        <path
            d="M16.9688 3.4125L14.1938 0.656249C13.5563 0.0187489 12.6938 -0.168751 12.2438 0.224999L5.04376 4.9875H16.2L16.7438 5.00625C16.9875 5.00625 17.2688 5.04375 17.55 5.1375L16.9688 3.4125Z"
            fill="#00C4B3" />
    </g>
    <defs>
        <clipPath id="clip0_432_60">
            <rect width="24" height="24" fill="white" />
        </clipPath>
    </defs>
</svg>
    