<svg width="27" height="27" viewBox="0 0 27 27" fill="none" xmlns="http://www.w3.org/2000/svg">
    <path fill-rule="evenodd" clip-rule="evenodd"
        d="M15.5672 10.7156H17.9508V13.1414H19.1531C19.7016 13.1414 20.2711 13.0359 20.7984 12.8671C21.0516 12.7828 21.3469 12.6562 21.6 12.5085C21.2625 12.0656 21.0938 11.5171 21.0516 10.9687C20.9883 10.2304 21.1359 9.26011 21.6422 8.69058L21.8953 8.39526L22.1906 8.6273C22.95 9.23901 23.5617 10.0617 23.6883 11.032C24.5953 10.7578 25.65 10.821 26.4516 11.2851L26.768 11.475L26.5992 11.8125C25.9242 13.1203 24.5109 13.5421 23.1398 13.4578C21.0727 18.5835 16.6008 21.0093 11.1586 21.0093C8.35313 21.0093 5.77969 19.9546 4.30313 17.4656L4.28204 17.4234L4.0711 16.9804C3.56485 15.8835 3.41719 14.6812 3.52266 13.4789L3.56485 13.1203H5.58985V10.7156H7.97344V8.35308H12.7195V5.96948H15.5672V10.7156Z"
        fill="#3A4D54" />
    <path
        d="M23.2875 11.6228C23.4563 10.3782 22.5281 9.40791 21.9375 8.94385C21.2836 9.70322 21.1781 11.7282 22.2117 12.572C21.6211 13.0782 20.4188 13.5634 19.1531 13.5634H3.92345C3.79688 14.8712 4.02891 16.0735 4.55626 17.1071L4.72501 17.4235C4.83048 17.6134 4.95704 17.7821 5.0836 17.972C5.71641 18.0142 6.28594 18.0353 6.81329 18.0142C7.84688 17.9931 8.69063 17.8665 9.34454 17.6556C9.45001 17.6134 9.53438 17.6767 9.57657 17.761C9.61876 17.8665 9.55548 17.9509 9.4711 17.9931C9.38673 18.0142 9.30235 18.0563 9.19688 18.0774C8.69063 18.2251 8.1422 18.3095 7.4461 18.3517H7.31954C7.04532 18.3728 6.75001 18.3728 6.4336 18.3728C6.0961 18.3728 5.7797 18.3728 5.40001 18.3517C6.66563 19.786 8.64844 20.6298 11.1375 20.6298C16.4109 20.6298 20.8828 18.2884 22.8445 13.0571C24.2578 13.2048 25.6078 12.8462 26.2195 11.6438C25.2703 11.0743 24.0047 11.2642 23.2875 11.6228Z"
        fill="#00AADA" />
    <path
        d="M23.2875 11.6228C23.4562 10.3782 22.5281 9.40791 21.9375 8.94385C21.2836 9.70322 21.1781 11.7282 22.2117 12.572C21.6211 13.0782 20.4187 13.5634 19.1531 13.5634H4.80936C4.74608 15.5673 5.48436 17.086 6.81327 17.9931C7.84686 17.972 8.69061 17.8454 9.34452 17.6345C9.44999 17.5923 9.53436 17.6556 9.57655 17.7399C9.61874 17.8454 9.55546 17.9298 9.47108 17.972C9.38671 17.9931 9.30233 18.0353 9.19686 18.0563C8.69061 18.204 8.09999 18.3095 7.40389 18.3517L7.3828 18.3306C9.17577 19.2587 11.7703 19.2376 14.7656 18.0985C18.0984 16.8118 21.2203 14.3649 23.393 11.5806C23.3508 11.6017 23.3086 11.6017 23.2875 11.6228Z"
        fill="#28B8EB" />
    <path
        d="M3.94452 15.1453C4.02889 15.8414 4.23983 16.4953 4.55624 17.107L4.72499 17.4234C4.83046 17.6132 4.95702 17.782 5.08358 17.9718C5.71639 18.014 6.28592 18.0351 6.81327 18.014C7.84686 17.9929 8.69061 17.8664 9.34452 17.6554C9.44999 17.6132 9.53436 17.6765 9.57655 17.7609C9.61874 17.8664 9.55546 17.9507 9.47108 17.9929C9.38671 18.014 9.30233 18.0562 9.19686 18.0773C8.69061 18.2249 8.09999 18.3304 7.40389 18.3726H7.31952C7.0453 18.3937 6.74999 18.3937 6.45468 18.3937C6.11718 18.3937 5.77968 18.3937 5.42108 18.3726C6.68671 19.807 8.69061 20.6507 11.1797 20.6507C15.6937 20.6507 19.6172 18.9421 21.8953 15.1664H3.94452V15.1453Z"
        fill="#028BB8" />
    <path
        d="M4.95703 15.1453C5.23125 16.3687 5.86406 17.339 6.81328 17.9929C7.84687 17.9718 8.69062 17.8453 9.34453 17.6343C9.45 17.5921 9.53438 17.6554 9.57656 17.7398C9.61875 17.8453 9.55547 17.9296 9.47109 17.9718C9.38672 17.9929 9.30234 18.0351 9.19687 18.0562C8.69062 18.2039 8.1 18.3093 7.38281 18.3515C9.17578 19.2796 11.7703 19.2585 14.7445 18.1195C16.5375 17.4234 18.2883 16.3898 19.8492 15.1453H4.95703Z"
        fill="#019BC6" />
    <path fill-rule="evenodd" clip-rule="evenodd"
        d="M5.9906 11.1164H8.05779V13.1836H5.9906V11.1164ZM6.15935 11.2852H6.3281V12.9937H6.15935V11.2852ZM6.45466 11.2852H6.62341V12.9937H6.45466V11.2852ZM6.77107 11.2852H6.93982V12.9937H6.77107V11.2852ZM7.08748 11.2852H7.25623V12.9937H7.08748V11.2852ZM7.40388 11.2852H7.57263V12.9937H7.40388V11.2852ZM7.72029 11.2852H7.88904V12.9937H7.72029V11.2852ZM8.3531 8.75391H10.4203V10.8211H8.3531V8.75391ZM8.54294 8.92266H8.71169V10.6313H8.54294V8.92266ZM8.83826 8.92266H9.00701V10.6313H8.83826V8.92266ZM9.15466 8.92266H9.32341V10.6313H9.15466V8.92266ZM9.47107 8.92266H9.63982V10.6313H9.47107V8.92266ZM9.76638 8.92266H9.93513V10.6313H9.76638V8.92266ZM10.0828 8.92266H10.2515V10.6313H10.0828V8.92266Z"
        fill="#00ACD3" />
    <path fill-rule="evenodd" clip-rule="evenodd"
        d="M8.35315 11.1165H10.4203V13.1836H8.35315V11.1165ZM8.54299 11.2852H8.71174V12.9938H8.54299V11.2852ZM8.83831 11.2852H9.00706V12.9938H8.83831V11.2852ZM9.15471 11.2852H9.32346V12.9938H9.15471V11.2852ZM9.47112 11.2852H9.63987V12.9938H9.47112V11.2852ZM9.76643 11.2852H9.93518V12.9938H9.76643V11.2852ZM10.0828 11.2852H10.2516V12.9938H10.0828V11.2852Z"
        fill="#23C2EE" />
    <path fill-rule="evenodd" clip-rule="evenodd"
        d="M10.7367 11.1165H12.8039V13.1836H10.7367V11.1165ZM10.9054 11.2852H11.0742V12.9938H10.9054V11.2852ZM11.2219 11.2852H11.3906V12.9938H11.2219V11.2852ZM11.5383 11.2852H11.707V12.9938H11.5383V11.2852ZM11.8336 11.2852H12.0023V12.9938H11.8336V11.2852ZM12.15 11.2852H12.3187V12.9938H12.15V11.2852ZM12.4664 11.2852H12.6351V12.9938H12.4664V11.2852Z"
        fill="#00ACD3" />
    <path fill-rule="evenodd" clip-rule="evenodd"
        d="M10.7367 8.75391H12.8039V10.8211H10.7367V8.75391ZM10.9054 8.92266H11.0742V10.6313H10.9054V8.92266ZM11.2219 8.92266H11.3906V10.6313H11.2219V8.92266ZM11.5383 8.92266H11.707V10.6313H11.5383V8.92266ZM11.8336 8.92266H12.0023V10.6313H11.8336V8.92266ZM12.15 8.92266H12.3187V10.6313H12.15V8.92266ZM12.4664 8.92266H12.6351V10.6313H12.4664V8.92266ZM13.1203 11.1164H15.1875V13.1836H13.1203V11.1164ZM13.289 11.2852H13.4578V12.9937H13.289V11.2852ZM13.6054 11.2852H13.7742V12.9937H13.6054V11.2852ZM13.9008 11.2852H14.0695V12.9937H13.9008V11.2852ZM14.2172 11.2852H14.3859V12.9937H14.2172V11.2852ZM14.5336 11.2852H14.7023V12.9937H14.5336V11.2852ZM14.85 11.2852H15.0187V12.9937H14.85V11.2852Z"
        fill="#23C2EE" />
    <path fill-rule="evenodd" clip-rule="evenodd"
        d="M13.1203 8.75391H15.1875V10.8211H13.1203V8.75391ZM13.2891 8.92266H13.4578V10.6313H13.2891V8.92266ZM13.6055 8.92266H13.7742V10.6313H13.6055V8.92266ZM13.9008 8.92266H14.0695V10.6313H13.9008V8.92266ZM14.2172 8.92266H14.3859V10.6313H14.2172V8.92266ZM14.5336 8.92266H14.7023V10.6313H14.5336V8.92266ZM14.85 8.92266H15.0187V10.6313H14.85V8.92266Z"
        fill="#00ACD3" />
    <path fill-rule="evenodd" clip-rule="evenodd"
        d="M13.1203 6.37036H15.1875V8.43755H13.1203V6.37036ZM13.2891 6.53911H13.4578V8.2477H13.2891V6.53911ZM13.6055 6.53911H13.7742V8.2477H13.6055V6.53911ZM13.9008 6.53911H14.0695V8.2477H13.9008V6.53911ZM14.2172 6.53911H14.3859V8.2477H14.2172V6.53911ZM14.5336 6.53911H14.7023V8.2477H14.5336V6.53911ZM14.85 6.53911H15.0187V8.2477H14.85V6.53911Z"
        fill="#23C2EE" />
    <path fill-rule="evenodd" clip-rule="evenodd"
        d="M15.5039 11.1165H17.5711V13.1836H15.5039V11.1165ZM15.6727 11.2852H15.8414V12.9938H15.6727V11.2852ZM15.968 11.2852H16.1367V12.9938H15.968V11.2852ZM16.2844 11.2852H16.4531V12.9938H16.2844V11.2852ZM16.6008 11.2852H16.7695V12.9938H16.6008V11.2852ZM16.9172 11.2852H17.0859V12.9938H16.9172V11.2852ZM17.2336 11.2852H17.4023V12.9938H17.2336V11.2852Z"
        fill="#00ACD3" />
    <path fill-rule="evenodd" clip-rule="evenodd"
        d="M10.2938 16.5164C10.6102 16.5164 10.8633 16.7695 10.8633 17.0859C10.8633 17.4023 10.6102 17.6554 10.2938 17.6554C9.97737 17.6554 9.72424 17.4023 9.72424 17.0859C9.72424 16.7695 9.97737 16.5164 10.2938 16.5164Z"
        fill="#D4EEF1" />
    <path fill-rule="evenodd" clip-rule="evenodd"
        d="M10.2938 16.6851C10.336 16.6851 10.3992 16.6851 10.4414 16.7062C10.3992 16.7272 10.3571 16.7905 10.3571 16.8538C10.3571 16.9382 10.4414 17.0226 10.5258 17.0226C10.5891 17.0226 10.6524 16.9804 10.6735 16.9382C10.6946 16.9804 10.6946 17.0437 10.6946 17.0858C10.6946 17.3179 10.5047 17.4866 10.2938 17.4866C10.0617 17.4866 9.89299 17.2968 9.89299 17.0858C9.89299 16.8749 10.0617 16.6851 10.2938 16.6851ZM0.232056 15.3562H26.6836C26.1141 15.2085 24.8696 15.0187 25.0594 14.2593C24.0047 15.4616 21.4946 15.103 20.8407 14.5124C20.1235 15.546 15.9891 15.1452 15.7149 14.3437C14.8289 15.3983 12.0656 15.3983 11.1797 14.3437C10.8844 15.1452 6.75002 15.546 6.05393 14.5124C5.42112 15.103 2.88987 15.4616 1.83518 14.2593C2.06721 14.9976 0.801587 15.2085 0.232056 15.3562Z"
        fill="#3A4D54" />
    <path
        d="M11.8125 20.6296C10.3992 19.9546 9.63982 19.0476 9.19685 18.0562C8.66951 18.2038 8.03669 18.3093 7.31951 18.3515C7.04529 18.3726 6.74998 18.3726 6.45466 18.3726C6.09607 18.3726 5.73748 18.3726 5.35779 18.3515C6.62341 19.6171 8.22654 20.6085 11.1586 20.6296H11.8125Z"
        fill="#BFDBE0" />
    <path
        d="M9.72421 18.9632C9.53436 18.689 9.34452 18.3726 9.19686 18.0562C8.66952 18.2038 8.03671 18.3093 7.31952 18.3515C7.80468 18.6046 8.52186 18.8577 9.72421 18.9632Z"
        fill="#D4EEF1" />
</svg>
    