<svg width="24" height="24" viewBox="0 0 24 24" fill="none" xmlns="http://www.w3.org/2000/svg">
    <g clip-path="url(#clip0_434_142)">
        <path d="M0 0H24V24H0V0Z" fill="url(#paint0_linear_434_142)" />
        <path
            d="M10.6397 3.9873C8.00306 3.9873 5.19974 4.76805 5.19974 6.22737V8.80287C5.20932 8.98542 5.2573 9.1639 5.34056 9.32664C5.42382 9.48939 5.54049 9.63273 5.68293 9.7473C5.53872 9.86373 5.42102 10.0096 5.33769 10.1751C5.25437 10.3407 5.20734 10.5221 5.19974 10.7073V13.2672C5.20715 13.4525 5.25409 13.634 5.33743 13.7995C5.42077 13.9651 5.53858 14.111 5.68293 14.2272C5.5387 14.3437 5.42098 14.4896 5.33766 14.6552C5.25433 14.8207 5.20731 15.0022 5.19974 15.1874V17.7476C5.19788 17.7698 5.19788 17.7921 5.19974 17.8143C5.28599 19.2192 8.03812 19.9743 10.6397 19.9743C13.2414 19.9743 15.9934 19.2192 16.0798 17.8081C16.083 17.7857 16.083 17.763 16.0798 17.7406V15.1805C16.0737 14.995 16.0273 14.8131 15.9438 14.6473C15.8604 14.4816 15.7419 14.3359 15.5966 14.2205C15.741 14.1042 15.8588 13.9584 15.9421 13.7928C16.0255 13.6272 16.0724 13.4457 16.0798 13.2605V12.9536L13.9648 15.0654C14.3453 14.9592 14.7124 14.8099 15.0591 14.6204C15.1603 14.6833 15.2468 14.7674 15.3125 14.8668C15.3782 14.9663 15.4216 15.0788 15.4397 15.1966C15.4397 15.7824 14.1984 16.4193 12.3553 16.6786C11.7866 16.7554 11.2135 16.7958 10.6397 16.7997H10.32C7.73437 16.739 5.83987 15.923 5.83987 15.1998C5.85811 15.082 5.90165 14.9696 5.96748 14.8702C6.03332 14.7708 6.11989 14.6869 6.22124 14.6242C7.22606 15.1842 8.85431 15.5167 10.6399 15.5167H10.6755L10.8544 14.8767H10.6399C8.87999 14.8767 7.24837 14.5276 6.38118 13.9773C6.03562 13.7501 5.84306 13.5042 5.83987 13.2897V11.8079C6.81918 12.5568 8.77124 12.9474 10.6399 12.9474C10.8928 12.9474 11.1461 12.9474 11.3925 12.9249L11.5744 12.2847C11.2543 12.3072 10.9567 12.3166 10.6399 12.3166C7.89431 12.3166 5.83987 11.4751 5.83987 10.7167C5.85804 10.5988 5.90154 10.4862 5.96738 10.3868C6.03321 10.2873 6.11982 10.2033 6.22124 10.1405C7.10437 10.6364 8.46074 10.9467 9.99993 11.0172L10.0162 10.3773C8.50256 10.3036 7.13624 9.97737 6.38118 9.49418C6.03881 9.2733 5.84643 9.02355 5.83987 8.80605V7.32799C6.81918 8.07668 8.77124 8.46724 10.6399 8.46724H10.7106L11.0499 7.8273H10.6399C7.89431 7.8273 5.83987 6.98562 5.83987 6.22737C5.83987 5.46893 7.89431 4.62724 10.6399 4.62724C11.5646 4.62333 12.4865 4.73079 13.3856 4.9473H15.1425C14.1825 4.36174 12.5246 3.9873 10.6397 3.9873ZM13.0397 5.58424C12.9807 5.58448 12.923 5.601 12.8728 5.63197C12.8227 5.66293 12.7821 5.70715 12.7554 5.75974L10.8354 9.59993C10.8086 9.64893 10.795 9.70411 10.7961 9.75997C10.7972 9.81584 10.8129 9.87044 10.8417 9.91835C10.8704 9.96627 10.9112 10.0058 10.96 10.0331C11.0088 10.0603 11.0638 10.0744 11.1197 10.0737H12.9309L11.1328 16.0606C11.1124 16.1296 11.1158 16.2034 11.1425 16.2701C11.1692 16.3369 11.2175 16.3928 11.2798 16.4287C11.3282 16.4575 11.3834 16.473 11.4397 16.4737C11.4863 16.4746 11.5326 16.4654 11.5752 16.4466C11.6179 16.4278 11.6559 16.3999 11.6867 16.3649L18.7266 9.00499C18.7696 8.95969 18.7985 8.90278 18.8096 8.84128C18.8206 8.77978 18.8135 8.71637 18.789 8.65889C18.7644 8.60141 18.7236 8.55236 18.6715 8.51781C18.6195 8.48325 18.5584 8.4647 18.4959 8.46443H16.701L17.5198 6.00312C17.5358 5.95381 17.5397 5.90135 17.5309 5.85025C17.5222 5.79914 17.5012 5.75092 17.4697 5.70973C17.4382 5.66854 17.3972 5.63561 17.3502 5.61379C17.3032 5.59196 17.2515 5.58189 17.1997 5.58443L13.0397 5.58424ZM13.2191 6.22737H16.7391L15.9197 8.68474C15.9028 8.73427 15.8984 8.78718 15.9067 8.83882C15.9151 8.89047 15.936 8.93928 15.9676 8.98099C15.9991 9.02269 16.0405 9.05602 16.0879 9.07805C16.1354 9.10009 16.1875 9.11015 16.2397 9.10737H17.7309L12.1279 14.963L13.6672 9.84293C13.6811 9.79529 13.6837 9.74508 13.6748 9.69627C13.6659 9.64746 13.6458 9.60138 13.6161 9.56168C13.5862 9.52189 13.5475 9.48959 13.503 9.46736C13.4585 9.44514 13.4095 9.43358 13.3597 9.43362H11.6385L13.2191 6.22737ZM6.79968 8.40612C6.74716 8.40612 6.69515 8.41646 6.64663 8.43656C6.59811 8.45666 6.55402 8.48612 6.51688 8.52326C6.47975 8.56039 6.45029 8.60448 6.43019 8.653C6.41009 8.70153 6.39974 8.75353 6.39974 8.80605C6.39974 8.85858 6.41009 8.91058 6.43019 8.9591C6.45029 9.00763 6.47975 9.05172 6.51688 9.08885C6.55402 9.12599 6.59811 9.15545 6.64663 9.17555C6.69515 9.19565 6.74716 9.20599 6.79968 9.20599C6.85222 9.20602 6.90424 9.19569 6.95279 9.1756C7.00133 9.15552 7.04544 9.12606 7.0826 9.08892C7.11976 9.05178 7.14923 9.00768 7.16934 8.95915C7.18946 8.91061 7.19981 8.85859 7.19981 8.80605C7.19981 8.75352 7.18946 8.7015 7.16934 8.65296C7.14923 8.60443 7.11976 8.56033 7.0826 8.52319C7.04544 8.48605 7.00133 8.45659 6.95279 8.43651C6.90424 8.41642 6.85222 8.40609 6.79968 8.40612ZM6.79968 12.8861C6.74716 12.8861 6.69515 12.8964 6.64663 12.9165C6.59811 12.9366 6.55402 12.9661 6.51688 13.0032C6.47975 13.0403 6.45029 13.0844 6.43019 13.1329C6.41009 13.1815 6.39974 13.2335 6.39974 13.286C6.39972 13.3385 6.41005 13.3906 6.43013 13.4391C6.45022 13.4876 6.47968 13.5318 6.51682 13.5689C6.55396 13.6061 6.59805 13.6355 6.64659 13.6557C6.69512 13.6758 6.74714 13.6861 6.79968 13.6861C6.85223 13.6861 6.90428 13.6758 6.95283 13.6557C7.00139 13.6356 7.04551 13.6061 7.08267 13.569C7.11983 13.5318 7.1493 13.4877 7.1694 13.4391C7.1895 13.3906 7.19983 13.3385 7.19981 13.286C7.19981 13.2335 7.18946 13.1814 7.16934 13.1329C7.14923 13.0844 7.11976 13.0403 7.0826 13.0031C7.04544 12.966 7.00133 12.9365 6.95279 12.9164C6.90424 12.8964 6.85222 12.886 6.79968 12.8861ZM5.83968 16.2817C6.81899 17.0242 8.77106 17.4142 10.6397 17.4142C12.5085 17.4142 14.4606 17.0242 15.4397 16.2817V17.7536C15.4397 18.5088 13.3854 19.3535 10.6397 19.3535C7.89412 19.3535 5.83968 18.5184 5.83968 17.7536V16.2817ZM6.79968 17.366C6.74714 17.366 6.69512 17.3763 6.64659 17.3965C6.59805 17.4166 6.55396 17.446 6.51682 17.4832C6.47968 17.5204 6.45022 17.5645 6.43013 17.613C6.41005 17.6616 6.39972 17.7136 6.39974 17.7661C6.39974 17.8722 6.44188 17.9739 6.51688 18.0489C6.59189 18.1239 6.69361 18.1661 6.79968 18.1661C6.85222 18.1661 6.90424 18.1558 6.95279 18.1357C7.00133 18.1156 7.04544 18.0861 7.0826 18.049C7.11976 18.0118 7.14923 17.9677 7.16934 17.9192C7.18946 17.8707 7.19981 17.8187 7.19981 17.7661C7.19983 17.7136 7.1895 17.6615 7.1694 17.613C7.1493 17.5644 7.11983 17.5203 7.08267 17.4831C7.04551 17.446 7.00139 17.4165 6.95283 17.3964C6.90428 17.3763 6.85223 17.366 6.79968 17.366Z"
            fill="white" />
    </g>
    <defs>
        <linearGradient id="paint0_linear_434_142" x1="-4.96961" y1="28.9697" x2="28.9697"
            y2="-4.96961" gradientUnits="userSpaceOnUse">
            <stop stop-color="#2E27AD" />
            <stop offset="1" stop-color="#527FFF" />
        </linearGradient>
        <clipPath id="clip0_434_142">
            <rect width="24" height="24" fill="white" />
        </clipPath>
    </defs>
</svg>
    