<svg width="24" height="24" viewBox="0 0 24 24" fill="none" xmlns="http://www.w3.org/2000/svg">
    <path
        d="M23.7506 18.4576C22.8956 18.6751 22.3669 18.467 21.8925 17.7545C20.8275 16.1589 19.6519 14.6364 18.5175 13.0857C18.3712 12.8851 18.2194 12.6882 18.03 12.4389C16.6875 14.2501 15.3469 15.9751 14.0887 17.7695C13.6387 18.4107 13.1662 18.6901 12.3262 18.4632L17.3737 11.6889L12.675 5.57075C13.4831 5.41325 14.0419 5.49387 14.5369 6.21762C15.63 7.81512 16.8356 9.33575 18.0375 10.9445C19.2469 9.34137 20.4375 7.81887 21.5625 6.23637C22.0144 5.59512 22.5 5.35137 23.3119 5.58762C22.6969 6.40325 22.095 7.20575 21.4894 8.00262C20.6719 9.077 19.8694 10.1645 19.0219 11.2164C18.72 11.5914 18.7687 11.8351 19.0387 12.1895C20.6062 14.2501 22.155 16.3314 23.7506 18.4576ZM0.249369 11.5764C0.384369 10.8995 0.474369 10.2095 0.661869 9.54575C1.78687 5.52762 6.39937 3.857 9.56812 6.347C11.4244 7.80762 11.8856 9.86637 11.7937 12.1876H1.33124C1.17374 16.352 4.17187 18.8664 7.99312 17.5839C9.33374 17.1339 10.1231 16.0839 10.5187 14.7714C10.7194 14.1132 11.0512 14.0101 11.67 14.1976C11.3531 15.8401 10.635 17.2126 9.13499 18.0714C6.88499 19.3576 3.67312 18.9414 1.98374 17.1545C0.986244 16.1045 0.562494 14.7976 0.374994 13.3857C0.346869 13.1607 0.288744 12.9395 0.243744 12.7164C0.247494 12.3364 0.249369 11.9564 0.249369 11.5764ZM1.34999 11.297H10.8056C10.7437 8.28575 8.86874 6.14637 6.30562 6.12762C3.49312 6.10512 1.47187 8.19387 1.34999 11.297Z"
        fill="#3F873F" />
</svg>
    