<svg width="48" height="48" viewBox="0 0 48 48" fill="none" xmlns="http://www.w3.org/2000/svg">
    <g clip-path="url(#clip0_423_37)">
        <path
            d="M17.0625 48.375C21.525 48.375 25.125 44.775 25.125 40.3125V32.25H17.0625C12.6 32.25 9 35.85 9 40.3125C9 44.775 12.6 48.375 17.0625 48.375Z"
            fill="#0ACF83" />
        <path
            d="M9 24.1875C9 19.725 12.6 16.125 17.0625 16.125H25.125V32.25H17.0625C12.6 32.25 9 28.65 9 24.1875Z"
            fill="#A259FF" />
        <path
            d="M9 8.0625C9 3.6 12.6 0 17.0625 0H25.125V16.125H17.0625C12.6 16.125 9 12.525 9 8.0625Z"
            fill="#F24E1E" />
        <path
            d="M25.125 0H33.1875C37.65 0 41.25 3.6 41.25 8.0625C41.25 12.525 37.65 16.125 33.1875 16.125H25.125V0Z"
            fill="#FF7262" />
        <path
            d="M41.25 24.1875C41.25 28.65 37.65 32.25 33.1875 32.25C28.725 32.25 25.125 28.65 25.125 24.1875C25.125 19.725 28.725 16.125 33.1875 16.125C37.65 16.125 41.25 19.725 41.25 24.1875Z"
            fill="#1ABCFE" />
    </g>
    <defs>
        <clipPath id="clip0_423_37">
            <rect width="48" height="48" fill="white" />
        </clipPath>
    </defs>
</svg>
    