<svg width="24" height="24" viewBox="0 0 24 24" fill="none" xmlns="http://www.w3.org/2000/svg">
    <g clip-path="url(#clip0_434_145)">
        <path
            d="M3.27637 19.3643L6.23043 0.461687C6.24812 0.34872 6.30086 0.244166 6.38119 0.162793C6.46152 0.0814201 6.56539 0.0273406 6.67812 0.00819314C6.79085 -0.0109543 6.90674 0.00579789 7.00944 0.0560837C7.11213 0.106369 7.19643 0.187647 7.25043 0.288437L10.3056 5.98656L11.5232 3.66794C11.5695 3.57999 11.6389 3.50636 11.724 3.45499C11.8091 3.40362 11.9066 3.37647 12.006 3.37647C12.1054 3.37647 12.2029 3.40362 12.288 3.45499C12.3731 3.50636 12.4425 3.57999 12.4888 3.66794L20.7332 19.3643H3.27637Z"
            fill="#FFA000" />
        <path d="M13.4818 12.0009L10.3041 5.98364L3.27637 19.3642L13.4818 12.0009Z" fill="#F57C00" />
        <path
            d="M20.7332 19.3642L18.4706 5.36316C18.4538 5.26449 18.4103 5.17233 18.3447 5.09674C18.2791 5.02115 18.1939 4.96504 18.0986 4.93454C18.0033 4.90409 17.9014 4.90047 17.8042 4.92408C17.707 4.9477 17.6181 4.99763 17.5474 5.06841L3.27637 19.364L11.1729 23.7923C11.4168 23.9285 11.6914 24 11.9707 24C12.25 24 12.5247 23.9285 12.7686 23.7923L20.7332 19.3642Z"
            fill="#FFCA28" />
        <path
            d="M18.4706 5.36334C18.4538 5.26467 18.4103 5.17251 18.3447 5.09692C18.2791 5.02133 18.194 4.96522 18.0986 4.93471C18.0033 4.90424 17.9015 4.90059 17.8042 4.92417C17.707 4.94775 17.6181 4.99765 17.5474 5.0684L14.7148 7.90846L12.4875 3.66796C12.4412 3.58002 12.3718 3.50638 12.2867 3.45502C12.2016 3.40365 12.1041 3.3765 12.0047 3.3765C11.9053 3.3765 11.8078 3.40365 11.7227 3.45502C11.6376 3.50638 11.5682 3.58002 11.5219 3.66796L10.3043 5.9864L7.24913 0.288465C7.19506 0.187536 7.11061 0.106173 7.00774 0.0558991C6.90487 0.00562468 6.78879 -0.0110138 6.67594 0.00833974C6.56313 0.0276076 6.45925 0.0818941 6.37902 0.163504C6.29879 0.245114 6.24628 0.349906 6.22894 0.463027L3.27638 19.3643H3.26682L3.27619 19.3752L3.354 19.4135L17.5433 5.20771C17.614 5.13664 17.703 5.08644 17.8004 5.06264C17.8979 5.03884 18 5.04235 18.0955 5.07279C18.1911 5.10323 18.2764 5.15942 18.3421 5.23519C18.4078 5.31096 18.4514 5.40337 18.468 5.50228L20.7114 19.3778L20.7332 19.3642L18.4706 5.36334ZM3.30225 19.3385L6.23025 0.596715C6.24765 0.483567 6.3002 0.378757 6.38045 0.297122C6.46071 0.215487 6.56461 0.161163 6.67744 0.14184C6.79031 0.122532 6.90639 0.139211 7.00926 0.189517C7.11213 0.239823 7.19657 0.321208 7.25063 0.422152L10.3054 6.12028L11.5232 3.80165C11.5695 3.7137 11.6389 3.64007 11.724 3.5887C11.8091 3.53734 11.9066 3.51019 12.006 3.51019C12.1054 3.51019 12.2029 3.53734 12.288 3.5887C12.3731 3.64007 12.4425 3.7137 12.4888 3.80165L14.6709 7.95196L3.30188 19.3385H3.30225Z"
            fill="white" fill-opacity="0.2" />
        <path opacity="0.2"
            d="M12.7686 23.6587C12.5247 23.7949 12.2501 23.8664 11.9708 23.8664C11.6915 23.8664 11.4168 23.7949 11.1729 23.6587L3.29513 19.2431L3.276 19.3644L11.1726 23.7913C11.4164 23.9274 11.6911 23.9989 11.9704 23.9989C12.2497 23.9989 12.5243 23.9274 12.7682 23.7913L20.7332 19.3644L20.7126 19.2388L12.7682 23.6591L12.7686 23.6587Z"
            fill="#A52714" />
    </g>
    <defs>
        <clipPath id="clip0_434_145">
            <rect width="24" height="24" fill="white" />
        </clipPath>
    </defs>
</svg>
    