<svg width="24" height="24" viewBox="0 0 24 24" fill="none" xmlns="http://www.w3.org/2000/svg">
    <path
        d="M8.3325 18.8682C7.53937 18.2438 6.69375 17.6457 6.11437 16.8038C4.8975 15.3188 3.96 13.5976 3.32062 11.7901C2.9325 10.6145 2.80125 9.35446 2.30062 8.22383C1.77937 7.40258 2.39062 6.50633 3.28875 6.24571C3.68812 6.16883 4.39312 5.79008 3.54375 6.06196C2.7825 6.62071 2.70937 5.55383 3.48937 5.48633C4.02187 5.41508 4.21875 4.98008 4.03687 4.58633C3.465 4.21321 5.42437 3.80258 4.43812 3.24571C3.41062 2.13758 5.87437 1.92383 5.26687 3.18383C5.1225 4.15133 6.98812 3.00571 6.555 4.12321C6.99562 4.65946 8.205 4.24508 8.17312 4.99883C8.81437 5.04383 9.03562 5.58196 9.63562 5.62321C10.26 5.90446 11.3906 6.12758 11.6025 6.83071C10.9837 7.32008 9.54937 5.81821 9.48187 7.17571C9.66937 9.18008 9.62062 11.2445 10.3537 13.1532C10.7006 14.3082 11.5406 15.2176 12.3 16.1176C13.0275 16.9988 14.01 17.6195 15.015 18.1426C15.8944 18.557 16.8431 18.8326 17.8031 19.0051C18.1912 18.707 18.8794 17.6026 19.485 18.0676C19.515 18.5926 18.2812 19.1626 19.4269 19.1063C20.1 18.9038 20.5669 19.6257 21.1219 18.9732C21.6319 19.5788 23.2444 18.587 22.8806 19.8226C22.3894 20.1395 21.6731 19.9482 21.18 20.3851C20.3681 19.9801 19.7231 20.747 18.825 20.6513C17.8275 20.8295 16.8131 20.9026 15.8006 20.9026C14.1412 20.7713 12.4462 20.717 10.8694 20.1395C9.98062 19.8807 9.1125 19.3745 8.3325 18.8682ZM9.73312 19.4757C10.6012 19.8507 11.4506 20.2463 12.4012 20.3663C13.9106 20.5763 15.4706 20.8988 16.9856 20.6045C16.2994 20.2951 15.5906 20.7245 14.9081 20.3832C14.0887 20.5595 13.2094 20.3382 12.3769 20.2295C11.43 19.8076 10.4081 19.517 9.52125 18.9695C8.41312 18.5645 10.095 19.4888 10.3931 19.5638C11.085 19.9576 9.63187 19.3613 9.42562 19.1982C8.84625 18.872 8.77125 18.9413 9.3675 19.2713C9.4875 19.3407 9.6075 19.4157 9.73312 19.4757ZM8.08125 18.3076C8.92312 18.6188 8.0775 17.7151 7.69312 17.7676C7.5225 17.4713 7.04062 17.2838 7.38 17.1245C6.76875 17.3363 6.73875 16.3182 6.45187 16.4626C5.805 16.2582 6.20062 15.5345 5.43 15.0901C5.36062 14.6213 4.665 14.2163 4.44375 13.5095C4.34625 13.1476 3.65812 12.1107 4.08 13.0763C4.44 14.0063 5.07187 14.8032 5.59875 15.5982C6.0075 16.3557 6.49125 17.147 7.23375 17.6195C7.485 17.8632 7.72687 18.2326 8.08125 18.3076ZM5.65687 15.647C5.81062 15.9207 5.68687 15.5195 5.65687 15.647ZM9.08812 18.6807C9.27562 18.5982 8.82 18.5757 9.08812 18.6807ZM9.54562 18.8476C9.49875 18.617 9.3375 18.977 9.54562 18.8476ZM10.1175 19.0857C10.3894 18.827 9.6975 18.9226 10.1175 19.0857ZM11.0962 19.6313C11.2631 19.3876 10.5675 19.5395 11.0962 19.6313ZM9.21562 18.3207C9.6375 18.047 8.67 18.317 9.21562 18.3207ZM9.645 18.5345C9.63187 18.3901 9.49125 18.5982 9.645 18.5345ZM11.7881 19.8713C12.1331 20.0888 13.8 20.3476 12.7556 19.9613C12.5812 19.9988 10.8187 19.4626 11.7881 19.8713ZM8.385 17.222C8.35125 17.0776 7.85062 17.0626 8.385 17.222ZM9.3825 17.8032C9.64312 17.6232 8.84437 17.6645 9.3825 17.8032ZM10.2225 18.3188C10.5937 18.1782 9.61687 18.1782 10.2225 18.3188ZM7.97812 16.7795C8.38312 17.0888 9.60937 16.8188 8.59687 16.5938C8.1375 16.3482 7.09875 16.1813 7.80562 16.742L7.97812 16.7795ZM10.7906 18.497C10.9594 18.2101 10.0837 18.332 10.7906 18.497ZM9.93562 17.8163C10.9237 18.0957 9.105 17.1901 9.69187 17.7132L9.82312 17.7732L9.93562 17.8163ZM11.6494 18.8063C12.585 18.8157 10.8037 18.6788 11.6494 18.8063ZM7.61812 16.2376C7.5825 16.0632 7.3875 16.2526 7.61812 16.2376ZM13.2319 19.6951C13.2581 19.3801 12.9281 19.9295 13.2319 19.6951ZM9.21562 17.2163C9.15937 17.0513 8.92312 17.2088 9.21562 17.2163ZM7.70812 16.1288C8.24437 16.097 6.97125 15.8926 7.70812 16.1288ZM5.91937 14.9738C5.85187 14.7151 5.33437 14.5107 5.91937 14.9738ZM10.6125 17.9513C10.5656 17.9757 10.515 17.8388 10.6125 17.9513ZM13.5337 19.7438C13.5244 19.5732 13.3744 19.8095 13.5337 19.7438ZM10.3537 17.6851C10.4062 17.4638 9.89625 17.6176 10.3537 17.6851ZM8.17875 16.3051C8.57812 16.262 7.5375 16.0351 8.17875 16.3051ZM11.8594 18.5926C12.4819 18.3451 11.2519 18.4726 11.8594 18.5926ZM9.945 17.2932C10.6631 17.3851 9.09 16.8038 9.7875 17.2407L9.945 17.2932ZM12.4406 18.8288C13.1119 18.4276 12.8906 19.7682 13.5787 18.9413C14.2575 18.4463 12.9919 19.5545 13.8281 19.0295C14.4337 18.6245 15.3262 19.2207 15.8906 19.4157C16.2956 19.3951 16.6912 19.7663 17.1075 19.5413C17.9081 19.3257 15.54 19.2207 16.1606 18.8382C15.4275 19.052 14.8856 18.5832 14.5256 18.1145C13.7025 17.9251 12.7519 17.5051 12.3412 16.7757C12.1744 16.502 12.5831 16.8151 12.1969 16.367C11.7019 15.9263 11.4544 15.4257 11.1225 14.8895C10.725 14.6776 10.6781 14.0532 10.6387 14.8688C10.6425 14.3551 10.1587 14.0082 10.0406 14.1526C10.0387 13.6576 10.5581 13.9051 10.1944 13.5395C10.1156 13.0257 9.85875 12.4913 9.78187 11.912C9.66187 11.6326 9.765 11.0345 9.37125 11.6663C9.22875 12.3357 9.32437 10.8451 9.5475 11.3363C9.84 10.8357 9.4425 10.8938 9.42562 10.9632C9.61687 10.5395 9.54562 9.93946 9.375 10.1682C9.47625 9.72008 9.53625 8.51821 9.22312 8.73196C9.4125 8.26321 9.58312 6.58696 8.76 7.22633C8.42625 7.23196 7.85062 7.34633 7.57687 7.48321C8.43187 7.95383 7.49062 7.65383 7.14187 7.57883C7.09687 8.01571 6.75187 7.82633 6.32062 7.83008C7.00875 7.91446 5.985 8.53321 5.59125 8.29321C5.0775 8.53883 6.03375 9.15008 5.60062 9.33946C5.65312 9.62446 4.815 9.23633 4.88062 9.89446C4.38375 9.68446 4.81312 10.6745 5.06062 10.3407C5.90625 10.5695 5.65687 11.0926 5.6775 11.5876C5.53875 11.8763 4.99687 10.9088 5.5575 10.9538C5.115 10.2357 5.06812 10.6951 4.7025 11.027C4.61812 11.0513 5.63812 11.5013 4.99687 11.7245C5.56125 11.8126 5.57812 12.3057 5.6925 12.617C6.03187 12.9695 5.9625 12.227 6.3675 12.6507C6.11062 12.272 5.00812 11.5857 5.895 11.8051C5.88937 11.4245 5.73375 11.117 6.0075 11.1245C6.2775 10.637 5.72437 12.3282 6.33187 11.7076C6.50062 11.6345 6.54187 11.2201 6.84375 11.747C7.2825 12.1782 7.00312 12.4913 6.3825 12.0957C6.49312 12.4726 7.21125 12.6057 7.07625 13.1945C7.21875 13.712 7.41937 13.5207 7.59375 13.4907C7.73062 13.9932 7.8075 13.6238 7.815 13.3838C8.44125 13.5188 8.295 13.8882 8.49 14.147C8.92125 14.342 7.87312 12.827 8.61375 13.6913C9.39375 14.3945 8.90625 14.6888 8.20687 14.5763C8.64937 14.5407 8.79187 15.1745 9.345 15.152C9.84937 15.392 10.1925 16.3145 9.3225 15.9301C9.02062 15.6582 7.95187 15.3226 8.82562 15.8401C9.63187 16.2132 10.2712 16.4363 11.0494 16.9051C11.6044 17.3026 11.8462 17.7563 12.0562 17.8463C11.5894 18.0695 10.6481 17.6682 11.3475 17.5445C10.9106 17.4657 10.4212 17.2445 10.8394 17.7882C11.1937 18.0845 12.0975 18.0545 12.2606 18.0863C12.1237 18.3882 11.8875 18.4126 12.2662 18.4351C11.8444 18.6638 12.4012 18.6995 12.4406 18.8288ZM11.5781 16.3913C11.3212 16.1232 11.2556 15.6207 11.5331 16.0576C11.6737 16.1138 11.9887 16.8788 11.5781 16.3913ZM14.3887 18.1763C14.5481 18.1651 14.3925 18.2982 14.3887 18.1763ZM11.1731 15.7332C11.265 16.0463 11.1619 15.3263 11.1731 15.7332ZM10.8937 15.3563C11.3006 15.5345 10.5694 14.7338 10.8937 15.3563ZM7.5075 13.0201C7.69687 12.9695 7.60125 13.3445 7.5075 13.0201ZM10.2019 14.4807C10.3387 14.8482 10.3181 14.0438 10.2019 14.4807ZM8.29875 13.157C8.58 13.3838 8.16562 12.9151 8.29875 13.157ZM9.93187 13.6801C9.62625 12.9957 10.1494 13.3051 9.99937 13.7926L9.93187 13.6801ZM7.11562 11.8032C6.97875 11.5782 6.75375 10.9182 6.825 10.7176C6.89062 11.0457 7.5225 12.1295 7.13437 11.1657C6.70687 10.3595 7.64625 11.4282 7.74375 11.6288C7.78875 11.8295 7.47937 11.5745 7.68937 12.0432C7.30687 11.5088 7.46437 12.3395 7.11562 11.8032ZM6.24562 11.2032C6.44437 11.5613 6.28125 10.6801 6.24562 11.2032ZM6.63562 11.3382C6.9525 11.8876 6.82312 10.9426 6.63562 11.3382ZM5.69437 10.6088C5.37 10.2863 5.13562 9.99008 5.70937 10.4082C5.93062 10.4176 5.21812 9.73321 5.76187 10.1907C6.33562 10.2957 6.045 11.1301 5.69437 10.6088ZM6.18937 10.5957C6.37687 10.4101 6.28875 10.7795 6.18937 10.5957ZM6.49312 10.6932C6.84 10.9182 6.20812 10.1588 6.49312 10.6932ZM5.88937 10.1157C4.94812 9.27758 7.0725 10.5545 6.04312 10.2713L5.88937 10.1157ZM8.5875 11.6832C8.17875 11.4395 8.47875 9.96196 8.6175 10.9726C9.01312 10.8451 8.595 11.4938 8.89125 11.4882C8.84625 11.897 8.71312 12.0451 8.5875 11.6832ZM9.58687 12.2738C9.67125 12.5776 9.62625 11.8276 9.58687 12.2738ZM9.4125 12.1013C9.4575 11.912 9.41812 12.3263 9.4125 12.1013ZM6.07312 9.84008C5.4675 9.00571 7.83187 10.6857 6.46125 10.052C6.31687 10.0126 6.14437 9.99946 6.07312 9.84008ZM7.99687 10.8582C8.12437 10.9745 7.93875 10.1551 7.99687 10.8582ZM9.45562 11.7957C9.56812 11.3945 9.465 12.0601 9.45562 11.7957ZM6.16687 9.52133C6.52687 9.44446 7.6575 10.1532 6.61875 9.72383C6.5025 9.59446 6.25687 9.65258 6.16687 9.52133ZM9.255 11.0607C9.2925 10.3407 9.47062 10.6313 9.25687 11.1638L9.255 11.0607ZM6.43312 9.27008C6.57937 9.05446 6.04312 8.29883 6.51 8.99821C6.7125 9.15758 7.09312 9.26633 6.75562 9.33383C7.28812 9.80258 6.62812 9.46133 6.43312 9.27008ZM9.10312 10.8357C9.20437 10.0163 9.19125 11.3157 9.10312 10.8357ZM6.1275 8.51446C6.24 8.46571 6.1875 8.66258 6.1275 8.51446ZM6.82312 8.92883C7.155 9.34696 7.00312 8.55196 6.82312 8.92883ZM8.78625 10.0201C8.82375 10.2301 8.78625 9.87571 8.78625 10.0201ZM8.67375 9.76883C8.92687 10.1251 8.40187 9.09571 8.67375 9.76883ZM8.50687 9.32821C8.6625 9.67696 8.46 9.05071 8.50687 9.32821ZM8.77875 8.88571C8.59125 8.55571 9.015 7.43258 9.06187 8.13008C8.865 8.67196 9.00562 8.97571 9.1425 8.24821C9.3975 7.67446 9.08812 9.37696 8.77875 8.88571ZM9.05812 7.21508C9.14062 7.11571 9.07687 7.33696 9.05812 7.21508ZM8.59125 16.4251C8.60437 16.487 8.48062 16.3276 8.59125 16.4251ZM9.55312 16.9126C10.0894 17.0513 10.0856 16.8301 9.60187 16.7645C9.34125 16.5226 8.52 16.2657 9.255 16.7345C9.30562 16.8563 9.45937 16.8526 9.55312 16.9126ZM7.65187 15.6488C7.94625 15.8701 8.76375 16.2713 8.07187 15.7332C8.30437 15.4632 7.62562 15.3188 7.85062 15.137C7.27687 14.7863 7.39875 14.8182 7.8 14.8295C7.11187 14.522 7.89937 14.5445 7.86187 14.387C7.59562 14.3345 6.54375 13.9182 7.1625 14.4207C6.5325 14.1001 7.0125 14.5407 6.82125 14.4938C6.17625 14.3176 7.395 14.9851 6.72 14.8182C7.08937 15.1107 7.71375 15.5682 6.87562 15.1276C6.76875 15.287 7.4775 15.5288 7.65187 15.6488ZM8.65875 16.2282C9.88312 16.622 8.05875 15.7445 8.65875 16.2282ZM13.815 19.3501C13.83 19.1063 13.6462 19.5582 13.815 19.3501ZM14.3437 19.5732C14.6269 19.2995 14.355 20.0101 14.8125 19.5057C14.8181 19.1457 14.7994 18.932 14.2875 19.3707C14.1469 19.4495 14.0831 19.7813 14.3437 19.5732ZM5.93437 14.2913C5.84625 13.9501 5.325 13.952 5.93437 14.2913ZM6.49875 14.6626C6.28875 14.3138 5.74875 14.3476 6.49875 14.6626ZM9.71812 16.6032C10.0331 16.8826 11.1619 16.8076 10.0987 16.637C9.94312 16.4045 9.10125 16.4607 9.71812 16.6032ZM14.1431 19.3351C14.625 18.9301 13.6744 19.517 14.1431 19.3351ZM15.1481 20.027C15.1519 19.8976 14.94 20.0832 15.1481 20.027ZM15.15 19.8451C15.6862 19.277 14.6306 19.8788 15.15 19.8451ZM4.54125 13.127C4.08562 12.4763 4.25812 12.1838 3.8175 11.6513C3.73312 11.2445 3.06187 10.322 3.47062 11.2988C3.84375 11.8707 3.95437 12.7557 4.54125 13.127ZM14.9812 19.6651C15.9675 19.0276 14.5781 19.3876 14.9812 19.6651ZM15.7331 19.9595C16.2281 19.5357 15.4219 19.8713 15.7331 19.9595ZM5.76562 13.5713C5.90812 13.3613 5.40187 13.5451 5.76562 13.5713ZM15.5775 19.757C16.0556 19.4495 15.4669 19.4963 15.4912 19.7851L15.5775 19.757ZM9.09375 15.6713C9.07687 15.4632 8.84062 15.6882 9.09375 15.6713ZM9.495 15.902C9.36562 15.6432 9.29812 15.9413 9.495 15.902ZM16.3444 19.9651C16.9575 19.5226 15.9731 19.8807 16.2169 20.0495L16.3444 19.9651ZM16.1081 19.8526C16.6087 19.4345 15.5831 20.0382 16.1081 19.8526ZM17.3062 20.6495C17.6419 20.4263 16.8994 20.5782 17.3062 20.6495ZM6.07312 13.4195C6.52125 13.5207 7.86562 14.5238 7.0725 13.4888C6.66562 13.3688 6.90937 12.3751 6.495 12.5513C6.7725 13.0163 6.72375 13.2132 6.13875 12.9207C5.40562 12.5626 5.72625 13.097 5.87062 13.2451C5.67562 13.292 6.13125 13.4157 6.07312 13.4195ZM4.02937 11.8051C4.11 11.4732 3.28875 9.97696 3.64125 11.0551C3.76875 11.282 3.75562 11.7095 4.02937 11.8051ZM7.78125 14.1188C7.77 14.0907 7.55062 13.9257 7.78125 14.1188ZM8.34937 14.252C8.34937 13.8995 7.72125 14.1076 8.34937 14.252ZM13.2806 17.3588C13.1869 17.1188 12.9094 17.3551 13.2806 17.3588ZM13.5169 17.5332C13.4831 17.3982 13.3819 17.5595 13.5169 17.5332ZM15.4725 18.7632C15.66 18.6245 15.2381 18.7463 15.4725 18.7632ZM5.04937 12.0657C5.5875 11.8576 4.47375 11.9176 5.04937 12.0657ZM12.8475 16.9782C12.84 16.6295 12.5044 17.0645 12.8475 16.9782ZM4.8375 11.5707C5.1825 11.4545 4.51687 11.4938 4.8375 11.5707ZM5.83875 12.0563C5.83312 11.942 5.73375 12.0995 5.83875 12.0563ZM18.0675 19.5545C18.5119 19.4645 19.5244 19.7813 19.6875 19.4363C19.1475 19.4232 17.8219 19.0557 17.76 19.5226L17.8781 19.5413L18.0675 19.5545ZM6.1575 12.137C6.16687 11.7845 5.88375 12.1238 6.1575 12.137ZM3.52312 10.3088C3.40312 9.63758 3.0675 10.2076 3.52312 10.3088ZM4.15125 10.4663C4.15875 10.2507 3.57562 10.2732 4.15125 10.4663ZM4.50937 10.6426C4.42875 10.7495 4.40625 10.5601 4.50937 10.6426ZM6.77062 12.092C6.8775 11.9945 6.5175 12.0207 6.77062 12.092ZM4.27125 10.2451C4.20937 9.73696 3.54375 10.1701 4.27125 10.2451ZM2.98312 9.40883C2.96437 9.17446 2.8575 9.49696 2.98312 9.40883ZM3.17437 9.26446C3.1425 8.98696 3.00937 9.30008 3.17437 9.26446ZM4.23375 9.89633C4.68187 9.72008 3.41812 9.53258 4.14187 9.86258L4.23375 9.89633ZM18.4069 18.6507C18.6937 18.3882 18.0431 18.5701 18.4069 18.6507ZM20.1187 19.5395C20.2331 19.2001 19.83 19.5826 20.1187 19.5395ZM4.34062 9.34133C4.38937 9.01321 3.98625 9.40696 4.34062 9.34133ZM2.835 8.33258C2.75437 7.86946 2.76562 7.05383 3.54 7.32946C2.50687 7.53571 4.25625 8.61383 4.035 7.76258C4.47 7.78321 4.88437 7.50571 4.6575 7.92758C5.51437 7.83383 6.10687 7.09133 6.93375 7.19446C7.57875 7.10821 8.28187 7.04446 8.97562 6.78571C9.54562 6.74446 10.095 6.12946 9.78375 5.76571C9.00562 5.70008 8.19 5.79758 7.33125 5.96821C6.37875 6.16696 5.5125 6.54196 4.55062 6.70508C3.61312 6.83071 4.73812 7.05196 4.47 7.10071C3.98062 7.26946 5.05312 7.38571 4.40625 7.56383C4.00687 7.48696 3.59062 7.35008 3.76125 6.93008C2.86312 7.04633 2.07375 7.41946 2.78437 8.33258H2.835ZM4.99875 7.23008C5.20875 6.45383 6.12562 7.86758 5.34375 7.33321C5.25 7.26196 5.09625 7.20571 4.99875 7.23008ZM5.04 6.85321C5.34375 6.62821 5.20125 6.98071 5.04 6.85321ZM5.42625 6.86071C5.45437 6.50446 6.30937 7.05008 5.56687 6.98821L5.42625 6.86071ZM5.95312 6.64696C6.14625 6.42196 6.00937 6.84758 5.95312 6.64696ZM6.08812 6.55696C6.40875 6.17071 7.905 6.31133 6.81 6.51946C6.5175 6.29821 6.2925 6.65071 6.08812 6.55696ZM8.04187 6.25696C9.01312 6.63008 7.99312 5.20321 8.04187 6.25696ZM8.59687 6.25321C8.79937 5.72258 9.38437 6.03946 8.69062 6.14633C8.70562 6.20258 8.67 6.42008 8.59687 6.25321ZM4.12312 9.06946C4.72875 8.69821 3.48 8.74696 4.12312 9.06946ZM4.57125 9.19321C4.78312 8.96821 4.11 9.10133 4.57125 9.19321ZM3.25125 8.25758C3.59812 7.99133 2.8425 8.15633 3.25125 8.25758ZM21.1294 19.442C21.1387 19.1326 20.865 19.5807 21.1294 19.442ZM19.3125 18.2026C19.365 17.8463 19.08 18.2326 19.3125 18.2026ZM21.63 19.562C22.1137 19.5638 23.0962 19.412 22.0425 19.412C21.8775 19.4363 21.0806 19.4326 21.63 19.562ZM4.965 8.97571C5.35687 8.94946 5.57812 8.54446 4.88812 8.56696C3.82125 8.45633 5.82937 8.93258 4.75125 8.79571C4.60687 8.89133 4.95562 9.00196 4.965 8.97571ZM5.31 9.15008C5.26875 8.89883 5.18812 9.28321 5.31 9.15008ZM5.71875 8.05883C5.8875 7.84883 5.4825 8.00258 5.71875 8.05883ZM4.41562 5.88383C5.115 5.64571 6.06937 5.37946 6.39937 6.00008C6.06375 5.59696 6.26437 5.19758 6.58125 5.79008C7.02937 6.38821 7.25437 5.51821 6.96187 5.31758C7.29375 5.73008 7.6725 5.92508 7.185 5.34383C7.71562 4.70633 6.12375 5.42821 5.76187 5.42071C5.58937 5.49758 3.96562 5.83321 4.41562 5.88383ZM4.82625 5.10008C5.22562 4.80008 6.20437 5.28008 5.57625 4.80196C5.51437 4.74571 4.19812 5.16383 4.82625 5.10008ZM6.27937 5.16008C6.74625 5.17133 6.07875 4.53383 6.63375 4.82258C6.54187 4.52446 5.98687 4.46821 5.715 4.35008C5.56125 4.62196 6.02625 5.16383 6.27937 5.16008ZM5.08125 3.84008C5.2425 3.62258 4.79812 3.95258 5.08125 3.84008ZM5.67375 3.98258C6.42562 3.88321 5.4825 3.66008 5.52187 3.97508L5.67375 3.98258ZM4.56562 3.11633C4.03687 2.42446 5.56125 3.23258 5.02312 2.50883C4.57125 2.14883 4.13625 2.91383 4.56562 3.11633ZM11.355 6.77258C11.5969 6.34321 10.3537 6.19321 11.1919 6.62071C11.2706 6.64696 11.2519 6.80258 11.355 6.77258Z"
        fill="#EA2D2E" />
</svg>
    