<svg width="24" height="24" viewBox="0 0 24 24" fill="none" xmlns="http://www.w3.org/2000/svg">
    <path
        d="M15.1125 7.55619H15.1875L15.15 7.51869L17.775 4.89369V4.83744C15.5625 2.88744 12.5063 2.21244 9.67501 3.05619C6.84376 3.89994 4.66876 6.14994 3.88126 8.99994C3.91876 8.98119 3.97501 8.96244 4.03126 8.96244C5.00626 8.32494 6.16876 7.94994 7.38751 7.94994C7.80001 7.94994 8.19376 7.98744 8.58751 8.06244C8.60626 8.04369 8.62501 8.04369 8.64376 8.04369C10.3313 6.18744 13.1813 5.96244 15.1313 7.55619H15.1125Z"
        fill="#EA4535" />
    <path
        d="M20.2687 8.9626C19.8375 7.36885 18.9375 5.9251 17.6812 4.81885L15 7.48135C16.125 8.4001 16.7812 9.7876 16.7437 11.2313V11.7001C19.9125 11.7001 19.9125 16.4251 16.7437 16.4251H11.9812V20.1751H11.9625L11.9812 20.2126H16.7437C19.4812 20.2313 21.9 18.4688 22.7062 15.8813C23.5125 13.2938 22.5187 10.4813 20.2687 8.9626Z"
        fill="#557EBF" />
    <path
        d="M7.31251 20.2313H12.2438V16.4438H7.31251C6.95626 16.4438 6.61876 16.3688 6.30001 16.2375L3.45001 18.975V19.0125C4.57501 19.8188 5.92501 20.25 7.33126 20.25L7.31251 20.2313Z"
        fill="#36A852" />
    <path
        d="M7.53751 7.8562C4.74376 7.87495 2.26876 9.59995 1.36876 12.1312C0.468756 14.6812 1.36876 17.475 3.58126 19.1249L6.50626 16.3312C4.89376 15.6374 4.51876 13.6125 5.75626 12.4312C6.99376 11.2312 9.09376 11.6062 9.82501 13.1437L12.75 10.35C11.5125 8.7937 9.58126 7.87495 7.53751 7.8937V7.8562Z"
        fill="#F9BC15" />
</svg>
    