<svg width="24" height="24" viewBox="0 0 24 24" fill="none" xmlns="http://www.w3.org/2000/svg">
    <g clip-path="url(#clip0_436_182)">
        <path
            d="M23.3882 10.946L13.0539 0.612115C12.4592 0.0169902 11.4939 0.0169902 10.8983 0.612115L8.7525 2.75824L11.4746 5.48037C12.1074 5.2668 12.8327 5.41005 13.3369 5.91424C13.8437 6.42162 13.9858 7.15305 13.767 7.78793L16.3905 10.4116C17.0252 10.1928 17.7578 10.3342 18.2644 10.8419C18.9731 11.5501 18.9731 12.6982 18.2644 13.4067C18.096 13.5752 17.896 13.7089 17.6759 13.8001C17.4558 13.8913 17.2198 13.9383 16.9816 13.9383C16.7433 13.9383 16.5074 13.8913 16.2873 13.8001C16.0672 13.7089 15.8672 13.5752 15.6988 13.4067C15.4458 13.1535 15.2733 12.8311 15.203 12.4801C15.1328 12.1291 15.168 11.7651 15.3041 11.4341L12.8576 8.98755L12.8573 15.4265C13.0348 15.5139 13.1968 15.6297 13.3371 15.7692C14.0454 16.4774 14.0454 17.6251 13.3371 18.3348C12.6285 19.043 11.4801 19.043 10.7723 18.3348C10.0639 17.6253 10.0639 16.4776 10.7723 15.7692C10.942 15.5993 11.1438 15.4648 11.3661 15.3736V8.87505C11.1436 8.78415 10.9417 8.64956 10.7723 8.47924C10.2356 7.94299 10.1064 7.15549 10.3817 6.49624L7.698 3.81255L0.612003 10.8982C0.326124 11.1841 0.165527 11.5719 0.165527 11.9763C0.165527 12.3807 0.326124 12.7685 0.612003 13.0544L10.9464 23.3883C11.5416 23.9834 12.5064 23.9834 13.1025 23.3883L23.3884 13.1024C23.6742 12.8164 23.8347 12.4285 23.8347 12.0242C23.8347 11.6198 23.6741 11.232 23.3882 10.946Z"
            fill="#F34F29" />
    </g>
    <defs>
        <clipPath id="clip0_436_182">
            <rect width="24" height="24" fill="white" />
        </clipPath>
    </defs>
</svg>
    