<svg width="24" height="24" viewBox="0 0 24 24" fill="none" xmlns="http://www.w3.org/2000/svg">
    <g clip-path="url(#clip0_434_116)">
        <path
            d="M19.4869 3.22599C18.7083 3.33258 17.9818 3.67763 17.4072 4.21374C17.3715 4.24737 17.3429 4.28771 17.323 4.33244C17.303 4.37717 17.2921 4.42541 17.2909 4.47437C17.2915 4.57292 17.3303 4.66738 17.3993 4.7378L17.8727 5.22774C17.9344 5.28956 18.0164 5.32705 18.1035 5.33331C18.1907 5.33958 18.2771 5.31421 18.3471 5.26187C18.7231 4.97806 19.1817 4.8252 19.6528 4.82668C20.0847 4.82505 20.5073 4.95182 20.8669 5.19089C21.2266 5.42995 21.5071 5.77052 21.6727 6.16933C21.8384 6.56814 21.8818 7.00719 21.7974 7.43072C21.713 7.85425 21.5047 8.24314 21.1988 8.54799C18.1782 11.569 14.1458 3.10599 4.99447 7.45993C4.83896 7.53273 4.70019 7.63692 4.58691 7.76596C4.47362 7.89499 4.38826 8.04607 4.3362 8.2097C4.28414 8.37332 4.26651 8.54595 4.28441 8.71673C4.30231 8.8875 4.35536 9.05272 4.44022 9.20199L6.00866 11.9162C6.17241 12.1986 6.44052 12.4053 6.75522 12.4918C7.06993 12.5783 7.40602 12.5377 7.69109 12.3788L7.72916 12.3574L7.69916 12.3788L8.39478 11.9884C9.17 11.5068 9.90244 10.9596 10.584 10.3527C10.6539 10.2928 10.7428 10.2599 10.8348 10.2599C10.9268 10.2599 11.0158 10.2928 11.0856 10.3527C11.1278 10.3856 11.1621 10.4276 11.1858 10.4756C11.2095 10.5235 11.222 10.5763 11.2225 10.6298C11.2233 10.6819 11.2131 10.7336 11.1924 10.7815C11.1716 10.8293 11.1409 10.8721 11.1023 10.9071C10.3845 11.5444 9.61212 12.1176 8.79416 12.6199H8.77166L8.07566 13.0082C7.7816 13.1744 7.44926 13.2608 7.11153 13.2591C6.76249 13.2592 6.41949 13.168 6.11659 12.9946C5.81369 12.8212 5.56142 12.5715 5.38484 12.2704L3.90134 9.70656C1.05247 11.7188 -0.676282 15.5963 0.252218 20.5156C0.268738 20.5979 0.313065 20.672 0.377761 20.7255C0.442457 20.779 0.523584 20.8086 0.607531 20.8094H2.29784C2.38568 20.8093 2.47045 20.7771 2.53622 20.7189C2.602 20.6606 2.64425 20.5804 2.65503 20.4932C2.73037 19.8951 3.02142 19.3451 3.47355 18.9463C3.92567 18.5476 4.50779 18.3276 5.11062 18.3276C5.71346 18.3276 6.29558 18.5476 6.7477 18.9463C7.19983 19.3451 7.49087 19.8951 7.56622 20.4932C7.57759 20.5805 7.62029 20.6607 7.68638 20.7189C7.75247 20.777 7.83744 20.8092 7.92547 20.8094H9.57284C9.66068 20.8093 9.74545 20.7771 9.81122 20.7189C9.877 20.6606 9.91925 20.5804 9.93003 20.4932C10.0074 19.8963 10.2994 19.3478 10.7516 18.9505C11.2038 18.5531 11.7851 18.3339 12.3871 18.3339C12.9891 18.3339 13.5705 18.5531 14.0227 18.9505C14.4748 19.3478 14.7669 19.8963 14.8442 20.4932C14.855 20.5804 14.8973 20.6606 14.963 20.7189C15.0288 20.7771 15.1136 20.8093 15.2014 20.8094H16.8274C16.9221 20.8096 17.013 20.7725 17.0806 20.7062C17.1482 20.6399 17.187 20.5497 17.1885 20.455C17.2273 18.1632 17.8453 15.5299 19.608 14.2107C25.7134 9.64337 24.1093 5.72818 22.696 4.30637C22.2808 3.89079 21.775 3.577 21.2182 3.38956C20.6615 3.20212 20.0689 3.14614 19.4869 3.22599ZM15.8798 9.91243C16.0439 9.87617 16.2155 9.89752 16.3657 9.97289C16.5159 10.0483 16.6356 10.1731 16.7047 10.3263C16.7737 10.4795 16.7879 10.6519 16.7448 10.8143C16.7017 10.9768 16.604 11.1195 16.4682 11.2184V11.2146L15.3038 10.6298C15.3032 10.4624 15.3601 10.2998 15.4649 10.1693C15.5697 10.0387 15.7162 9.94804 15.8798 9.91243Z"
            fill="#00A8E1" />
    </g>
    <defs>
        <clipPath id="clip0_434_116">
            <rect width="24" height="24" fill="white" />
        </clipPath>
    </defs>
</svg>
    