<svg width="24" height="24" viewBox="0 0 24 24" fill="none" xmlns="http://www.w3.org/2000/svg">
    <path d="M3.44813 18.1597L2.58563 17.6615L12.195 1.0188L13.0569 1.5168L3.44813 18.1597Z"
        fill="#E434AA" />
    <path d="M2.38763 16.332H21.6056V17.3277H2.38763V16.332Z" fill="#E434AA" />
    <path
        d="M12.3808 22.4415L2.76862 16.8918L3.26662 16.029L12.879 21.5793L12.3808 22.4415ZM20.7311 7.97677L11.1189 2.42639L11.6169 1.56445L21.2293 7.11389L20.7311 7.97677Z"
        fill="#E434AA" />
    <path d="M3.26888 7.9731L2.77069 7.11042L12.3838 1.56079L12.8818 2.42292L3.26888 7.9731Z"
        fill="#E434AA" />
    <path
        d="M20.5539 18.1597L10.9453 1.5168L11.8074 1.0188L21.4168 17.6615L20.5539 18.1597ZM3.14999 6.44955H4.14618V17.5503H3.15018L3.14999 6.44955Z"
        fill="#E434AA" />
    <path d="M19.8538 6.44946H20.8498V17.5502H19.8538V6.44946Z" fill="#E434AA" />
    <path d="M12.2117 22.0201L11.7767 21.2664L20.1366 16.4392L20.5716 17.193L12.2117 22.0201Z"
        fill="#E434AA" />
    <path
        d="M22.1696 17.874C21.594 18.876 20.31 19.218 19.3082 18.6423C18.3062 18.066 17.9642 16.782 18.5398 15.78C19.1162 14.778 20.4002 14.436 21.4022 15.0118C22.41 15.594 22.752 16.872 22.1696 17.874ZM5.45438 8.21995C4.878 9.22195 3.594 9.56395 2.592 8.98814C1.59 8.41177 1.248 7.12795 1.82382 6.12595C2.40019 5.12395 3.684 4.78195 4.686 5.35758C5.688 5.93995 6.03 7.21795 5.45438 8.21995ZM1.83038 17.874C1.25382 16.872 1.596 15.594 2.59782 15.0116C3.59982 14.436 4.87782 14.778 5.46019 15.78C6.03582 16.782 5.69382 18.06 4.69182 18.6423C3.684 19.218 2.406 18.876 1.83038 17.874ZM18.5456 8.21995C17.97 7.21795 18.312 5.93995 19.314 5.35758C20.316 4.78195 21.594 5.12395 22.1762 6.12595C22.7518 7.12795 22.41 8.40595 21.408 8.98833C20.406 9.56395 19.122 9.22195 18.5456 8.21995ZM12 23.748C11.7249 23.7482 11.4525 23.6942 11.1984 23.5891C10.9442 23.4839 10.7133 23.3297 10.5188 23.1352C10.3243 22.9407 10.17 22.7098 10.0649 22.4556C9.95975 22.2014 9.90576 21.929 9.906 21.654C9.90576 21.3789 9.95975 21.1065 10.0649 20.8523C10.17 20.5982 10.3243 20.3672 10.5188 20.1727C10.7133 19.9782 10.9442 19.824 11.1984 19.7188C11.4525 19.6137 11.7249 19.5597 12 19.56C12.2751 19.5597 12.5475 19.6137 12.8016 19.7188C13.0558 19.824 13.2867 19.9782 13.4812 20.1727C13.6757 20.3672 13.83 20.5982 13.9351 20.8523C14.0403 21.1065 14.0942 21.3789 14.094 21.654C14.094 22.8061 13.158 23.748 12 23.748ZM12 4.43995C11.7249 4.4402 11.4525 4.38621 11.1984 4.28106C10.9442 4.17591 10.7133 4.02168 10.5188 3.82719C10.3243 3.63269 10.17 3.40175 10.0649 3.14758C9.95975 2.89342 9.90576 2.62101 9.906 2.34595C9.90576 2.0709 9.95975 1.79849 10.0649 1.54432C10.17 1.29016 10.3243 1.05922 10.5188 0.864722C10.7133 0.670227 10.9442 0.515994 11.1984 0.410848C11.4525 0.305702 11.7249 0.251707 12 0.251954C12.2751 0.251707 12.5475 0.305702 12.8016 0.410848C13.0558 0.515994 13.2867 0.670227 13.4812 0.864722C13.6757 1.05922 13.83 1.29016 13.9351 1.54432C14.0403 1.79849 14.0942 2.0709 14.094 2.34595C14.0942 2.62101 14.0403 2.89342 13.9351 3.14758C13.83 3.40175 13.6757 3.63269 13.4812 3.82719C13.2867 4.02168 13.0558 4.17591 12.8016 4.28106C12.5475 4.38621 12.2751 4.4402 12 4.43995Z"
        fill="#E434AA" />
</svg>
    