<svg width="28" height="28" viewBox="0 0 28 28" fill="none" xmlns="http://www.w3.org/2000/svg">
    <path
        d="M4.16436 24.9103L1.97577 0.363281H26.0243L23.8333 24.9066L13.9854 27.6366L4.16436 24.9103Z"
        fill="#E44D26" />
    <path d="M14 25.55L21.9577 23.3437L23.83 2.37036H14V25.55Z" fill="#F16529" />
    <path
        d="M14 11.4746H10.0162L9.74096 8.39154H14V5.3811H6.45074L6.52293 6.18873L7.26274 14.4853H14V11.4746ZM14 19.2934L13.9867 19.2971L10.6339 18.3915L10.4197 15.9907H7.39728L7.81903 20.7177L13.9862 22.4296L14 22.4259V19.2934Z"
        fill="#EBEBEB" />
    <path
        d="M13.9895 11.4746V14.4853H17.6967L17.3473 18.3897L13.9895 19.296V22.4283L20.1615 20.7177L20.2068 20.2091L20.9143 12.2831L20.9875 11.4746H20.1764H13.9895ZM13.9895 5.3811V8.39154H21.2616L21.322 7.71517L21.4594 6.18873L21.5313 5.3811H13.9895Z"
        fill="white" />
</svg>
    