<svg width="24" height="24" viewBox="0 0 24 24" fill="none" xmlns="http://www.w3.org/2000/svg">
    <path
        d="M8.92818 18.3974C8.92818 18.3974 8.03437 18.9175 9.56512 19.093C11.4199 19.3049 12.3677 19.2745 14.4111 18.8883C14.4111 18.8883 14.9494 19.2248 15.6997 19.5166C11.1174 21.4797 5.32949 19.4028 8.92818 18.3974ZM8.36793 15.8352C8.36793 15.8352 7.36518 16.5775 8.89724 16.7361C10.8786 16.9407 12.4429 16.9574 15.1511 16.4361C15.1511 16.4361 15.5248 16.8158 16.1134 17.0232C10.5742 18.6432 4.40474 17.1507 8.36793 15.8352Z"
        fill="#0074BD" />
    <path
        d="M13.0879 11.4884C14.2176 12.7887 12.7916 13.9578 12.7916 13.9578C12.7916 13.9578 15.6583 12.4782 14.3421 10.6246C13.1123 8.89681 12.1695 8.03862 17.2736 5.07837C17.2736 5.07856 9.26157 7.07899 13.0879 11.4884Z"
        fill="#EA2D2E" />
    <path
        d="M19.1481 20.2931C19.1481 20.2931 19.8098 20.8387 18.4191 21.2604C15.775 22.0614 7.4117 22.3029 5.08895 21.2924C4.25439 20.9291 5.82002 20.4252 6.31258 20.3189C6.82614 20.2077 7.11939 20.228 7.11939 20.228C6.1907 19.5742 1.11695 21.5124 4.54258 22.0683C13.884 23.5826 21.5708 21.3864 19.1481 20.2931ZM9.35852 13.1802C9.35852 13.1802 5.10489 14.1907 7.85233 14.558C9.01258 14.7132 11.3245 14.6776 13.4794 14.4969C15.24 14.3489 17.0068 14.033 17.0068 14.033C17.0068 14.033 16.3866 14.2991 15.9373 14.6054C11.617 15.7419 3.27283 15.2126 5.67527 14.0508C7.70627 13.0685 9.35852 13.1802 9.35852 13.1802ZM16.9892 17.4453C21.3806 15.164 19.35 12.9716 17.9327 13.2669C17.5862 13.3391 17.4308 13.4019 17.4308 13.4019C17.4308 13.4019 17.5598 13.1996 17.8058 13.1126C20.6095 12.1272 22.7653 16.0194 16.9015 17.561C16.9015 17.5606 16.9688 17.4997 16.9892 17.4453Z"
        fill="#0074BD" />
    <path
        d="M14.3421 0.297607C14.3421 0.297607 16.7736 2.73061 12.0353 6.47067C8.23538 9.47179 11.1688 11.1825 12.0339 13.138C9.81563 11.1368 8.1885 9.37486 9.27994 7.73517C10.8827 5.32879 15.3229 4.16161 14.3421 0.297607Z"
        fill="#EA2D2E" />
    <path
        d="M9.79014 23.6289C14.0044 23.8983 20.4776 23.4789 20.6308 21.4846C20.6308 21.4846 20.3363 22.2406 17.1476 22.8404C13.5503 23.5177 9.11251 23.4387 6.48132 23.0043C6.48132 23.0045 7.02039 23.4507 9.79014 23.6289Z"
        fill="#0074BD" />
</svg>
    