<svg width="48" height="48" viewBox="0 0 48 48" fill="none" xmlns="http://www.w3.org/2000/svg">
    <g clip-path="url(#clip0_422_12)">
        <path d="M0.528015 0.528076H47.472V47.4725H0.528015V0.528076Z" fill="#F0DB4F" />
        <path
            d="M43.6301 36.2761C43.2862 34.1344 41.8897 32.3356 37.7531 30.6582C36.3161 29.9978 34.7141 29.525 34.2367 28.436C34.0672 27.8022 34.0447 27.4452 34.152 27.0616C34.4599 25.8166 35.946 25.4285 37.1239 25.7855C37.8825 26.0397 38.6006 26.6243 39.0337 27.557C41.0595 26.2452 41.0554 26.2538 42.4699 25.3523C41.952 24.5495 41.6756 24.179 41.3366 23.8355C40.1182 22.4746 38.4581 21.7737 35.8031 21.8273L34.4201 22.0062C33.0949 22.3411 31.8319 23.0367 31.0912 23.9693C28.869 26.4908 29.5027 30.9038 32.2069 32.7199C34.8709 34.7194 38.7844 35.1743 39.2842 37.0441C39.7706 39.3331 37.602 40.0741 35.4465 39.8108C33.858 39.4805 32.9745 38.6731 32.0194 37.2049C30.2614 38.2223 30.2614 38.2223 28.4539 39.2618C28.8825 40.1989 29.3329 40.6231 30.0514 41.4349C33.4519 44.8842 41.9614 44.7147 43.4876 39.494C43.5495 39.3147 43.9605 38.1192 43.6301 36.2761ZM26.0482 22.1037H21.6574L21.6394 33.4557C21.6394 35.8699 21.7642 38.0832 21.3716 38.7616C20.7292 40.0958 19.0646 39.9304 18.306 39.6717C17.5339 39.2922 17.1412 38.7526 16.6864 37.9898C16.5615 37.7708 16.4677 37.6013 16.4362 37.5882L12.8662 39.7745C13.4599 40.9928 14.3344 42.0503 15.4545 42.7373C17.1277 43.7416 19.3766 44.0495 21.7286 43.5095C23.2594 43.0636 24.5801 42.14 25.2716 40.7341C26.2714 38.891 26.0569 36.6601 26.0479 34.1926C26.0704 30.167 26.0482 26.1421 26.0482 22.1037Z"
            fill="#323330" />
    </g>
    <defs>
        <clipPath id="clip0_422_12">
            <rect width="48" height="48" fill="white" />
        </clipPath>
    </defs>
</svg>
    