<svg width="24" height="24" viewBox="0 0 24 24" fill="none" xmlns="http://www.w3.org/2000/svg">
    <path fill-rule="evenodd" clip-rule="evenodd"
        d="M16.5071 8.02734C16.8081 8.89791 17.0248 9.78666 17.0961 10.7078C17.1846 11.8507 17.1441 12.9854 16.9031 14.1095C16.8966 14.1404 16.8827 14.1695 16.8724 14.1995C16.7968 14.1997 16.7198 14.1903 16.6459 14.2017C16.0217 14.2998 15.3981 14.4014 14.7744 14.5025C14.1298 14.6069 13.4843 14.7072 12.8408 14.8188C12.6128 14.8582 12.3306 14.8111 12.2385 15.1265C12.2359 15.1351 12.2096 15.1366 12.1944 15.1415L12.2256 13.2569L12.1939 8.70966L12.4943 8.65809C12.9855 8.57766 13.4768 8.49609 13.9684 8.41791C14.5551 8.32472 15.1423 8.23416 15.7294 8.14322C15.9883 8.10291 16.2476 8.06597 16.5071 8.02734Z"
        fill="#439934" />
    <path fill-rule="evenodd" clip-rule="evenodd"
        d="M11.5742 20.6352C11.2573 20.3628 10.9294 20.1023 10.6256 19.8158C8.99119 18.2742 7.79569 16.4598 7.20694 14.2722C7.04475 13.6701 6.93657 13.0583 6.90188 12.4362C6.8775 12.0008 6.84225 11.5615 6.873 11.1284C6.95494 9.97639 7.12144 8.83545 7.45932 7.72583L7.47788 7.69995C7.51069 7.74364 7.55794 7.78226 7.57463 7.83158C7.90444 8.80283 8.23182 9.77483 8.5575 10.7474C9.58088 13.8036 10.6029 16.8606 11.628 19.9161C11.6481 19.9758 11.7 20.0247 11.7373 20.0785L11.5742 20.6352Z"
        fill="#45A538" />
    <path fill-rule="evenodd" clip-rule="evenodd"
        d="M16.5071 8.02725C16.2476 8.06588 15.9881 8.10281 15.7292 8.14275C15.1421 8.23369 14.5549 8.32425 13.9682 8.41744C13.4766 8.49563 12.9853 8.57719 12.4941 8.65763L12.1937 8.70919L12.1914 8.51325C12.1815 8.35219 12.1644 8.19131 12.1626 8.03025C12.1496 7.00313 12.1416 5.976 12.1288 4.94888C12.1209 4.30594 12.1091 3.66319 12.096 3.02044C12.0879 2.62106 12.0793 2.2215 12.0613 1.82269C12.0516 1.60838 12.0171 1.39519 12.003 1.18088C11.9951 1.05769 12.006 0.933564 12.0084 0.809814C12.1616 1.10663 12.3114 1.40569 12.4689 1.70025C12.7178 2.166 13.1141 2.50913 13.4709 2.88356C14.8815 4.36331 15.8829 6.08381 16.5071 8.02725Z"
        fill="#46A037" />
    <path fill-rule="evenodd" clip-rule="evenodd"
        d="M12.1943 15.1411C12.2094 15.1362 12.2359 15.1347 12.2383 15.1261C12.3304 14.8107 12.6126 14.8578 12.8406 14.8184C13.4841 14.707 14.1296 14.6065 14.7743 14.5021C15.3979 14.401 16.0215 14.2994 16.6457 14.2013C16.7196 14.1897 16.7966 14.1993 16.8722 14.1991C16.7556 14.6153 16.6637 15.0406 16.5158 15.4454C16.3478 15.9046 16.1445 16.3527 15.9287 16.792C15.6056 17.4473 15.2057 18.0618 14.7375 18.6226C14.3777 19.0553 13.9766 19.4553 13.5746 19.8503C13.3524 20.0688 13.0905 20.2467 12.8468 20.443L12.7836 20.3999L12.5559 20.2053L12.3204 19.6891C12.1596 19.0869 12.0718 18.4676 12.0591 17.8445L12.0634 17.7393L12.0954 17.2844C12.1061 17.1291 12.1204 16.9741 12.1269 16.8185C12.1511 16.2593 12.1721 15.7002 12.1943 15.1411Z"
        fill="#409433" />
    <path fill-rule="evenodd" clip-rule="evenodd"
        d="M12.1942 15.1412C12.1721 15.7003 12.1511 16.2594 12.1273 16.8187C12.1207 16.9744 12.1065 17.1294 12.0958 17.2847L11.9524 17.3389C11.6338 16.401 11.3151 15.4731 11.0032 14.5427C10.4876 13.0035 9.97818 11.4619 9.46331 9.9223C9.04745 8.67964 8.6287 7.43795 8.20706 6.19724C8.18737 6.13912 8.13074 6.09374 8.09137 6.04237L9.00937 4.35449C9.04087 4.40924 9.0825 4.46043 9.10237 4.5193C9.52753 5.77595 9.95053 7.03333 10.3714 8.29143C10.9181 9.9283 11.4615 11.5665 12.0079 13.2036C12.0296 13.269 12.0656 13.3294 12.0999 13.4027L12.2256 13.2564L12.1942 15.1412Z"
        fill="#4FAA41" />
    <path fill-rule="evenodd" clip-rule="evenodd"
        d="M8.09156 6.04248C8.13093 6.09386 8.18737 6.13923 8.20725 6.19736C8.62889 7.43807 9.04764 8.67976 9.4635 9.92242C9.97837 11.462 10.4878 13.0036 11.0034 14.5428C11.3151 15.473 11.6338 16.4011 11.9526 17.339L12.096 17.2848L12.0639 17.7397L12.0349 17.8445C11.985 18.3425 11.943 18.8416 11.8822 19.3385C11.8517 19.5875 11.7868 19.832 11.7375 20.0785C11.7004 20.0247 11.6482 19.9758 11.6282 19.9162C10.6031 16.8605 9.58106 13.8037 8.55768 10.7474C8.23211 9.77479 7.90448 8.80285 7.57481 7.83161C7.55812 7.78229 7.51106 7.74367 7.47806 7.69998L8.09156 6.04248Z"
        fill="#4AA73C" />
    <path fill-rule="evenodd" clip-rule="evenodd"
        d="M12.2254 13.2567L12.0997 13.403C12.0654 13.3296 12.0294 13.2691 12.0077 13.2038C11.4615 11.5668 10.9179 9.92858 10.3712 8.2917C9.95035 7.0336 9.52735 5.77622 9.10219 4.51958C9.0825 4.4607 9.04087 4.40933 9.00919 4.35477L10.1445 2.86133C10.1803 2.90914 10.2313 2.9517 10.2499 3.00552C10.5651 3.9282 10.8774 4.85202 11.1879 5.77639C11.478 6.63964 11.7637 7.5042 12.0572 8.36633C12.0769 8.42408 12.1453 8.46495 12.1911 8.5137L12.1933 8.70964C12.2042 10.225 12.2149 11.741 12.2254 13.2567Z"
        fill="#57AE47" />
    <path fill-rule="evenodd" clip-rule="evenodd"
        d="M12.1914 8.5132C12.1457 8.46445 12.0772 8.42357 12.0576 8.36582C11.7641 7.5037 11.4784 6.63913 11.1883 5.77588C10.8778 4.85151 10.5654 3.92788 10.2502 3.00501C10.2317 2.9512 10.1807 2.90863 10.1449 2.86082C10.5141 2.49932 10.8718 2.12488 11.2558 1.78007C11.5972 1.4737 11.8717 1.1452 11.8843 0.661072C11.8849 0.64101 11.8954 0.620947 11.9115 0.564697L12.0088 0.809572C12.0064 0.93351 11.9953 1.05745 12.0034 1.18063C12.0174 1.39495 12.0519 1.60813 12.0617 1.82245C12.0797 2.22126 12.0883 2.62082 12.0964 3.0202C12.1093 3.66295 12.1211 4.3057 12.1292 4.94863C12.1417 5.97576 12.15 7.00288 12.1629 8.03001C12.1644 8.19145 12.1813 8.35213 12.1914 8.5132Z"
        fill="#60B24F" />
    <path fill-rule="evenodd" clip-rule="evenodd"
        d="M11.7371 20.0785C11.7864 19.8319 11.8513 19.5872 11.8819 19.3384C11.9428 18.8417 11.9846 18.3424 12.0345 17.8444L12.0469 17.8425L12.0593 17.8446C12.072 18.4677 12.1598 19.0871 12.3206 19.6892C12.2876 19.7327 12.2409 19.7715 12.2235 19.8207C12.0872 20.205 11.9588 20.5924 11.8217 20.9768C11.8029 21.0293 11.7508 21.0702 11.7141 21.1163L11.574 20.6352L11.7371 20.0785Z"
        fill="#A9AA88" />
    <path fill-rule="evenodd" clip-rule="evenodd"
        d="M11.7142 21.1165C11.751 21.0704 11.8033 21.0295 11.8219 20.977C11.9589 20.5926 12.0876 20.2055 12.2237 19.8209C12.2411 19.7718 12.2876 19.733 12.3208 19.6895L12.5561 20.2058C12.5096 20.2718 12.4455 20.3313 12.4196 20.4048L11.9689 21.7283C11.9503 21.7814 11.8869 21.8189 11.8446 21.8637L11.7142 21.1165Z"
        fill="#B6B598" />
    <path fill-rule="evenodd" clip-rule="evenodd"
        d="M11.8446 21.8634C11.8871 21.8188 11.9503 21.7811 11.9689 21.7281L12.4196 20.4045C12.4453 20.3312 12.5096 20.2716 12.5561 20.2056L12.7839 20.4C12.6739 20.5088 12.6127 20.6344 12.6495 20.7932L12.5803 21.0197C12.5488 21.0585 12.5032 21.0923 12.4877 21.1367C12.3304 21.5873 12.1802 22.0403 12.0217 22.4908C12.0017 22.548 11.946 22.5928 11.9066 22.6431C11.8862 22.383 11.8654 22.1235 11.8446 21.8634Z"
        fill="#C2C1A7" />
    <path fill-rule="evenodd" clip-rule="evenodd"
        d="M11.9068 22.6431C11.946 22.5927 12.0017 22.5479 12.0219 22.4909C12.1804 22.0405 12.3306 21.5875 12.4879 21.1368C12.5034 21.0925 12.5488 21.0586 12.5805 21.0198L12.4851 22.0595C12.4596 22.0889 12.4226 22.1146 12.4104 22.1489C12.3026 22.4515 12.201 22.7564 12.0928 23.059C12.0705 23.1215 12.0278 23.1766 11.9944 23.2349C11.9648 23.1961 11.9117 23.1586 11.9093 23.1181C11.8997 22.9604 11.9063 22.8016 11.9068 22.6431Z"
        fill="#CECDB7" />
    <path fill-rule="evenodd" clip-rule="evenodd"
        d="M11.9942 23.2348C12.0276 23.1763 12.0703 23.1211 12.0926 23.0589C12.201 22.7565 12.3024 22.4516 12.4102 22.1488C12.4224 22.1145 12.4596 22.089 12.4849 22.0593L12.4871 22.7418L12.2587 23.3276L11.9942 23.2348Z"
        fill="#DBDAC7" />
    <path fill-rule="evenodd" clip-rule="evenodd"
        d="M12.2587 23.3277L12.4871 22.7419L12.5342 23.4349L12.2587 23.3277Z" fill="#EBE9DC" />
    <path fill-rule="evenodd" clip-rule="evenodd"
        d="M12.6495 20.7933C12.6127 20.6345 12.6737 20.5087 12.7839 20.4001L12.8471 20.4433L12.6495 20.7933Z"
        fill="#CECDB7" />
    <path fill-rule="evenodd" clip-rule="evenodd"
        d="M12.0593 17.8447L12.0469 17.8427L12.0345 17.8446L12.0636 17.7397L12.0593 17.8447Z"
        fill="#4FAA41" />
</svg>
    