<svg width="24" height="24" viewBox="0 0 24 24" fill="none" xmlns="http://www.w3.org/2000/svg">
    <path
        d="M11.8749 6.10641C10.8999 6.26878 10.0813 6.66891 9.46875 7.28128C8.74369 8.00634 8.37507 8.87503 8.25 10.1626C8.19375 10.75 8.16244 13.0627 8.2125 13.0627C8.22507 13.0627 8.34375 13.0188 8.475 12.9625C8.78119 12.8313 9.44382 12.8313 9.7875 12.9563L10.05 13.0501L10.0813 11.5439C10.1124 9.93759 10.1499 9.69384 10.4499 9.09384C10.6562 8.69391 11.1563 8.22516 11.5813 8.03128C12.0688 7.80628 12.7813 7.71891 13.3313 7.80628C14.5063 8.00016 15.2063 8.63766 15.5001 9.77503C15.6188 10.2314 15.6249 10.4688 15.6249 12.9813V15.6877H17.5125L17.4812 12.7313C17.4624 9.93759 17.4501 9.75009 17.3188 9.25003C16.9626 7.86253 16.1001 6.85641 14.8937 6.40003C14.25 6.15628 13.6374 6.06253 12.7937 6.06891C12.375 6.07509 11.9625 6.09384 11.8749 6.10641Z"
        fill="#028BFF" />
    <path
        d="M4.26244 10.7249C3.72506 10.9936 3.43744 11.4749 3.43744 12.125C3.43744 12.3312 3.47494 12.5937 3.525 12.7124C3.64369 13.0062 3.98119 13.3625 4.275 13.5187C4.63125 13.7062 5.30625 13.7062 5.65631 13.5249L5.91244 13.3936L6.7125 13.9374L7.51256 14.4875V15.3187L6.7125 15.8686L5.90625 16.4187L5.7 16.2937C5.4 16.1187 4.81875 16.0812 4.4625 16.2187C4.0875 16.3625 3.69994 16.7062 3.55631 17.0311C3.39994 17.3624 3.39994 18.0125 3.55631 18.3436C3.68756 18.6374 3.99375 18.9624 4.26881 19.1062C4.38131 19.1624 4.65 19.2187 4.875 19.2374C5.4 19.2749 5.84381 19.1 6.16256 18.725C6.41869 18.425 6.58744 17.9 6.54375 17.5374L6.51244 17.2812L7.31869 16.7375L8.12494 16.1937L8.41256 16.325C8.85 16.5125 9.50006 16.4686 9.91256 16.2187C10.3626 15.9374 10.5876 15.5375 10.6125 14.975C10.6313 14.5812 10.6125 14.4937 10.4563 14.1875C10.05 13.4124 9.14381 13.1187 8.36869 13.5061L8.1375 13.6186L7.34381 13.0749L6.54994 12.5311L6.53119 12.0937C6.51881 11.5687 6.36881 11.2312 6 10.925C5.53125 10.5249 4.83131 10.4437 4.26244 10.7249Z"
        fill="#028BFF" />
</svg>
    