<svg width="24" height="24" viewBox="0 0 24 24" fill="none" xmlns="http://www.w3.org/2000/svg">
    <g clip-path="url(#clip0_435_169)">
        <path
            d="M15.0862 15.4885H13.4406L13.3029 15.351V11.4987C13.3029 10.8132 13.0337 10.282 12.2072 10.2634C11.7817 10.2522 11.2952 10.2634 10.7751 10.284L10.6971 10.3637V15.3492L10.5596 15.4866H8.91374L8.77631 15.3492V8.7683L8.91374 8.63086H12.6174C14.0569 8.63086 15.2235 9.79711 15.2235 11.2367V15.351L15.0862 15.4885Z"
            fill="#014847" />
        <path
            d="M11.0516 22.4816V17.5447L11.1891 17.4071H12.8385L12.9759 17.5446V22.4816L12.8385 22.6191H11.1892L11.0516 22.4816ZM11.0516 6.5745V1.63763L11.1891 1.5H12.8385L12.9759 1.63744V6.5745L12.8385 6.71194H11.1892L11.0516 6.5745ZM23.8644 13.0217H17.2817L17.1442 12.8843V11.235L17.2817 11.0976H23.8644L24.0019 11.235V12.8844L23.8644 13.0217ZM6.72019 13.0217H0.137437L0 12.8843V11.235L0.137437 11.0976H6.72019L6.85763 11.235V12.8844L6.72019 13.0217ZM5.12831 6.3405V6.11381L6.25969 4.98262H6.48619L8.2155 6.71194V7.91006L8.05575 8.06981H6.85763L5.12831 6.3405ZM6.48619 19.1346H6.25969L5.1285 18.0034V17.7767L6.85781 16.0476H8.05594L8.2155 16.2071V17.4053L6.48619 19.1346Z"
            fill="#05BDBA" />
    </g>
    <defs>
        <clipPath id="clip0_435_169">
            <rect width="24" height="24" fill="white" />
        </clipPath>
    </defs>
</svg>
    