<svg width="24" height="24" viewBox="0 0 24 24" fill="none" xmlns="http://www.w3.org/2000/svg">
    <g clip-path="url(#clip0_432_69)">
        <path
            d="M12 24C18.6274 24 24 18.6274 24 12C24 5.37258 18.6274 0 12 0C5.37258 0 0 5.37258 0 12C0 18.6274 5.37258 24 12 24Z"
            fill="black" />
        <path
            d="M19.9344 21.0026L9.21882 7.19995H7.20001V16.796H8.81514V9.25101L18.6664 21.9793C19.1103 21.6822 19.5339 21.3559 19.9344 21.0026Z"
            fill="url(#paint0_linear_432_69)" />
        <path d="M15.3334 7.19995H16.9333V16.8H15.3334V7.19995Z" fill="url(#paint1_linear_432_69)" />
    </g>
    <defs>
        <linearGradient id="paint0_linear_432_69" x1="14.5333" y1="15.5333" x2="19.2666"
            y2="21.3999" gradientUnits="userSpaceOnUse">
            <stop stop-color="white" />
            <stop offset="1" stop-color="white" stop-opacity="0" />
        </linearGradient>
        <linearGradient id="paint1_linear_432_69" x1="16.1333" y1="7.19994" x2="16.1065"
            y2="14.2499" gradientUnits="userSpaceOnUse">
            <stop stop-color="white" />
            <stop offset="1" stop-color="white" stop-opacity="0" />
        </linearGradient>
        <clipPath id="clip0_432_69">
            <rect width="24" height="24" fill="white" />
        </clipPath>
    </defs>
</svg>
    