<svg width="24" height="24" viewBox="0 0 24 24" fill="none" xmlns="http://www.w3.org/2000/svg">
    <g clip-path="url(#clip0_432_54)">
        <path
            d="M21.2094 4.88731C17.2815 -0.199191 9.97332 -1.13819 4.88663 2.7905C-0.199308 6.71918 -1.13737 14.0274 2.79132 19.1133C6.72075 24.1991 14.0295 25.1366 19.1147 21.2071C24.1986 17.2784 25.1368 9.9725 21.2094 4.88731Z"
            fill="#F37036" />
        <path
            d="M17.0771 4.53074C16.6765 4.56275 16.2967 4.72215 15.9932 4.98561C15.6379 5.29402 15.4112 5.7244 15.3578 6.19179C15.3043 6.65919 15.428 7.12965 15.7044 7.5103C15.9805 7.89113 16.3892 8.15466 16.8501 8.2489C17.3109 8.34313 17.7903 8.26124 18.1937 8.01936H18.1941L18.2233 8.04861C18.3562 7.97244 18.4798 7.88122 18.5917 7.77674C18.937 7.41146 19.127 6.92636 19.1215 6.42373C19.1161 5.92111 18.9156 5.44025 18.5625 5.08255V5.08218L16.9042 6.73011L16.875 6.70105L18.5332 5.05236C18.3413 4.8673 18.1122 4.72512 17.8612 4.63526C17.6102 4.5454 17.3429 4.5099 17.0771 4.53111V4.53074ZM14.8939 7.2283C14.0989 7.22699 12.8008 8.12811 9.63131 11.2976L9.64706 11.3137C9.62981 11.3077 9.61237 11.3072 9.61237 11.3072L8.41912 12.4899C8.38848 12.5191 8.36819 12.5574 8.36136 12.5992C8.35452 12.6409 8.3615 12.6837 8.38124 12.7211C8.40098 12.7585 8.4324 12.7885 8.47071 12.8064C8.50903 12.8243 8.55214 12.8292 8.5935 12.8203L10.6399 12.3838C10.6489 12.3753 10.655 12.3641 10.6571 12.3519L10.7025 12.3988L10.005 13.0907H9.97124L5.83012 17.2644L7.15874 18.5439C7.1959 18.5774 7.24277 18.5982 7.29255 18.6032C7.34232 18.6082 7.39239 18.5973 7.43549 18.5719C7.47897 18.5467 7.5138 18.5089 7.53538 18.4635C7.55697 18.4181 7.56431 18.3672 7.55643 18.3176L7.36237 17.4739C7.35027 17.4569 7.34377 17.4366 7.34377 17.4157C7.34377 17.3949 7.35027 17.3746 7.36237 17.3576C9.17627 16.4929 10.8631 15.3836 12.3757 14.0608L11.5254 13.2101L11.5416 13.2075L11.0372 12.7033L11.0694 12.6707L11.1036 12.7056L11.0859 12.7226L12.4241 14.0901V14.0895C14.9891 11.6606 16.8097 9.70818 16.3363 8.39418C16.3147 8.23704 16.2418 8.09147 16.1287 7.98018V7.98093C16.1 7.95954 16.0698 7.94036 16.0382 7.92355C16.0226 7.90705 16.0089 7.89018 15.9924 7.87405L15.9801 7.88643C15.9453 7.8652 15.9088 7.84701 15.8709 7.83205L15.9251 7.7773C15.5884 7.4773 15.3101 7.22905 14.8939 7.22793V7.2283ZM5.80124 17.2894L4.83168 18.2591V18.2599C4.79689 18.2814 4.76985 18.3135 4.75445 18.3514C4.73905 18.3893 4.73609 18.4311 4.74599 18.4708C4.75556 18.5105 4.7774 18.5462 4.8084 18.5727C4.83941 18.5993 4.878 18.6154 4.91868 18.6187L7.29468 18.7828L5.80124 17.2894Z"
            fill="white" />
        <path
            d="M17.2406 4.37061C16.6964 4.36993 16.1738 4.58344 15.7858 4.96498C15.5097 5.24754 15.3207 5.60353 15.2412 5.99052C15.1618 6.37751 15.1952 6.77918 15.3377 7.14767C14.4487 6.76704 13.2461 7.43079 9.50531 11.1709C9.50268 11.1766 9.50036 11.1825 9.49837 11.1885C9.49073 11.192 9.48328 11.1958 9.47606 11.2001L8.29312 12.3934C8.23642 12.449 8.19918 12.5215 8.18692 12.6C8.17466 12.6785 8.18803 12.7588 8.22506 12.8291C8.25811 12.8847 8.30491 12.9309 8.36096 12.9632C8.41701 12.9955 8.48043 13.0129 8.54512 13.0136L8.60381 12.9755L10.1833 12.6386L9.42768 13.4012C9.42328 13.4112 9.41989 13.4216 9.41756 13.4323L5.71443 17.1446C5.69967 17.157 5.68744 17.1722 5.67843 17.1892L4.72481 18.1436C4.67728 18.1938 4.64481 18.2563 4.63108 18.324C4.61736 18.3917 4.62294 18.462 4.64718 18.5267C4.67205 18.591 4.71421 18.6472 4.769 18.689C4.8238 18.7309 4.8891 18.7568 4.95768 18.7639L7.32356 18.9289C7.36391 18.9147 7.39828 18.8872 7.42106 18.851C7.4414 18.8228 7.45234 18.7888 7.45234 18.754C7.45234 18.7192 7.4414 18.6852 7.42106 18.657L7.41618 18.6523C7.46724 18.6255 7.51223 18.5885 7.54837 18.5435C7.58637 18.4942 7.61291 18.4371 7.62608 18.3762C7.63924 18.3154 7.6387 18.2524 7.6245 18.1918L7.44 17.4067C9.21007 16.5608 10.8686 15.4989 12.3776 14.2453C12.3923 14.2536 12.4079 14.2601 12.4241 14.2646C12.4717 14.261 12.5164 14.2406 12.5501 14.2069C15.0907 11.8012 16.5842 10.1527 16.5842 8.84398C16.5897 8.66244 16.5623 8.4814 16.5034 8.30961C16.7323 8.40455 16.9766 8.45727 17.2243 8.46523L17.2215 8.46598C17.5627 8.45555 17.8962 8.36224 18.1933 8.19411C18.1936 8.19417 18.1938 8.19423 18.1941 8.19429C18.2325 8.20582 18.2739 8.20213 18.3097 8.18398C18.4531 8.09957 18.5838 7.99528 18.6979 7.87423C18.8912 7.68451 19.0448 7.45816 19.1497 7.20841C19.2546 6.95865 19.3087 6.69049 19.3087 6.41961C19.3087 6.14873 19.2547 5.88059 19.1498 5.63083C19.045 5.38107 18.8914 5.15472 18.6981 4.96498C18.6912 4.95871 18.6838 4.95301 18.6759 4.94792C18.29 4.57732 17.7755 4.37049 17.2404 4.37079L17.2406 4.37061ZM17.2243 4.70286C17.6032 4.70512 17.971 4.83114 18.2717 5.06173L16.7589 6.58367C16.7537 6.58943 16.749 6.59558 16.7447 6.60204C16.7174 6.62963 16.7014 6.66641 16.6999 6.70517C16.6999 6.72859 16.7052 6.7517 16.7153 6.7728C16.7255 6.7939 16.7403 6.81244 16.7586 6.82704H16.7589L17.9027 7.97079C17.5896 8.10731 17.2426 8.14611 16.9071 8.08211C16.5716 8.01811 16.2633 7.85429 16.0224 7.61211C15.5376 7.12461 15.3969 6.39261 15.6562 5.75754C15.9156 5.12192 16.5337 4.70661 17.2243 4.70286ZM18.5593 5.34636C18.8067 5.64562 18.9415 6.02198 18.9405 6.41023C18.9398 6.86507 18.7585 7.30101 18.4365 7.62223C18.3719 7.68297 18.3031 7.73905 18.2306 7.79004L17.3076 6.88123L17.127 6.70067L17.1767 6.65098L18.5591 5.34598L18.5593 5.34636ZM18.4907 6.13254C18.4568 6.12182 18.4201 6.12389 18.3876 6.13836C18.3554 6.15501 18.3311 6.18373 18.3201 6.21823C18.3146 6.23546 18.3127 6.25359 18.3143 6.27158C18.3159 6.28956 18.321 6.30706 18.3294 6.32304C18.3628 6.39309 18.3759 6.47104 18.3674 6.54814C18.3589 6.62525 18.329 6.69845 18.2812 6.75954C18.269 6.77134 18.2594 6.7856 18.2531 6.80137C18.2468 6.81714 18.244 6.83407 18.2447 6.85104C18.2454 6.88554 18.2578 6.91854 18.2812 6.94329C18.3062 6.95284 18.3339 6.95284 18.3589 6.94329C18.3814 6.94892 18.4051 6.94828 18.4273 6.94144C18.4495 6.9346 18.4694 6.92182 18.4849 6.90448C18.5647 6.80665 18.6152 6.68826 18.6306 6.56296C18.646 6.43767 18.6257 6.31056 18.5721 6.19629V6.19704C18.5538 6.16628 18.5248 6.14332 18.4907 6.13254ZM14.8762 7.39311C15.1025 7.40061 15.3203 7.48127 15.4969 7.62298C15.3066 7.65036 15.1303 7.73849 14.9942 7.87423L10.7179 12.1314L9.87862 11.2922C12.0964 9.08492 13.4524 7.93198 14.2954 7.55417C14.469 7.44463 14.671 7.38875 14.8762 7.39311ZM15.6197 7.94811C15.7633 7.94811 15.901 8.00502 16.0027 8.10636C16.0569 8.15713 16.0996 8.21886 16.128 8.28743C16.1564 8.35601 16.1699 8.42985 16.1676 8.50404C16.1651 8.57796 16.1474 8.65057 16.1157 8.71735C16.0839 8.78413 16.0387 8.84365 15.9829 8.89217L11.436 12.8495L10.9453 12.3589L15.2366 8.10636C15.3384 8.00509 15.4761 7.94806 15.6197 7.94811ZM16.1811 9.20398C15.8642 10.4606 14.1847 12.1633 12.4335 13.8178L11.7253 13.1104L16.1811 9.20398ZM9.63131 11.54L9.68268 11.5907L10.3414 12.2494L8.53575 12.6356L9.63131 11.54ZM10.7175 12.635L10.7182 12.6358L10.9372 12.8599C10.9382 12.8651 10.9393 12.8704 10.9406 12.8756L10.9552 12.8779L11.0017 12.9255L11.1555 13.083L10.1458 13.2067L10.7177 12.6349L10.7175 12.635ZM11.4426 13.3993L12.1134 14.0698C10.63 15.3034 9.00211 16.352 7.26562 17.1928C7.20924 17.2196 7.16391 17.2652 7.13735 17.3217C7.11079 17.3782 7.10463 17.4422 7.11993 17.5027L7.314 18.3465C7.32115 18.3564 7.325 18.3683 7.325 18.3805C7.325 18.3927 7.32115 18.4046 7.314 18.4145C7.30333 18.4241 7.28951 18.4294 7.27518 18.4294C7.26086 18.4294 7.24704 18.4241 7.23637 18.4145L6.09225 17.261L9.61875 13.6828L11.4426 13.3993ZM5.83012 17.513L5.99306 17.6657L6.83531 18.5079L4.95731 18.3864L5.83012 17.513Z"
            fill="#F37036" />
    </g>
    <defs>
        <clipPath id="clip0_432_54">
            <rect width="24" height="24" fill="white" />
        </clipPath>
    </defs>
</svg>
    