<svg width="24" height="24" viewBox="0 0 24 24" fill="none" xmlns="http://www.w3.org/2000/svg">
    <path
        d="M11.8858 2.29654C11.0942 2.30029 10.3385 2.3676 9.67329 2.48535C7.71391 2.83147 7.35841 3.55597 7.35841 4.89229V6.65685H11.9884V7.24504H5.62066C4.27516 7.24504 3.09691 8.05372 2.72829 9.59272C2.30304 11.3562 2.28429 12.4568 2.72829 14.2982C3.05735 15.669 3.84335 16.6455 5.18904 16.6455H6.7811V14.5302C6.7811 13.0018 8.10316 11.6539 9.67348 11.6539H14.2982C15.5855 11.6539 16.613 10.5938 16.613 9.30116V4.89247C16.613 3.63754 15.5544 2.69497 14.2982 2.48554C13.5024 2.35316 12.6772 2.29297 11.8858 2.29654ZM9.38191 3.71572C9.86004 3.71572 10.2508 4.11266 10.2508 4.60091C10.2508 5.0871 9.86023 5.48029 9.38191 5.48029C8.90191 5.48029 8.51323 5.0871 8.51323 4.60091C8.51304 4.11266 8.90191 3.71572 9.38191 3.71572Z"
        fill="url(#paint0_linear_433_108)" />
    <path
        d="M17.1904 7.24506V9.30119C17.1904 10.8949 15.8389 12.2365 14.298 12.2365H9.67333C8.40658 12.2365 7.35846 13.3208 7.35846 14.5894V18.9985C7.35846 20.2531 8.44933 20.9912 9.67333 21.3511C11.1388 21.7817 12.5443 21.8597 14.298 21.3511C15.4635 21.0134 16.6129 20.3342 16.6129 18.9985V17.2337H11.9884V16.6454H18.9281C20.2736 16.6454 20.7754 15.7069 21.2434 14.2981C21.7268 12.8477 21.706 11.4529 21.2434 9.59256C20.9108 8.25287 20.2757 7.24487 18.9281 7.24487L17.1904 7.24506ZM14.5892 18.4101C15.0694 18.4101 15.4581 18.8033 15.4581 19.2899C15.4581 19.7777 15.0692 20.1747 14.5892 20.1747C14.1111 20.1747 13.7205 19.7777 13.7205 19.2899C13.7205 18.8033 14.1111 18.4101 14.5892 18.4101Z"
        fill="url(#paint1_linear_433_108)" />
    <path opacity="0.444"
        d="M18.2454 22.4244C18.2454 23.0887 15.4674 23.6274 12.0409 23.6274C8.61412 23.6274 5.83612 23.0887 5.83612 22.4244C5.83612 21.7599 8.61393 21.2212 12.0409 21.2212C15.4674 21.2212 18.2454 21.7597 18.2454 22.4244Z"
        fill="url(#paint2_radial_433_108)" />
    <defs>
        <linearGradient id="paint0_linear_433_108" x1="1.93814" y1="2.84828" x2="12.617"
            y2="11.9551" gradientUnits="userSpaceOnUse">
            <stop stop-color="#5A9FD4" />
            <stop offset="1" stop-color="#306998" />
        </linearGradient>
        <linearGradient id="paint1_linear_433_108" x1="16.6348" y1="17.6161" x2="12.8052"
            y2="12.2457" gradientUnits="userSpaceOnUse">
            <stop stop-color="#FFD43B" />
            <stop offset="1" stop-color="#FFE873" />
        </linearGradient>
        <radialGradient id="paint2_radial_433_108" cx="0" cy="0" r="1"
            gradientUnits="userSpaceOnUse"
            gradientTransform="translate(12.0158 22.3899) rotate(-90) scale(1.20343 5.2901)">
            <stop stop-color="#B8B8B8" stop-opacity="0.498" />
            <stop offset="1" stop-color="#7F7F7F" stop-opacity="0" />
        </radialGradient>
    </defs>
</svg>
    