<svg width="24" height="24" viewBox="0 0 24 24" fill="none" xmlns="http://www.w3.org/2000/svg">
    <path
        d="M12 14.1375C13.1805 14.1375 14.1375 13.1806 14.1375 12C14.1375 10.8195 13.1805 9.86255 12 9.86255C10.8195 9.86255 9.86249 10.8195 9.86249 12C9.86249 13.1806 10.8195 14.1375 12 14.1375Z"
        fill="#61DAFB" />
    <path
        d="M20.1188 8.47505C19.7063 8.32505 19.275 8.17505 18.825 8.0438C18.9375 7.5938 19.0313 7.1438 19.1063 6.71255C19.5 4.23755 19.0688 2.4938 17.8688 1.8188C17.5125 1.61255 17.1188 1.5188 16.6688 1.5188C15.3563 1.5188 13.6875 2.4938 12 4.12505C10.3125 2.4938 8.64376 1.5188 7.33126 1.5188C6.88126 1.5188 6.48751 1.61255 6.13126 1.8188C4.93126 2.51255 4.50001 4.2563 4.89376 6.71255C4.96876 7.1438 5.06251 7.5938 5.17501 8.0438C4.72501 8.17505 4.29376 8.3063 3.88126 8.47505C1.53751 9.37505 0.262512 10.6125 0.262512 12C0.262512 13.3876 1.55626 14.6251 3.88126 15.5251C4.29376 15.6751 4.72501 15.825 5.17501 15.9563C5.06251 16.4063 4.96876 16.8563 4.89376 17.2875C4.50001 19.7625 4.93126 21.5063 6.13126 22.1813C6.48751 22.3876 6.88126 22.4813 7.33126 22.4813C8.66251 22.4813 10.3313 21.5063 12 19.8751C13.6875 21.5063 15.3563 22.4813 16.6688 22.4813C17.1188 22.4813 17.5125 22.3876 17.8688 22.1813C19.0688 21.4876 19.5 19.7438 19.1063 17.2875C19.0313 16.8563 18.9375 16.4063 18.825 15.9563C19.275 15.825 19.7063 15.6938 20.1188 15.5251C22.4625 14.6251 23.7375 13.3876 23.7375 12C23.7375 10.6125 22.4625 9.37505 20.1188 8.47505ZM17.3438 2.7563C18.1125 3.2063 18.375 4.5938 18.0563 6.56255C18 6.9563 17.9063 7.3688 17.7938 7.80005C16.8188 7.57505 15.7875 7.42505 14.7 7.3313C14.0625 6.4313 13.4063 5.62505 12.75 4.8938C14.1375 3.52505 15.5438 2.58755 16.6875 2.58755C16.9313 2.58755 17.1563 2.6438 17.3438 2.7563ZM15.2438 13.8751C14.9063 14.4751 14.5125 15.075 14.1 15.675C13.4063 15.7313 12.7125 15.7501 12 15.7501C11.2688 15.7501 10.575 15.7313 9.90001 15.675C9.48751 15.075 9.11251 14.4751 8.77501 13.8751C8.41876 13.2563 8.08126 12.6188 7.78126 12C8.08126 11.3813 8.41876 10.7438 8.77501 10.125C9.11251 9.52505 9.50626 8.92505 9.91876 8.32505C10.6125 8.2688 11.3063 8.25005 12.0188 8.25005C12.75 8.25005 13.4438 8.2688 14.1188 8.32505C14.5313 8.92505 14.9063 9.52505 15.2438 10.125C15.6 10.7438 15.9375 11.3813 16.2375 12C15.9188 12.6188 15.6 13.2376 15.2438 13.8751ZM16.8 13.2563C17.0813 13.9125 17.3063 14.5501 17.5125 15.1876C16.875 15.3376 16.2 15.4501 15.4875 15.5438C15.7125 15.1876 15.9563 14.8126 16.1625 14.4188C16.3875 14.0251 16.5938 13.6313 16.8 13.2563ZM12 18.3376C11.55 17.8501 11.1188 17.3251 10.7063 16.7813C11.1375 16.8001 11.5688 16.8188 12 16.8188C12.4313 16.8188 12.8625 16.8001 13.2938 16.7813C12.8813 17.3251 12.45 17.8501 12 18.3376ZM8.51251 15.5251C7.80001 15.4313 7.12501 15.3188 6.48751 15.1688C6.69376 14.5501 6.91876 13.8938 7.20001 13.2375C7.40626 13.6125 7.61251 14.0063 7.83751 14.3813C8.06251 14.7938 8.28751 15.1501 8.51251 15.5251ZM7.20001 10.7438C6.91876 10.0875 6.69376 9.45005 6.48751 8.81255C7.12501 8.66255 7.80001 8.55005 8.51251 8.4563C8.28751 8.81255 8.04376 9.18755 7.83751 9.5813C7.61251 9.97505 7.40626 10.3688 7.20001 10.7438ZM12 5.66255C12.45 6.15005 12.8813 6.67505 13.2938 7.2188C12.8625 7.20005 12.4313 7.1813 12 7.1813C11.5688 7.1813 11.1375 7.20005 10.7063 7.2188C11.1188 6.67505 11.55 6.15005 12 5.66255ZM16.1625 9.60005L15.4875 8.47505C16.2 8.5688 16.875 8.6813 17.5125 8.8313C17.3063 9.45005 17.0813 10.1063 16.8 10.7626C16.5938 10.3688 16.3875 9.97505 16.1625 9.60005ZM5.94376 6.56255C5.62501 4.5938 5.88751 3.2063 6.65626 2.7563C6.84376 2.6438 7.06876 2.58755 7.31251 2.58755C8.43751 2.58755 9.84376 3.5063 11.25 4.8938C10.5938 5.6063 9.93751 6.4313 9.30001 7.3313C8.21251 7.42505 7.18126 7.5938 6.20626 7.80005C6.09376 7.3688 6.01876 6.9563 5.94376 6.56255ZM1.31251 12C1.31251 11.1188 2.38126 10.1813 4.25626 9.48755C4.63126 9.33755 5.04376 9.2063 5.45626 9.0938C5.75626 10.0313 6.13126 11.025 6.58126 12.0188C6.13126 13.0125 5.73751 13.9875 5.45626 14.925C2.86876 14.175 1.31251 13.0501 1.31251 12ZM6.65626 21.2438C5.88751 20.7938 5.62501 19.4063 5.94376 17.4376C6.00001 17.0438 6.09376 16.6313 6.20626 16.2001C7.18126 16.4251 8.21251 16.5751 9.30001 16.6688C9.93751 17.5688 10.5938 18.3751 11.25 19.1063C9.86251 20.4751 8.45626 21.4126 7.31251 21.4126C7.06876 21.4126 6.84376 21.3563 6.65626 21.2438ZM18.0563 17.4376C18.375 19.4063 18.1125 20.7938 17.3438 21.2438C17.1563 21.3563 16.9313 21.4126 16.6875 21.4126C15.5625 21.4126 14.1563 20.4938 12.75 19.1063C13.4063 18.3938 14.0625 17.5688 14.7 16.6688C15.7875 16.5751 16.8188 16.4063 17.7938 16.2001C17.9063 16.6313 17.9813 17.0438 18.0563 17.4376ZM19.7438 14.5126C19.3688 14.6626 18.9563 14.7938 18.5438 14.9063C18.2438 13.9688 17.8688 12.9751 17.4188 11.9813C17.8688 10.9876 18.2625 10.0126 18.5438 9.07505C21.1313 9.82505 22.6875 10.95 22.6875 12C22.6875 12.8813 21.6 13.8188 19.7438 14.5126Z"
        fill="#61DAFB" />
</svg>
    