<svg width="24" height="24" viewBox="0 0 24 24" fill="none" xmlns="http://www.w3.org/2000/svg">
    <g clip-path="url(#clip0_461_7)">
        <path
            d="M13.0313 18.5955C13.0202 18.4586 13.0136 18.3705 13.0136 18.3705C13.0136 18.3705 12.6 15.5788 12.1069 14.7454C12.0293 14.6128 12.1149 14.0715 12.3332 13.2679C12.4607 13.4871 12.9969 14.4289 13.1053 14.7322C13.2268 15.0742 13.2516 15.1723 13.2516 15.1723C13.2516 15.1723 12.9572 13.6569 12.4746 12.7729C12.5919 12.3788 12.7171 11.9872 12.8503 11.5982C13.0328 11.9188 13.4715 12.6967 13.5681 12.9669C13.5872 13.0219 13.6041 13.0687 13.6187 13.1121C13.623 13.0864 13.6281 13.0607 13.6326 13.0344C13.5219 12.5649 13.3044 11.7482 13.0071 11.1441C13.6671 7.70756 15.9191 3.11456 18.2271 1.06519H3.16875C2.15869 1.06519 1.33331 1.89131 1.33331 2.90062V19.5075C1.33331 20.5168 2.15944 21.3429 3.16894 21.3429H13.0871C13.012 20.4292 12.9934 19.5117 13.0314 18.5957"
            fill="#0B7FCC" />
        <path
            d="M12.3332 13.268C12.4607 13.487 12.9969 14.4282 13.1051 14.7321C13.2268 15.0741 13.2516 15.1722 13.2516 15.1722C13.2516 15.1722 12.9572 13.6568 12.4746 12.7728C12.592 12.3784 12.7172 11.9865 12.8503 11.5971C13.0166 11.891 13.3982 12.5663 13.5351 12.8856L13.5504 12.7055C13.4289 12.2375 13.2443 11.6243 13.0071 11.144C13.6149 7.98065 15.5721 3.83709 17.6807 1.60059H3.16856C2.82387 1.60088 2.49338 1.73793 2.24963 1.98165C2.00588 2.22536 1.86879 2.55583 1.86844 2.90052V18.2961C5.15475 17.0341 9.11794 15.8811 12.5288 15.931C12.4028 15.4426 12.2586 15.001 12.1069 14.7453C12.0293 14.6127 12.1149 14.0708 12.3332 13.268Z"
            fill="url(#paint0_linear_461_7)" />
        <path
            d="M21.7406 0.521546C20.7094 -0.398329 19.4599 -0.0283917 18.228 1.06511C18.0378 1.23531 17.8554 1.41419 17.6816 1.60117C15.5723 3.8373 13.6159 7.98048 13.008 11.144C13.2446 11.6245 13.4299 12.2375 13.5506 12.7055C13.5821 12.8255 13.6106 12.9384 13.6335 13.0344C13.6869 13.2607 13.7154 13.4086 13.7154 13.4086C13.7154 13.4086 13.6965 13.3368 13.6189 13.112C13.6043 13.0689 13.5874 13.0212 13.5683 12.967C13.5602 12.9436 13.5486 12.9157 13.536 12.8857C13.3984 12.5664 13.0176 11.891 12.8505 11.5981C12.7076 12.02 12.5811 12.4156 12.4748 12.7728C12.9581 13.6569 13.2527 15.1722 13.2527 15.1722C13.2527 15.1722 13.227 15.0742 13.1061 14.7322C12.9977 14.4282 12.4609 13.4872 12.3341 13.268C12.1159 14.0707 12.0294 14.6127 12.1078 14.7455C12.2595 15.0009 12.4029 15.4434 12.5297 15.931C12.8154 17.0311 13.0146 18.3708 13.0146 18.3708C13.0146 18.3708 13.0204 18.4587 13.0322 18.5958C12.9941 19.5118 13.0127 20.4292 13.0879 21.3429C13.1824 22.4885 13.3603 23.4734 13.5874 24.0001L13.7426 23.9159C13.4087 22.8781 13.2731 21.5172 13.3324 19.9492C13.4224 17.5505 13.974 14.6589 14.9929 11.645C16.7162 7.09436 19.1063 3.44411 21.2933 1.70092C19.2996 3.5013 16.6014 9.32917 15.7935 11.4875C14.8898 13.9045 14.2489 16.172 13.8621 18.3451C14.5277 16.3083 16.6834 15.4332 16.6834 15.4332C16.6834 15.4332 17.7403 14.1286 18.9759 12.2667C18.2353 12.436 17.0203 12.7246 16.6138 12.8952C16.0138 13.1472 15.8513 13.2327 15.8513 13.2327C15.8513 13.2327 17.7958 12.0492 19.4644 11.5132C21.7583 7.90005 24.2573 2.76667 21.7408 0.521733"
            fill="#003956" />
    </g>
    <defs>
        <linearGradient id="paint0_linear_461_7" x1="10.9856" y1="1.94075" x2="10.9856" y2="17.3669"
            gradientUnits="userSpaceOnUse">
            <stop stop-color="#95D7F4" />
            <stop offset="0.92" stop-color="#0F7FCC" />
            <stop offset="1" stop-color="#0F7FCC" />
        </linearGradient>
        <clipPath id="clip0_461_7">
            <rect width="24" height="24" fill="white" />
        </clipPath>
    </defs>
</svg>
    