<svg width="28" height="28" viewBox="0 0 28 28" fill="none" xmlns="http://www.w3.org/2000/svg">
    <g clip-path="url(#clip0_432_106)">
        <path
            d="M14.0009 5.60034C10.2674 5.60034 7.93492 7.46628 7.00085 11.1997C8.40042 9.33353 10.0343 8.63375 11.9004 9.10034C12.9659 9.3659 13.7274 10.1385 14.5707 10.9947C15.9431 12.3875 17.5317 13.9999 21.0009 13.9999C24.734 13.9999 27.0668 12.1337 28.0009 8.39947C26.6011 10.2667 24.9674 10.9665 23.1011 10.4999C22.0358 10.2341 21.2752 9.46172 20.4308 8.60553C19.0592 7.21275 17.4711 5.60034 14.0009 5.60034ZM7.00085 13.9999C3.26767 13.9999 0.934917 15.8661 0.000854492 19.6003C1.40042 17.7331 3.03404 17.0333 4.90042 17.4999C5.96595 17.7657 6.72742 18.5381 7.5707 19.3943C8.94314 20.7871 10.5317 22.3995 14.0009 22.3995C17.734 22.3995 20.0668 20.5335 21.0009 16.8001C19.6011 18.6663 17.9674 19.3661 16.1011 18.8995C15.0358 18.6339 14.2752 17.8613 13.4308 17.0051C12.0592 15.6123 10.4711 13.9999 7.00085 13.9999Z"
            fill="#38BDF8" />
    </g>
    <defs>
        <clipPath id="clip0_432_106">
            <rect width="28" height="28" fill="white" />
        </clipPath>
    </defs>
</svg>
    